/* XPM */
static char *result[] = {
/* columns rows colors chars-per-pixel */
"64 64 9 1 ",
"  c #DDBF41",
". c #DEB64F",
"X c #E6BE4C",
"o c #E1A652",
"O c #E6BE57",
"+ c #DAD054",
"@ c #E3CF5F",
"# c #EBD751",
"$ c #EBD75C",
/* pixels */
".OO.OO@$@$@.Oo.oO@@Oo.O@.O..O@O@O@@O.OO.O..@.o...OO@@OOO@OOOO.o.",
"...OO..@@OOOO..O.OOOO..OO.oO@O@$@OOOO@$O..OOO.OO.OOO.O.OOO@.OOO.",
"OOOOOOO$@OOOOo.O@OO..O.oo@.@$@$@O.@@$@@o.OOo.O.o.OOOO@OoO@@@.O@O",
"@OO@O@O@OOO@..OoO@..O..O@O@@@OOO.o.@@.OO.O@O@..O@OOO@O@O@$$O@@OO",
"O@O@O@@OO@O@OO@.OO.O.oO@OO.O@O...O.O@O.@O.OOOO.@O@O@OO$$$$@$O.OO",
"@@@@@OOO@O@@@@Oo.O@O@.@$@@OOOO.OO.OOO.O@@O..OOOOO$@O@.O@$@$@@X.@",
"OO@@O.@@@@O@@.OO.OO.O@@@O.oO...O.O@O...O@O.O.o..O@O@O..O@O@XO.OO",
".@OO.o.@@O@OOO@OO.O.O.O@OOO.oo.O..@..O.o..O.OO@@@Oo..OOO@@OOO@@.",
"oO...O.O@O..O.O.@.OO@OOOO.OO.OO..OOO..O.o..O.O.O.OO@OOO.oO.O@OOO",
"O..OO.OOOO.O...@O..O.oO..O..O.o.oOo.OO@O.O@.@@@OO@@O@$@oO..o.O.O",
"@O...o.O.o.O@OOo...OOO.oo.o..oo...O...@@@OO@$$$@OOOO@@OO.OO.O@OO",
".Ooo.OO...OoOO@OOOOO.OO.O..oo.oO.o.o.OOO@$$$@$$@$@O@.OOOO@@O@O@O",
"o.O.O@O.Oo.O.@@.@$O.O..O.O..o...O.o.OOo@$@@$$@@OOO..O@.O..O@OO$@",
"o.@.@$OO@@O@$$O@@@@O.o..oo.o.oo..oo...OO.OO@$@$@.Oo.oO@@Oo.O@.O.",
".....@@$@$$$@$$O.O@...oo.O..O.oo...oo...OO..@@OOOO..O.OOOO..OO.O",
"OoO.O.O@$$@$@O@@O.OOO..o.O.O.O.OO.OoOOOOOOOO$@OOOOo.O@OO..O.ooO.",
"@.OO@$OOO@OOO.OO.OO.o.o.oOOOO.o.@O..O@OO@O@O@OOO@..OoO@..O..O@O@",
"OOOOO@O@OOOO...O..OOO..O.O@.OOO.@@O.@O@O@O@@OO@O@OO@.OO.O.oO@O@$",
"...O.O@O.o.O.O.O@.O.O.O.O@@@.O@OO@.@O@@@@@OOO@O@@@@Oo.O@O@.@$@$@",
"OO.O..@.o...OO@@OOO@OOOO.$$O@@OO@O.@@OO@@O.@@@@O@@.OO.OO.O@@@OOO",
"@$O..OOO.OO.OOO.O.OOO@.OO$@$O.OOO@@@O.@OO.o.@@O@OOO@OO.O.O.O@O..",
"@@o.OOo.O.o.OOOO@OoO@@@.O@$@@O.@.O@O.oO...O.O@O..O.O.@.OO@OOOO.O",
".OO.O@O@..O@OOO@O@O@$$O@@O@OO.OO@OO.OO..OO.OOOO.O...@O..O.oO...O",
"O.@O.OOOO.O.OO@@@Oo..OOO@@OOO@@..O.OO@O...o.O.o.O@OOo...OOO.oo.O",
".OOO..O.o..O.O.O.OO@OOO.oO.O@OOOOo.Oo.Ooo.OO...OoOO@OOOOO.OO.OO.",
"oOo.OO@O.O@.@@@OO@@O@$@oO..o.O.O@OOo.o.O.O@O.Oo.O.@@.@$O.O..O.o.",
"..O.OO@O.OO@$$$@OOOO@@OO.OO.O@OOO@O.Oo.@.@$OO@@O@$$O@@@@O.o..oo.",
".o....@@@$$$@$$@$@O@.OOOO@@O@O@OOO.OO.....@@$@$$$@$$O.O@...oo.oO",
"O.oo.OOO@@@$$@@OOO..O@.O..O@OO$@O.OO@OoO.O.O@$$@$@O@@O.OOO..o...",
".oo.OOo@$OO@$@$@.Oo.oO@@Oo.O@.O.O@O@.@.OO@$OOO@OOO.OO.OO.o.o.oo.",
"......OO.O..@@OOOO..O.OOOO..OO.O@$@O@OOOOO@O@OOOO...O..OOO..O.oo",
"O.Ooo...OOOO$@OOOOo.O@OO..O.ooO.O@OOO...O.O@O.o.O.O.O@.O.O.O.O.O",
"@O.oOOOOOO@O@OOO@..OoO@..O..O@O@O@@O.OO.O..@.o...OO@@OOO@OOOO.o.",
"@@O.O@OO@O@@OO@O@OO@.OO.O.oO@O@$@OOOO@$O..OOO.OO.OOO.O.OOO@.OOO.",
"O@..@O@O@@OOO@O@@@@Oo.O@O@.@$@$@O.@@$@@o.OOo.O.o.OOOO@OoO@@@.O@O",
"@O.@O@@@@O.@@@@O@@.OO.OO.O@@@OOO.o.@@.OO.O@O@..O@OOO@O@O@$$O@@OO",
"O@@@@OO@@.o.@@O@OOO@OO.O.O.O@O...O.O@O.@O.OOOO.@O@O@OO$$$$@$O.OO",
".O@O.oO...O.O@O..O.O.@.OO@OOOO.OO.OOO.O@@O..OOOOO$@O@.O@$@$@@O.@",
"@OO.OO..OO.OOOO.O...@O..O.oO...O.O@O...O@O.O.o..O@O@O..O@O@OO.OO",
".O.OO@O...o.O.o.O@OOo...OOO.oo.O..@..O.o..O.OO@@@Oo..OOO@@OOO@@.",
"Oo.Oo.Ooo.OO...OoOO@OOOOO.OO.OO..OOO..O.o..O.O.O.OO@OOO.oO.O@OOO",
"@OOo.o.O.O@O.Oo.O.@@.@$O.O..O.o.oOo.OO@O.O@.@@@OO@@O@$@oO..o.O.O",
"O@O.Oo.@.@$OO@@O@$$O@@@@O.o..oo...O...@@@OO@$$$@OOOO@@OO.OO.O@OO",
"OO.OO.....@@$@$$$@$$O.O@...oo.oO.o.o.OOO@$$$@$$@$@O@.OOOO@@O@O@O",
"O.OO@OoO.O.O@$$@$@O@@O.OOO..o...O.o.OOo@$@@$$@@OOO..O@.O..O@OO$@",
"O@O@.@.OO@$OOO@OOO.OO.OO.o.o.oo..oo...OO.OO@$@$@.Oo.oO@@Oo.O@.O.",
"@$@O@OOOOO@O@OOOO...O..OOO..O.oo...oo...OO..@@OOOO..O.OOOO..OO.O",
"O@OOO...O.O@O.o.O O.O@.O.O.O.O.OO.OoOOOOOOOO$@OOOOo.O@OO..O.ooO.",
"O@@O.OO.O..@.o...XX@@OOO@OOOO.o.@O..O@OO@O@O@OOO@..OoO@..O..O@O@",
"@OOOO@$O..OOO.OO.OOO.O.OOO@.OOO.@@O.@O@O@O@@OO@O@OO@.OO.O.oO@O@$",
"O.@@$@@o.OOo.O.o.OOOO@OoO@@@.O@OO@.@O@@@@@OOO@O@@@@Oo.O@O@.@$@$@",
".o.@@.OO.O@O@..O@OOO@O@O@$$O@@OO@O.@@OO@@O.@@@@O@@.OO.OO.O@@@OOO",
".O.O@O.@O.OOOO.@O@O@OO$$$$@$O.OOO@@@O.@OO.o.@@O@OOO@OO.O.O.O@O..",
"O.OOO.O@@O..OOOOO$@O@.O@$@$@@O.@.O@O.oO...O.O@O..O.O.@.OO@OOOO.O",
".O@O...O@O.O.o..O@O@O..O@O@OO.OO@OO.OO..OO.OOOO.O...@O..O.oO...O",
"..@..O.o..O.OO@@@Oo..OOO@@OOO@@..O.OO@O...o.O.o.O@OOo...OOO.oo.O",
".OOO..O.o..O.O.O.OO@OOO.oO.O@OOOOo.Oo.Ooo.OO...OoOO@OOOOO.OO.OO.",
"oOo.OO@O.O@.@@@OO@@O@$@oO..o.O.O@OOo.o.O.O@O.Oo.O.@@.@$O.O..O.o.",
"..O...@@@OO@$$$@OOOO@@OO.OO.O@OOO@O.Oo.@.@$OO@@O@$$O@+@@O.o..oo.",
".o.o.OOO@$$$@$$@$@O@.OOOO@@O@O@OOO.OO.....@@$@$$$@$#X.O@...oo.oO",
"O.o.OOo@$@@$$@@OOO..O@.O..O@OO$@O.OO@OoO.O.O@$$@$@O@@O.OOO..o...",
".oo...OO.OO@$@$@.Oo.oO@@Oo.O@.O.O@O@.@.OO@$OOO@OOO.OO.OO.o.o.oo.",
"...oo...OO..@@OOOO..O.OOOO..OO.O@$@O@OOOOO@O@OOOO...O..OOO..O.oo",
"O.OoOOOOOOOO$@OOOOo.O@OO..O.ooO.O@OOO...O.O@O.o.O.O.O@.O.O.O.O.O"
};
