/* XPM */
static char *result[] = {
/* columns rows colors chars-per-pixel */
"64 64 12 1 ",
"  c #2059B6",
". c #3269C6",
"X c #158ADE",
"o c #2E9AD5",
"O c #1CBBFE",
"+ c #00CBFD",
"@ c #00D4FD",
"# c #6FEBCF",
"$ c #61E3FB",
"% c #FDDF84",
"& c #A8F2E8",
"* c None",
/* pixels */
"****************************************************************",
"****************************************************************",
"****************************************************************",
"****************************************************************",
"****************************************************************",
"****************************************************************",
"****************************************************************",
"****************************************************************",
"****************************************************************",
"****************************************************************",
"****************************************************************",
"****************************$$$$$$$$****************************",
"*************************$$$++++++++$$$*************************",
"***********************$$+++#XX##XXX+++$$***********************",
"*********************$$++XX#%X#%%#X##XX++$$*********************",
"********************$++XXX#%%#%XX%%%%%#XX++$********************",
"*******************$+XX#XXX%X%X#%#X#%X%#XXX+$*******************",
"******************$+XX#%%#X#XXXXXXXXXXXXX#XX+$******************",
"*****************$+X#X%%#XXXXXXXXXXXXXXX#%XXX+$*****************",
"****************$+XX%#X%XXXXXXXXXXXXXXXXXX%#%X+$****************",
"***************$+X#X%XX#XXXXXXXXXXXXXXXXXXX%X%X+$***************",
"***************$+#%#%#XXXXXXXX.      .XX.  %%%X+$***************",
"**************$+XX%%XXXXXXXX.  o@@@@@  . @$#X%#X+$**************",
"**************$+X%#X#XXXXXX. @@$&&&&&@@ @$&XX#%#+$**************",
"*************$+X%#XXXXXXXX. @$&&XXXXX&&@$&XXXX%XX+$*************",
"*************$+XX%#XXXXXX. @$&XX.    XX&&XXXXX#XX+$*************",
"*************$+XXXXXXXXXX @$&XX o@@@@  XXXXXXXXXX+$*************",
"************$+X%#XXXXXXXX @&XX o@$&&&$@ .XXXXXXX#X+$************",
"************$+XX%XXXXXXX o$&X.o@$&XXX&$@ .XXXXX#%X+$************",
"************$+X#%%XXXXXX @&XX @$&XXo X&$@ XXXXX%%X+$************",
"************$XXX%#XXXXX. @&XXo@&XXX$@ X&@ .XXXXX%#X$************",
"************$X#%#XXXXXX o@$XX@@&XXX&@oXX$@ XXXXX%%X$************",
"************$X%%%#XXXX. @@oXX$@$XXX$@$XX$@ XXXX#%#X$************",
"************$XX%#XXXXX o@@ XX$@@oXXo@$XXo@$XXXXX%XX$************",
"************OXX%X#XXX. @&@ XXX&@@  @@&XXo@&XXXX#%#XO************",
"************O$X%#XX.  @@&@@ XXX&$@@@&XX.o$&XXXX%XX$O************",
"************O$X%XXX o@@&X&@ .XXX&&&&XXX @&XXXX#%%X$O************",
"*************OXXX%#o@@o XX&@ .XXXXXXXX @$&XXXXX#XXO*************",
"*************OXXXX%$&$@@   @@  .XXX.  @$&XXXXXXXXXO*************",
"*************O$X%#%#X&&$@@@@@@o     @@$&XXXXX#XXX$O*************",
"**************OXX%%X%XX&&&&&$@@@@@@@$&&XXXXXX%%XXO**************",
"**************O$XX%#%XXXXXXX&&&&&&&&&XXXXXX#X%#X$O**************",
"***************OX##%%XXXXXXXXXXXXXXXXXXXXXX%%#XXO***************",
"***************O$XX%#%XXXXXXXXXXXXXXXXXXXX#%#XX$O***************",
"****************O$XXXXX#%XXXXXXXXXXXXXXXX#%#XX$O****************",
"*****************O$XX#%%#X%XXXXXXXXXXX#XX%X%X$O*****************",
"******************O$XX%#%%#XX%X#X#%#X%%#X#XX$O******************",
"*******************O$XXX%X%#X%#%%XX%%#%XXXX$O*******************",
"********************O$$XXX#XX#%X#%%#X%#XX$$O********************",
"*********************OO$$XXXXX%XX#%XXXX$$OO*********************",
"***********************OO$$$XXXXXXXX$$$OO***********************",
"*************************OOO$$$$$$$$OOO*************************",
"****************************OOOOOOOO****************************",
"****************************************************************",
"****************************************************************",
"****************************************************************",
"****************************************************************",
"****************************************************************",
"****************************************************************",
"****************************************************************",
"****************************************************************",
"****************************************************************",
"****************************************************************",
"****************************************************************"
};
