/* XPM */
static char * grass_xpm[] = {
"65 65 646 2",
"  	c #4EA92D",
". 	c #60B22F",
"+ 	c #7AC233",
"@ 	c #7FC534",
"# 	c #69B731",
"$ 	c #4EA62C",
"% 	c #3A9829",
"& 	c #359228",
"* 	c #3F9C2A",
"= 	c #55AB2E",
"- 	c #72BD32",
"; 	c #81C735",
"> 	c #73BE32",
", 	c #58AE2E",
"' 	c #4EA82D",
") 	c #449F2B",
"! 	c #359328",
"~ 	c #3A9629",
"{ 	c #49A32C",
"] 	c #4FA92D",
"^ 	c #49A42C",
"/ 	c #3B9729",
"( 	c #2E8E27",
"_ 	c #2B8C27",
": 	c #339128",
"< 	c #439E2B",
"[ 	c #4DA72D",
"} 	c #50AA2D",
"| 	c #419C2A",
"1 	c #349228",
"2 	c #3E9A2A",
"3 	c #4AA42C",
"4 	c #429E2B",
"5 	c #399529",
"6 	c #5BA62D",
"7 	c #7BC133",
"8 	c #7BC334",
"9 	c #62B330",
"0 	c #7FC634",
"a 	c #6AB831",
"b 	c #52AA2D",
"c 	c #4BA72D",
"d 	c #57AD2E",
"e 	c #2E8D27",
"f 	c #5BAF2E",
"g 	c #6FB931",
"h 	c #73BB32",
"i 	c #62B22F",
"j 	c #4CA52C",
"k 	c #3A9729",
"l 	c #389428",
"m 	c #4DA22C",
"n 	c #61B22F",
"o 	c #70BA31",
"p 	c #76BD32",
"q 	c #69B630",
"r 	c #57AC2E",
"s 	c #5DB02F",
"t 	c #54A82D",
"u 	c #429B2A",
"v 	c #479F2B",
"w 	c #59AC2E",
"x 	c #5CB02F",
"y 	c #54AC2E",
"z 	c #4BA52C",
"A 	c #409B2A",
"B 	c #2F8E27",
"C 	c #429D2A",
"D 	c #50A92D",
"E 	c #5AAF2F",
"F 	c #5DAF2F",
"G 	c #50A52C",
"H 	c #3F992A",
"I 	c #52A12B",
"J 	c #6FB631",
"K 	c #5AAE2E",
"L 	c #75BD32",
"M 	c #6CB831",
"N 	c #5FB22F",
"O 	c #55AC2E",
"P 	c #56AC2E",
"Q 	c #74BC32",
"R 	c #3F9B2A",
"S 	c #51A82D",
"T 	c #54A52C",
"U 	c #55A52C",
"V 	c #52A72D",
"W 	c #3F9629",
"X 	c #62AD2E",
"Y 	c #74BD32",
"Z 	c #6BB530",
"` 	c #5AA82D",
" .	c #51A52C",
"..	c #53AA2D",
"+.	c #65B530",
"@.	c #74BE32",
"#.	c #6AB731",
"$.	c #54A92D",
"%.	c #5BAD2E",
"&.	c #71BB32",
"*.	c #70BC32",
"=.	c #429E2A",
"-.	c #379428",
";.	c #419D2A",
">.	c #54AA2D",
",.	c #66B430",
"'.	c #4FA62C",
").	c #369328",
"!.	c #3F9529",
"~.	c #50A02B",
"{.	c #55A62D",
"].	c #50A72D",
"^.	c #5FAA2E",
"/.	c #70B831",
"(.	c #64B530",
"_.	c #52A62C",
":.	c #56A52C",
"<.	c #53A62D",
"[.	c #50A82D",
"}.	c #369428",
"|.	c #53A82D",
"1.	c #58AC2E",
"2.	c #489F2B",
"3.	c #469C2A",
"4.	c #65AF2F",
"5.	c #73BA32",
"6.	c #60AA2E",
"7.	c #3D9A2A",
"8.	c #4FA82D",
"9.	c #6EB931",
"0.	c #60B12F",
"a.	c #73BC32",
"b.	c #5EB02F",
"c.	c #52AB2D",
"d.	c #59AE2E",
"e.	c #3C9829",
"f.	c #439F2B",
"g.	c #54AB2D",
"h.	c #6AB630",
"i.	c #46A12B",
"j.	c #329028",
"k.	c #54AB2E",
"l.	c #56AA2D",
"m.	c #439A2A",
"n.	c #479A2A",
"o.	c #68B02F",
"p.	c #66B530",
"q.	c #379328",
"r.	c #4EA72D",
"s.	c #57AE2E",
"t.	c #40992A",
"u.	c #479E2B",
"v.	c #57AB2E",
"w.	c #53AB2D",
"x.	c #4BA62C",
"y.	c #51A62D",
"z.	c #5FAF2F",
"A.	c #4CA32C",
"B.	c #52A42C",
"C.	c #57A52C",
"D.	c #349128",
"E.	c #3C992A",
"F.	c #4CA62C",
"G.	c #55A92D",
"H.	c #58A82D",
"I.	c #52A92D",
"J.	c #59A82D",
"K.	c #53A92D",
"L.	c #5AAF2E",
"M.	c #6DBA31",
"N.	c #71BC32",
"O.	c #5EAE2E",
"P.	c #4AA32C",
"Q.	c #56A82D",
"R.	c #51A92D",
"S.	c #45A02B",
"T.	c #3B9829",
"U.	c #309028",
"V.	c #48A22C",
"W.	c #6FBB32",
"X.	c #6CB731",
"Y.	c #4FA02B",
"Z.	c #399228",
"`.	c #4B9C2A",
" +	c #58A62D",
".+	c #3D992A",
"++	c #319128",
"@+	c #66B630",
"#+	c #68B530",
"$+	c #5CAD2E",
"%+	c #70BB32",
"&+	c #6EBB31",
"*+	c #5BAF2F",
"=+	c #58AD2E",
"-+	c #76BE32",
";+	c #65B430",
">+	c #4FA72D",
",+	c #3F9A2A",
"'+	c #369228",
")+	c #459F2B",
"!+	c #3A9529",
"~+	c #47A12B",
"{+	c #3B9629",
"]+	c #3C9729",
"^+	c #64B330",
"/+	c #51AA2D",
"(+	c #449E2B",
"_+	c #3D9829",
":+	c #3F9929",
"<+	c #3C9929",
"[+	c #5EB12F",
"}+	c #72B931",
"|+	c #56A42C",
"1+	c #3C9529",
"2+	c #419729",
"3+	c #4A9E2B",
"4+	c #4EA42C",
"5+	c #68B630",
"6+	c #77BE33",
"7+	c #6DB931",
"8+	c #72BB32",
"9+	c #77C033",
"0+	c #59A92D",
"a+	c #5DAA2E",
"b+	c #57AA2D",
"c+	c #4DA62C",
"d+	c #2F8F27",
"e+	c #379429",
"f+	c #329128",
"g+	c #399729",
"h+	c #47A32C",
"i+	c #349328",
"j+	c #5BAA2E",
"k+	c #47A22C",
"l+	c #429F2B",
"m+	c #51A62C",
"n+	c #45A12B",
"o+	c #5CAA2E",
"p+	c #4EA22C",
"q+	c #4FA32C",
"r+	c #62AE2F",
"s+	c #69B330",
"t+	c #48A32C",
"u+	c #46A02B",
"v+	c #58AA2D",
"w+	c #5AAA2E",
"x+	c #7EC434",
"y+	c #77BF33",
"z+	c #67B530",
"A+	c #55AA2D",
"B+	c #469E2A",
"C+	c #409929",
"D+	c #48A12B",
"E+	c #449D2A",
"F+	c #4FA52C",
"G+	c #3E9829",
"H+	c #409A2A",
"I+	c #51A72D",
"J+	c #53AB2E",
"K+	c #4BA42C",
"L+	c #3C9629",
"M+	c #59AD2E",
"N+	c #4DA82D",
"O+	c #459E2B",
"P+	c #419B2A",
"Q+	c #49A22C",
"R+	c #64AE2F",
"S+	c #69B230",
"T+	c #57A92D",
"U+	c #459F2A",
"V+	c #48A32B",
"W+	c #5AAB2E",
"X+	c #67B430",
"Y+	c #55A82D",
"Z+	c #379529",
"`+	c #6FBA31",
" @	c #60AF2F",
".@	c #44A02B",
"+@	c #58AB2E",
"@@	c #61AD2E",
"#@	c #6BB430",
"$@	c #6BB931",
"%@	c #47A22B",
"&@	c #359428",
"*@	c #5EAD2E",
"=@	c #4CA72C",
"-@	c #319028",
";@	c #4AA52C",
">@	c #51A02B",
",@	c #6FB731",
"'@	c #77BF32",
")@	c #64B32F",
"!@	c #50A92C",
"~@	c #4DA82C",
"{@	c #72BC32",
"]@	c #5CAF2F",
"^@	c #5FB02F",
"/@	c #76BE33",
"(@	c #78BF33",
"_@	c #449A2A",
":@	c #409C2A",
"<@	c #419829",
"[@	c #5AA62D",
"}@	c #74BB32",
"|@	c #409829",
"1@	c #4CA22C",
"2@	c #48A02B",
"3@	c #439C2A",
"4@	c #52A82D",
"5@	c #278B26",
"6@	c #3E9529",
"7@	c #63AF2F",
"8@	c #5AAD2E",
"9@	c #49A12B",
"0@	c #6CB931",
"a@	c #64B430",
"b@	c #5AAC2E",
"c@	c #61AE2F",
"d@	c #56AB2E",
"e@	c #62AF2F",
"f@	c #6FBB31",
"g@	c #6EB731",
"h@	c #66B02F",
"i@	c #57A62D",
"j@	c #46992A",
"k@	c #5EA92E",
"l@	c #379629",
"m@	c #56AD2E",
"n@	c #6BB831",
"o@	c #67B730",
"p@	c #318F27",
"q@	c #339028",
"r@	c #399328",
"s@	c #49A22B",
"t@	c #429C2A",
"u@	c #63AE2F",
"v@	c #41992A",
"w@	c #439B2A",
"x@	c #429A2A",
"y@	c #449B2A",
"z@	c #479B2A",
"A@	c #349028",
"B@	c #3B9328",
"C@	c #459A2A",
"D@	c #68B12F",
"E@	c #78C033",
"F@	c #79C133",
"G@	c #76BF33",
"H@	c #80C534",
"I@	c #69B530",
"J@	c #52A32C",
"K@	c #3D9429",
"L@	c #52A02B",
"M@	c #6FB831",
"N@	c #6EBA31",
"O@	c #329228",
"P@	c #389629",
"Q@	c #43992A",
"R@	c #5DB12F",
"S@	c #61B02F",
"T@	c #4FAA2D",
"U@	c #389529",
"V@	c #2E8F27",
"W@	c #4AA02B",
"X@	c #5CA92D",
"Y@	c #5DAE2E",
"Z@	c #55AB2D",
"`@	c #67B22F",
" #	c #66B12F",
".#	c #61AF2F",
"+#	c #65B02F",
"@#	c #6BB330",
"##	c #73BD32",
"$#	c #78BE33",
"%#	c #3B9429",
"&#	c #4E9F2B",
"*#	c #4DA72C",
"=#	c #409729",
"-#	c #369028",
";#	c #4DA52C",
">#	c #459D2A",
",#	c #459B2A",
"'#	c #4AA12B",
")#	c #4AA22C",
"!#	c #499F2B",
"~#	c #479D2A",
"{#	c #429829",
"]#	c #58A72D",
"^#	c #419A2A",
"/#	c #309128",
"(#	c #53A12C",
"_#	c #67B02F",
":#	c #60AD2E",
"<#	c #4BA12B",
"[#	c #4CA12B",
"}#	c #68B330",
"|#	c #5CAE2E",
"1#	c #2C8D27",
"2#	c #288A26",
"3#	c #308F27",
"4#	c #5FB12F",
"5#	c #63B430",
"6#	c #6AB430",
"7#	c #3D9929",
"8#	c #65B330",
"9#	c #77BE32",
"0#	c #63AD2E",
"a#	c #4A9D2B",
"b#	c #3A9328",
"c#	c #429729",
"d#	c #399429",
"e#	c #48A22B",
"f#	c #479C2A",
"g#	c #4BA32C",
"h#	c #2D8D27",
"i#	c #75BC32",
"j#	c #5EA92D",
"k#	c #499D2B",
"l#	c #439D2A",
"m#	c #4CA72D",
"n#	c #509F2B",
"o#	c #339228",
"p#	c #6EB631",
"q#	c #70B931",
"r#	c #69B430",
"s#	c #67AF2F",
"t#	c #5EAF2F",
"u#	c #6CB530",
"v#	c #61B32F",
"w#	c #4BA02B",
"x#	c #75BE32",
"y#	c #71B931",
"z#	c #4BA22C",
"A#	c #4B9F2B",
"B#	c #44982A",
"C#	c #389128",
"D#	c #6BB731",
"E#	c #4DA42C",
"F#	c #75BB32",
"G#	c #6DB731",
"H#	c #399629",
"I#	c #5BAE2E",
"J#	c #6CB630",
"K#	c #4C9C2A",
"L#	c #6AB530",
"M#	c #3C9429",
"N#	c #5CA72D",
"O#	c #70B731",
"P#	c #4E9E2B",
"Q#	c #4EA12B",
"R#	c #409D2A",
"S#	c #499C2A",
"T#	c #4FA22C",
"U#	c #359128",
"V#	c #389328",
"W#	c #6DB530",
"X#	c #58AA2E",
"Y#	c #449C2A",
"Z#	c #72BA31",
"`#	c #71BA31",
" $	c #4FA42C",
".$	c #76C033",
"+$	c #3C9328",
"@$	c #6DB631",
"#$	c #4B9D2B",
"$$	c #54A42C",
"%$	c #52A22C",
"&$	c #63B22F",
"*$	c #419629",
"=$	c #4F9F2B",
"-$	c #50A42C",
";$	c #75BF33",
">$	c #6CB430",
",$	c #50A12C",
"'$	c #55A32C",
")$	c #399428",
"!$	c #419E2A",
"~$	c #308F28",
"{$	c #6DB831",
"]$	c #48A42C",
"^$	c #68B430",
"/$	c #53A52C",
"($	c #53A72D",
"_$	c #54A62C",
":$	c #66AF2F",
"<$	c #4EA32C",
"[$	c #3E9929",
"}$	c #79C233",
"|$	c #67B630",
"1$	c #5EAA2E",
"2$	c #389228",
"3$	c #5BAC2E",
"4$	c #7DC234",
"5$	c #439829",
"6$	c #56A32C",
"7$	c #409629",
"8$	c #52A62D",
"9$	c #50A12B",
"0$	c #59A62D",
"a$	c #4D9D2B",
"b$	c #5BA92D",
"c$	c #54A22C",
"d$	c #3E9429",
"e$	c #71BD32",
"f$	c #63B330",
"g$	c #64AF2F",
"h$	c #5AA92D",
"i$	c #359028",
"j$	c #389429",
"k$	c #3D9729",
"l$	c #6CB330",
"m$	c #288B27",
"n$	c #4CA82D",
"o$	c #3A9429",
"p$	c #5DAB2E",
"q$	c #5FAC2E",
"r$	c #5CAB2E",
"s$	c #60AC2E",
"t$	c #59AB2E",
"u$	c #2D8E27",
"v$	c #2F9028",
"w$	c #5DAC2E",
"x$	c #5FAB2E",
"y$	c #54A12C",
"z$	c #3D9629",
"A$	c #469F2B",
"B$	c #4EA52C",
"C$	c #47A02B",
"D$	c #60AE2E",
"E$	c #61AE2E",
"F$	c #56AB2D",
"G$	c #65B630",
"H$	c #6CBA31",
"I$	c #65AE2F",
"J$	c #469D2B",
"K$	c #51A12B",
"L$	c #5BB02F",
"M$	c #53A42C",
"N$	c #46A22B",
"O$	c #5FAE2E",
"P$	c #63B02F",
"Q$	c #62B32F",
"R$	c #60AB2E",
"S$	c #42992A",
"T$	c #469D2A",
"U$	c #459C2A",
"V$	c #6EB530",
"W$	c #68B230",
"X$	c #67B12F",
"Y$	c #63B12F",
"Z$	c #59AA2D",
"`$	c #5DA82D",
" %	c #369529",
".%	c #62B02F",
"+%	c #4CA42C",
"@%	c #49A02B",
"#%	c #59AA2E",
"$%	c #65B22F",
"%%	c #61B12F",
"&%	c #60B02F",
"*%	c #6DB630",
"=%	c #61B330",
"-%	c #71B831",
";%	c #5DA92D",
">%	c #369128",
",%	c #4C9F2B",
"'%	c #78C133",
")%	c #4DA02B",
"!%	c #4D9F2B",
"~%	c #499E2B",
"{%	c #489A2A",
"]%	c #64B22F",
"^%	c #66B330",
"/%	c #4A9C2A",
"(%	c #54A72D",
"_%	c #439E2A",
":%	c #449829",
"<%	c #63AC2E",
"[%	c #298B27",
"}%	c #4EA62D",
"|%	c #4EA02B",
"1%	c #3E9729",
"2%	c #58A52C",
"3%	c #489B2A",
"4%	c #4AA22B",
"5%	c #51A32C",
"6%	c #51A22C",
"7%	c #45982A",
"8%	c #4FA12B",
"9%	c #50A62C",
"0%	c #45992A",
"a%	c #57A42C",
"b%	c #72BA32",
"c%	c #379228",
"d%	c #5CA82D",
"e%	c #52A12C",
"f%	c #65B12F",
"g%	c #479D2B",
"h%	c #439729",
"i%	c #62AC2E",
"j%	c #4A9B2A",
"k%	c #409529",
"l%	c #56A72D",
"m%	c #69B831",
"n%	c #5BA72D",
"o%	c #61AC2E",
"p%	c #68B730",
"q%	c #58A92D",
"r%	c #499B2A",
"s%	c #64AD2E",
"t%	c #43982A",
"u%	c #62B430",
"v%	c #4C9D2B",
"w%	c #3B9929",
"x%	c #56A92D",
"y%	c #318E27",
"z%	c #7FC434",
"A%	c #6EBB32",
"B%	c #62AE2E",
"C%	c #55A22C",
"D%	c #79C033",
"E%	c #3F9729",
"F%	c #3E9629",
"G%	c #3F9829",
"H%	c #278A26",
"I%	c #6AB330",
"J%	c #3D9B2A",
"K%	c #369429",
"L%	c #69B730",
"M%	c #59A52C",
"N%	c #4AA62C",
"O%	c #389729",
"P%	c #489C2A",
"Q%	c #4BA22B",
"R%	c #3A9929",
"S%	c #7EC534",
"T%	c #3E9B2A",
"U%	c #4B9E2B",
"V%	c #75BF32",
"W%	c #3E992A",
"X%	c #6EB630",
"Y%	c #58A42C",
"Z%	c #4FA12C",
"`%	c #379128",
" &	c #469A2A",
".&	c #50A32C",
"  . + @ # $ % & * = - ; > ,   ' ) ! ~ { ] ] ] ] ^ / ( _ : < [ } [ | 1 2 3 4 5 6 7 8 9   ' . + 0 a b c , > ; - d   ' ) 1 _ e ~ { ] ",
"  f g h i j k l m n o p q r d s t u v w x y ] ] z A ! B : C D E F G H C z < l I J o F   ' K g L M N O P q Q q =   [ < 1 B ! R 3 ] ",
"] S T U V 3 % W X Y Z `  ...+.@.#.$.%.&.*.s ]   [ ^ =.-.1 ;.>.a @.,.'.^ [ ) ).!.~.{.S ]   ].T ^./.@.(..._.:.<.[.] [ < 1 }.C { [ ] ",
"] 3 A u |.1.2.3.4.5.6.W 7.8.,.L 9.K 0.a.&.b.]   c.d.1.2.e.f.g.#.p h.=   ' i.k j.j./ { k.E l.m.n.o.Q p.8.2 q.A r.s.f G t.u.v.K w.] ",
"' x.i.y.h.&.z.A.B.C.n.D.E.F.G.` H.I.$.J.J.K.]   L.M.N.O.P.^ [.Q.` Q.R.] ] x.S.T.U.}.V.s W.X.Y.Z.`. +G.F..+++7.[.@+- #+V $+%+&+*+] ",
"*+=+b K o -+;+>+,+'+j.-.< z )+!+,+3 ~+{+]+{   ] f &.-+^+/+' [ (+_+(+[ ] D y =+G :+<+^ [+a.}+|+1+2+3+4+F.C ~ ;.R.5+6+7+K i L 8+s ] ",
"9+W.s ..0+a+b+c+E.d+e+< 3 F.C f+g+h+) i+}.i.' ] K.j+a+b+D ] ' k+l+h+' ] /+9 *.q m+n+x.>.o+` p+q+r+s+z.D t+u+^ 8.v+a+w+..l.a+j+K.] ",
"x+y+z+A+B+C+D+z | 5 ;.F.] ' ) ~ E+K.F+G+H+I+d J+K+H L+u+' ] D k.P b [ x./+;+y+Y i O } { G+L+u+M+o 6+z+b N+' ] [ O+{+P+z Q+t.u K+] ",
"R+S+o M T+U+V+[ { S.t+N+] ' ^ ~+W+M X+_.Y+h.M.s ^ Z+f+=.N+  w.+.`+ @2..@r.+@@@#@&.$@L.%@&@1 S...*@@@+@]   ] ] =@R -@k t+^ f..@;@N+",
"Z.>@,@'@)@!@~@' =@F.R.O k.D N+D ^+y+{@]@^@Y /@n z e.5 )+] J+]@%+(@4._@:@z u+<@[@}@@.[+t+k ~ ~+z u |@1@= J+} J+g.2@~ 3@4@k.D D O d ",
"5@6@[@7@8@}   =@n+9@O.0@a@w.N+} b@7@c@d@1.e@e@v.x.S.) ^ k.+.f@g@h@i@v %@F.=.1 j@k@e@d@F.S.) 3 h+l@1+o+M 9 m@9 0@ @A.v+n@o@, x $@- ",
"p@q@r@<@s@D y R.t@<@u@(@%+*+c.] D+v@w@K+P.x@y@F+w.D [ [ =+f@(@R+z@3@z ' ' S.e+A@B@w@K+' N+8.w.>+,+C@D@E@# d.a F@M =+;+E@N.x n G@H@",
"R k U.++4 w.+.I@J@K@L@D@M@N@(.k.4 O@P@V.i.&@Q@c@# R@}   g.S@4.>@'+7.F.T@N+t+;.U@V@e+%@    d @+5+Y+W@X@h@Y@Z@O.`@ @= $+ #.#Z@+@+#@#",
"F.i.~ 5 D+]@##$#^.%#q@n.4.(@W.r 4 -.e.{ ~+~ &#,@y+a@/+  *#2.=#-#q@R F.c.w./+c+< e+/ { ] c.N @.9+^+;#>#,#'#c+2@m.v c+)#,#!#].'.~#{#",
"  ;@< '#z.M /.@#]#^#/#A@(#_#:#<#A ,+) x.^ ;.[#u@}#|#D ] z <+1#2#3#,+r.4## 5#k.t+;.< z , +.7+M@6#Y@' f.* i.;@2 -@7#;@k+|  .8#S@<#T.",
"c.D *#w &.9#0#a#v V.2 D.b#c#W d#2 e#*#' ] >+A.~#f#g#] } x.,+-@h#f+R S # F@{@]@8.F.x.' 4#@.i#j#k#)#' F.z 8.8.l#).,+x.m#r.i G@{@%.z ",
"a (., =+X+S+n#& :@F.%@7#o#h#-@/ ) x.  ] , (.z.,#! ) ' ] F.) .+k <+.@[.S@p#q#n@9 m@  ] K r#s#`.& 4 =@^ g#|#a@T+t@f.[ ] /+t#u#r#M+] ",
"@ G@v#>+w#j@Z.1 C [ ' { 2 o#k i.c+D ] } . x#y#>@-.) 8./+D [ z z F.r.' z#&#0#-+- x ]   $ A#B#C#).S.z :@,#h@y+D#K.F.8.] ] E#3+w#$ ] ",
"F#G#F 3 H#( o#<+i.[ T@' i.2 2 u+A+i . O I#J#D@K#q.f.b N 5#*+y s a@[+D * '+>@@#L#M+]   %@Z+( ! 2 t+^ T.M#N#O#o 5+[+w.  N+< 1 U@t+] ",
"P#Q#'.3 / o#2 { [ ] } ] [ { :@G+` Q - s '.Q#n.Z.-.S.d.*.9+@+d.n@9+0@g.R#1 B@S#T#>+] ] e#U@1 | 3 ' j 2 U#6@I @#(@M.d ] 8.S.).H#t+] ",
"_ }.i.z C 2 i./+x v#*+/+] ' ;.V#L@W#8+q X#|@B 1 Y#+@z+&.Z#i d ,.`#X+..S.T.Z+H#;.z ] ] 3 R 2 V.J+[+^@ ${+V@Z.N#/.I@r , . X#E+.+(+~+",
"_ }.i.[ ;@^ x.m@0@.$# y   ' < & +$P#R+Q @$#$o#R l.`+L h@$$F+[. .%$ .8.F.{ %@%@3 N+] ] [ 3 ^ =@d.W.x#&$Q+l@j.*$=$-$I.+.;$9.G.< T.U@",
"}..+{ ] ]     P h.h z+k.  N+i./ -@j.>@W#>$,$2 k+K 9.O#'$)$;.z ) _+< r., [+M+$ ;@N+] ] k.s s O d.X.h ^+[.!$Z+~$-@7.r.^+h {$=+k+.+U@",
"i.t+=@] ] ] ] [.<.U <.D ] ' F.%@.+j.K@=$J@1@{ [ S {.>@!.: ;.F.;@%@]$/+@+@.^$w#| z   ] s N.> v#I./$U ($8.z S.H#-@.+j ($U _$[.=@t+i.",
"4#K S z [ ] } F.,+).| r., x d.R.i./ : p@~ V.] ] ^ e.j.j.H#S.' ] } m@4#9.p :$B#g+^ k.x 5+Y a.n c+A _+u+D d.I#<$_+C z i.[$!#1.L.w.] ",
"}$g {.| %@] } x.7#f+7.R.@+> $@d x.~+.+-@Z+e#] ] t+P@U./ S.z     y |$@.M@1$`.2$P@3 4#N.8+4.J.|.[ k+S.^ O a ##8#;#^ [ ^ %@3$%+W.x ] ",
"4$/.>@5 f.' } F.| ~ ;.R.5+-+7+=+  ' ~+T.7#{ w.d.A+>#:+ $M+O ] x.[.X+L :$5$3#& 2 z n Q ,@>@{+S./+=+d.k.d n@6+#.k.N+D k.f #.6+&.]@] ",
"^.6$7$! < N+] ' { i.]$' T+X@0+I.] ] x.i.i.F.*+N@N@W+8$z+N.(.R.) u 9$0$a$U#o#| t+[ A+b$c$d$1 ) =+0@e$5#g.T+o+v+R.  b f$- y#g$h$K.] ",
"i$A@: _+F+d y ] ' ] O r <#L+P+F.] ] b r O b b.a.x#i K 9.y+5+R.;.j$D.U#A@& ,+3 ]   e#k$A@: k i.K %+y+|$[.A !+C [   b z+9#l$#$_+{ ] ",
"m$d+T.G z+W.v#/+n$J++.N@X@o$k ;@  ] R@N@0@*+A+p$q$b+>.r$s$t$8.t+:@&@u$i+:@t+' T@N+.@i+v$% ) z K.w$s$t$c+<+U.2 F.] D t$x$y$b#Z+V.] ",
"j.H#S.8@&.(@p.J+b ]@f@(@4.Q@7.F.c.d |$y+Y 4#K+P+^#{ z u z$A$8.k.K.v 5 ,+;@' ] w.O B$G+G+E#k.c.j P+k$C$z | U@;.[ } ' C$L+U#D.7#^ ] ",
"* f.z >.D$u@t$P +.%+g@:$i@A$.@8.4#M.q#s+E$F$x.f.< ;@^ k ++* b G$M. @'#%@'   ] s 0@X+m+8$#+H$[+K+P@f+;.F.%@4 %@' } ' C ++++.+i.F.] ",
">.../+j w@|@u+P N@(@I$z@J$S /+b +.y+,@K$^#P.' ' N+  z 2 Z+!$k.7+F@M g.m#] /+P |$E@a.F b.##y+f$j <+U@) ' b ../+] ] ' ) U@e.t+' ] ] ",
"N.a L$3 Z+f+;.I..#R+n#b#M$q +.m@%.+#6 6@}.i.] ]   ] [ i.4 N$D O.h@O$..  /+[+0@g >$P$r 1.7@+#w [ S.< t+w.a@0@5#J+N+n$t+< u+[ ]   N+",
"H@y+Q$z T.e+) F.2.W i$1+R$6+%+=+s@S$b#D.k t+} J+c.] [ =@[ /+I.<#y@2@r.  b z+E@O#(#Y#K+j T$U$g#' N+*#m#m@N@F@0@P } c.D [ [ 8./+w.k.",
"V$W$8@F.4 :@t+;@.+V@/#H+]#X$Y$..4 f+d+k 4 ;@d p.p.t i.^ y 5#5+Z$l#f.=@  D O.S+`$!. %%@;@4 ;.t+N+] ] ] w..%s+ @O [+# 5#y N+] L.5+N@",
"5$3.+%8.8.8.] F.,+).P++%<#f#W@c+S.-.H#i.[ /+n x#Q i@]+l+r %+F@h.I.[ b /+] g#,#K@D.k t+' F.F.D b } ] ] r.@%,#2@b # F@N.]@] /+n G@@ ",
"m$1 S.O 5#|$x 8.) E+#%;+t$E+f.F.{ | < F.d.+.7+/._#`.).!$>.$%#@S@O [+|$v#b 4 f+d+H#< z F.V.'.%%p.L.]   x..+++7.>+&%*%g n@=%P I#6#-%",
"h#-.i.f - E@|$b ;@I.#.E@n@K.x.' [ x.z ' . x#Q ;%B#>%).) c+m ,%1@g.a '%f@r < ! H#u+F.' t+.+)%g@9+@+J+] F.,+! :@F.z#!%0#6+e$f +%~%{%",
"/ :@^ r ^$@$&%/+N+k.]%,@^%O       ] x.V.Q.6#_#/%B O@7.V.[.Q.]#(%>.&$g@X+= %@R _%F.]   i.Z+:%<%y#9.+.*+8.) ,+i.x.:@'+L@@#I@r S.i+[%",
"^ z [ }%p+|%B$] T@8.<$!%m >+] D } ] V.7#1%n.j@2$& C K+[ r D#Q #+..A.!%m r.[ z x.' } D { ~ U#c#2%/.9+|$b z ;@[ [ C 1 B@3%p+$ i.-.1#",
"] [ ^ 4%5%$$V 8.] F.R f+U@u+F$n [+w.t+2 ! B ( ! >#b@n , r #+y#;+R.R : 7#z ]     ] d . Y@W@-.u$2+0#/.&$b   ] ] [ i.e.: d+/ ^ ^ A ~ ",
"] 3 R 3+X$Z#f$b ] F.A -@u$k$p$Y %+L.[ ^ | 1 o#:@b+`+;$+.I.q+6%G c+:@o#7#z } D   } . @.{@$+(+! U#7%8%9%] ] ] ] ] *#V.2 : / ^ [ 3 t+",
"] t+H#0%4.}@7+Q$, 8.) ~ 3#>%a%/.8+z+s J+{ 2 7.t+8@{$b%i c+T.1 | z S.e.;.[ , N x y b.q#q#b.z A -.3#1 < N+] } d.4#M+K+| e.| ;@] ] ] ",
"] t+H#c%{%d%M@;$|$b ;@i.T.q@!.e%h@L *.L$[ t+^ [ [./$$$V z <+: :@F.F.t+^ R.a@@.W.f I+M$T I+' ;@< }.o#C N+  k.# x#f%g%7.S.3 N+] ] ] ",
"] ;@R ! d+h%4.}@z+w.  [ ) ~ U.U#6$/.g f k.*+x O z A u ($8@1@_+< ' , s , k.f$a.g K i.U@5 %@] ] ;@A e.S.D , Q$`+i#i%7$T.z m@s *+J+] ",
"] [ ^ ;.i+U#j%:.Y+D ] ' x.u+T.-@k%(#l%I.[+N.e$4#[ N$y.h.- %%K+t+b |$@.$@d V i@l%S i.! }.i.] T@[ ^ e#;@O m%x#*%n%n.>%T.c+9 - W.*+] ",
"3 z [ 3 A ! p@).< 8.d *+d 8.S.H#j.q@]+3 4#a.a.0.] N+M+9.p ,.k.y 4#N@y+{$P ) j$_+{ t+7#/ ) >+=+L.k.] N+P M i#o%6@d+).* r.f$Y &.]@  ",
"e.| 3 [ ^ ;.! -@* b p%- # O ;@.@k U.U@{ $.h$h$$.] ] I.0+b$G.P o@##@$s$T+[.4 o#P@h+x.%@C 2 p+I@N.v#} N+R.q%0$r%q@&@C ^ ' G.` J.4@' ",
"B U@~+' ] ;@R H#4 >.n@y+M d J+r 4+_+2 3 V.k$]+e#] } z H+!+< g.0@p s%t%A z u+/ Y#$.=+b V.7#!%W#y+a f J+*#t@c%j.).| z ] ' e#H T$$.f ",
"_ ).i.] } N+%@) ^ [.W+x$Z$g.u%*.z+G %@F.i.! i+.@' ] 3 k ++:@[.3$;%v%U#w%;@;@D+t$7+M.*+F.i.<#]#4.q#*.u%r.<+d+}.C ^ ' ] N+]$S.x%M .$",
"f+k %@] ] } k.P J+r.l#L+| [.|$(@%+M+' ' V./ [$F+P J+z 2 5 ) z (+r@y%~$2 z ' D &$-+##b.] N+{ G+#$#@y+5+[.R U@| x.  ] J+d k.R.0.x#z%",
":@) z ' N+O |$A%5#8.E.-@<+c+b@B%*@>.] ] z u+8$#+0@R@[ n+) 3 z R u$2#( 2 z T@} +@@@:#A+] ] { P@B@C%@@b@8.%@) { '   } . N@# d.v.@@4.",
"g.../+} w.[+{@D%# R.* e+| z C$E%w@j ] ] ' ' F ##E@|$P D '   F.A -@h#: A F.} ] e#|@^#3 ] ] { / p@i$F%2@' ' [ ' ] /+=+#.D%{@f Q+G%b#",
"- a *+=+@+`+@$X$$+[.i.;.%@F.C ++P@t+  ] ] } v.e@#@g 0@[+/+  x.2 j.).R ~+=@] ' ) o#}.%@] ] { ~ 1#H%U.C N+} ]   b . M.g I%.#>.S.o#5@",
"H@G@n x N.9#R$C@A$' /+I./+' < j$H+>+c.8.'   3 w@e%,@E@p.w./+R.E+-.2 3 R.w.J+] u+5 / { ] ] 3 e.-@B ).) ' ] ] ' J+# E@>$&#Y#z %@H#3#",
">$ #w r Y$R+a$D.J%[.=%a 5#w.N$C (%z+&$F+i.x.%@K%6@N#X$|#P 5#L%W+A$n+D N a +.O ^ < ) ;@  ] F.)+R 2 C { '   ' N+/+z.X$M%B@P@{ z < ,+",
"B#T$+%;#u.7$>%).(+r N@F@M.d [ I.,.y+p#!%e.t+t+/ D.+$_@s@d W.F@q I.N%w.p%'%N.K m#z c+R.b } ' [ F.F.F.' ] /+c./+8.'#Q@b#D.<+3 ' [ F.",
"O%* ^ { k ( 1 >#3$#.g @$.%P x # g g@6.c#Z+i.;@< ~ d+f+4 ..]%Z S@w.  b z.#@$%= ;@~+|.^++.,     ] D ] ' b . p%. R.:@U.U./ ) F.] ] ] ",
"c+r.8.3 e.! R K.7+(@D@&#v I.p%E@,@c$6@A@/ P.D [ u+H#}.) c+<#P%Q%' T@8.z#P%W@F.n+_+$$b%;$9 b ] ] ] ] ] , N@F@0@>.:@! / %@*#' ] ] ] ",
"m%(., F.=.A %@g.,.>$a%V#R%r.%%J#6.!.u$U@1@&%a@d.F.;.R t+;@7#f+R *#T@m#:@f+T.^ .@-.j%:$q#{$a@, D ' J+N # g M@]%b i.A ) *#]     ] ] ",
"S%G@n ] ;@z [ r.m S#M#: T%j B$U%*$A@K%S.F Y V%n ] F.F.' z W%1 | [ /+8.< ! 7#^ u+-.>%0%d%h ;$9 } N+, f@y+X$9$z#r.[ z F.' D } } ] ] ",
"i#g@F D   ] } x.2 ~$-@k S.x.< : 3#U@;.F.F G#G#F O [+Q$d.r.< 2 S.D L$n x%3@< z { R i+d+{%_#g@^@D N+P I@X%Y%r@2 F.} ] ] D , n 4#O ] ",
"=$Z%'.] ] ] } x.2 f+T.%@[ [ =.1 Z+)+z ' '.T#Q#'.*+N..$+./+;@3 z k.a 9+M K.;@' [ 3 | 1 `% &Q#'.] ] 8..&v%d$: R F.} ]   /+a@G@- s ] ",
"1#-.i.] ] ] ] F.2 & A [ } ' _%! e.3 } ] ~+U@}.i.[+}$0 n@w.N+] N+P *.; ;$K ' ] ] ] ~+j$1#_ }.u+] } z W%d+_ -@:@F.} ] N+b # @ + n ] "};
