/* XPM */
static char *_9663f00ee204e0a805c4485bb8018792qf549mpLQumyEC9[] = {
/* columns rows colors chars-per-pixel */
"50 50 147 2 ",
"   c #2D8E27",
".  c #308F27",
"X  c #308F28",
"o  c #2F9028",
"O  c #349328",
"+  c #399629",
"@  c #3D9A2A",
"#  c #429E2B",
"$  c #489F2B",
"%  c #46A12B",
"&  c #4BA52C",
"*  c #4EA92D",
"=  c #52A62D",
"-  c #57AA2E",
";  c #55AA2E",
":  c #53AC2E",
">  c #54AC2E",
",  c #55AC2E",
"<  c #54AD2E",
"1  c #55AD2E",
"2  c #56AC2E",
"3  c #56AD2E",
"4  c #57AD2E",
"5  c #56AE2E",
"6  c #57AE2E",
"7  c #52AB2D",
"8  c #58AA2E",
"9  c #58AB2E",
"0  c #59AC2E",
"q  c #58AD2E",
"w  c #5AAD2E",
"e  c #5BAD2F",
"r  c #58AE2E",
"t  c #59AE2E",
"y  c #58AF2E",
"u  c #59AF2F",
"i  c #5AAF2F",
"p  c #5CAE2F",
"a  c #5EAF2F",
"s  c #5AAE2F",
"d  c #59B02F",
"f  c #5AB02F",
"g  c #5BB02F",
"h  c #5BB12F",
"j  c #5CB12F",
"k  c #5DB12F",
"l  c #5EB02F",
"z  c #5FB02F",
"x  c #5EB12F",
"c  c #5FB12F",
"v  c #5CB22F",
"b  c #5DB22F",
"n  c #5EB22F",
"m  c #5FB22F",
"M  c #5EB32F",
"N  c #5FB32F",
"B  c #5DB12F",
"V  c #5FB330",
"C  c #5FB330",
"Z  c #60B02F",
"A  c #60B12F",
"S  c #60B22F",
"D  c #60B02F",
"F  c #60B230",
"G  c #60B330",
"H  c #62B330",
"J  c #63B330",
"K  c #64B330",
"L  c #60B430",
"P  c #61B430",
"I  c #61B530",
"U  c #62B430",
"Y  c #63B430",
"T  c #62B530",
"R  c #63B630",
"E  c #64B430",
"W  c #64B530",
"Q  c #66B430",
"!  c #67B531",
"~  c #64B630",
"^  c #65B630",
"/  c #65B730",
"(  c #65B731",
")  c #67B631",
"_  c #66B731",
"`  c #63B530",
"'  c #68B631",
"]  c #68B731",
"[  c #69B731",
"{  c #66B831",
"}  c #67B831",
"|  c #67B831",
" . c #68B831",
".. c #69B831",
"X. c #69B931",
"o. c #6BB831",
"O. c #6AB931",
"+. c #6BB931",
"@. c #6ABA31",
"#. c #6BBA31",
"$. c #6CB931",
"%. c #6CBA31",
"&. c #6DB932",
"*. c #6CBB32",
"=. c #6DBB32",
"-. c #6EBA32",
";. c #6FBA32",
":. c #6EBB32",
">. c #6DBC32",
",. c #6EBC32",
"<. c #6FBC32",
"1. c #6EBD32",
"2. c #6FBD32",
"3. c #6CBA31",
"4. c #70BC32",
"5. c #71BC32",
"6. c #70BD32",
"7. c #71BD32",
"8. c #73BD32",
"9. c #71BE32",
"0. c #72BE32",
"q. c #72BF32",
"w. c #72BE33",
"e. c #74BE33",
"r. c #74BF33",
"t. c #75BF33",
"y. c #72BE33",
"u. c #74C033",
"i. c #75C033",
"p. c #76C133",
"a. c #77C233",
"s. c #76C133",
"d. c #78C233",
"f. c #79C234",
"g. c #79C334",
"h. c #7AC334",
"j. c #7BC334",
"k. c #7AC434",
"l. c #7BC434",
"z. c #7DC634",
"x. c #7AC334",
"c. c #81C735",
"v. c #80C735",
"b. c #81C835",
"n. c #82C835",
"m. c #83C935",
"M. c #82C935",
/* pixels */
"7 #     + & 7 & O = c./ * * @ O % % O # * * * 1 l.&.+ @ 7 7 #     + & 7 * * # O / z.i +.b.N L b.+.* ",
"* % +   O & L S + @ S +./ : @ O % # O = / 1 * 7 N = O @ * * % +   O & * 7 L i # = N 7 i S 1 1 N 1 * ",
"* * & + + 7 2.8.#   O K i.7 + O % % O S i.i * & +     # 7 : 7 & + + & 7 v i.2.* + + & # O % % + % 1 ",
"* * * % 7 8.J & % +   @ $ + @ % & & % % & * 7 & +     @ 1 8.+.* % % * } 8.- & * & % & @   % & % L j.",
"* 1 N 1 i +.&   % & +     O # * * 1 N @ O & 7 & @ + + # 1 +.&.L 1 * * L / + + & & & N & + % * 7 L 8.",
"* / l.L % +   O % 7 & + O % * 7 * L j.& O & 7 * & & & * & + - j.L * * # O   + & + # t.+.& * 7 * # + ",
"8./ i 7 %   O # & * * % @ @ i &.1 7 - @ O % V &.v v 2.L &   + - 7 * * +   + % & + O = ] 2.i * & +   ",
"j.i O % % + # 7 1 1 * 7 % O = i./ & X   + 7 +.t.v v t./ & + O O % 7 * @ + % 1 1 #     = t.N 7 1 # O ",
"# +   # * & & 1 i.2.7 * % O O & 8.J O + - i./ $ & & # & * & % % & * * & % & L d.N #   O # & V d.N % ",
"    + & 7 7 * 7 J N 7 * & @   O 9 i @ % 1 / &   # & + # 7 / i % & * * N / 1 1 K i & +     % i K i * ",
"  @ * * * * 7 & + @ * 7 7 * @ . . + & 7 & +   O % * * * v d.S O # 7 7 +.j.N # + % 7 7 # O % % + % 7 ",
"# i 8.& @ & 7 & O + 7 +.2.1 & #   + & 7 %   O # & * 7 } 8.9 @   # v 8.K = * & # % i 8.J % & & # N i.",
"N +.&.# O & 7 & + @ * ] +.1 * & + @ * v 1 @ % N 1 & & J / +   + % v &.& . % 1 N 1 1 &./ 7 * 1 N &.t.",
"b.K +   + & 7 * & & * # @ & 7 * & & 7 2.i.7 L j.V % O O +   + & * & @ O O % L l./ & @ # * * L j.9 + ",
"a $   O & +.V * * v +.# O & * 7 } / 7 - i 7 1 a - & @     + % * 7 %   O @ & 1 a 1 %   + * * 1 i @   ",
"    O % N i./ 7 : } i.& + & 7 v t.2.7 + + & # O % : 1 # + & 7 * 1 & + # 1 7 # O # & + @ * 7 % O   O ",
"  + % * & $ & 1 8.] & # % * } t.- % * & % * @   # V i.N % * * 7 2.2.& L i.N @   # * % & * 7 #   + % ",
"+ & L i #   + 1 / = X & L 7 N J + O & 7 * 7 % + % 1 / N 7 * i / +./ 1 N / 1 % + % 1 L N * * % + % 7 ",
"& L j.L % O # & +   O K i.1 # O   + & 7 7 * & & 7 & + # * * / j.& + & # + & * & & v j.+.7 * * & * * ",
"7 7 7 7 & # & & O O @ & 7 * @   + % * } +.$ # : &./ % % * * 7 = O O & & # & * 7 * 7 7 = : +.+.7 * * ",
"7 @   # 1 v 1 & + $ i # + & # + & 1 N 2./ + + 7 &.&.1 1 v 7 #     + & & & 1 i * 7 % O + 7 &.2.N : * ",
"7 # O # N j.} * & N j.N & * & & & L j.i +   @ & # # * &.i.v @ . @ & * @ @ &.8.7 * % O @ & # = d./ * ",
"* % @ & 1 a 1 * * 1 S i 7 * * * # & a #   + % * - 7 7 i N 7 % @ & 7 * + O = ] +.v & @ % & O + a i * ",
"* * * * % + # * 7 # O # * : : & +       + & 7 1 8.8.7 + O & 7 * * 7 1 # X   & i.L * * 7 & +   X # * ",
"* 7 * @ $ / N * * #     & 8.} & % +   + 7 8.+.7 & & & + O % 7 * * v i.J #   O % & * 7 * & & @   @ 7 ",
"* 7 & O @ ] +.V 1 % +   + / +.L 1 % + % 1 ] J & O O & # + & i J 1 1 +.J & @ O   # * * i N & # + % * ",
"* 7 & +   O S j.v * & +   O a j.N & & * & + # & + + & * & * / l.L % + # * * # O # * 7 +.i.$ + & * 7 ",
"* * * % +   # - 7 * * % +   @ - 7 N 2.V & @ - &.= # & / 2.1 7 - 7 %   @ 7 * & # & 1 &.] = O O * / 8.",
"v 7 & * & +   O % 1 i 1 % +   O % V t.L * * L t.N 7 i &.8.i @ O # & + @ & 1 1 * * i 8.-     + * +.j.",
"z.N + % * & + O % L j.L & & + O % & # & * 7 & # & V d.a # & #   # * & + @ &.2.7 * & # O   @ & * % @ ",
"/ &   # 7 7 # @ & i J 1 1 / 7 @ & #   @ * * @   # i J # o % % @ i / : # # i ] } v %     @ & 7 * # + ",
"O   O % * * 7 7 * # O # N j.+.* * % O $ : 7 # O % % O   O & * 7 8.t.1 * & + & d./ % O @ * * 7 7 7 * ",
"  O # & * * / 8.v @   # * & & 7 7 & % / 8.1 % % & %     O & 7 7 & & * 7 & O O & 7 & % & * * v 8.L * ",
"+ & N 1 7 N +.&.i # + % %   + * 7 * 7 / &.L i 7 * % X . + & 7 & + O & 7 & O     # 7 * * 7 v / &.N * ",
"& J j.N N j.i @ & * & * % O @ * * * * @ $ t.&.7 * % O @ & * 7 & + + & 7 & +     # 7 * * 1 i.+.@ $ * ",
"* - i 7 7 i #   % N 2.N & @ 1 +.& # & + O = 1 7 } J $ % 1 +./ * % # & * & # @ @ & * * * 7 i &   @ 7 ",
"* # + % % O   + & +.t.J * 1 &.8.# + & @ X   + 7 8.2.7 & 1 8.+.7 & & 1 : * * * * * 7 1 1 & +   O # * ",
"* & % & %   + * 8.] % & v i.J # . + & & #   + & % % * 7 & $ & & @ & 8.} * * 7 * * i i.+.& O O % & * ",
"* i / i & + % 1 / =   @ 1 / &   O & L v & @ # & O O & 7 % O + & + + J +.L 1 * 7 N } ] N & @ # * * * ",
"7 / j.J * & * & +   O % & +   O % L j./ * * 7 & + + & : & + + & +   O a j.N & 7 8.&.@ @ * * * * 7 7 ",
"i./ = & * 7 7 % O O # & %   O # & 7 = & 1 8./ & % % * } &.& % & % +   @ = 7 * * 7 $   + * 7 * * / i.",
"t.- X # * * i 1 @ @ * 7 & + & v 1 #   @ i &.&.N : * 7 / &.i 1 N 1 & +     % 7 & +   O # * * 7 N +.t.",
"@ O . % * 7 +.i.1 & * * & & / j.N # O # & @ i j.V * * # @ & / j.L * & + O % 7 * + O % * * * L j.9 + ",
"    # N / 7 1 a 7 v +.v * * 1 a 7 % @ & %   # a 1 * & +   % 1 S +./ 1 % $ L L & # % / L * * 1 a #   ",
"O + 7 8.8.1 + O & } d.J 7 1 # + & 1 * 7 & +   O % : 1 # + & # O J 8.1 & 1 8.8.1 * i i.+.7 * % O   O ",
"% & * & & * + + / ] & & v i.N & +.&.: * * & +   # N i.N % & #   @ & * * & & i t.L & & & * * #   + % ",
"7 7 & @ + # + $ j.&.+ # v 8./ i z.t.& & & % @ + % i ] N 7 * % +   O & N i + # / N %   + 7 L - @ 7 / ",
"* * * & # O @ 1 l.8.* & 7 : 7 1 l.] + # & + @ & * % + # * * 7 & + + & &.t.#   + & & O + 1 i.8.7 +.b.",
"* 7 * # +   @ 1 L N 7 * * * * 7 L i # % 7 N i 7 7 #   @ * * N &.7 % & 7 = % & a 1 & # % * 7 7 7 7 - ",
"* 7 & +     @ * * * * * * * * * * * * * v c.8.7 * % O @ * * +.b./ * * + O % } b.} * * 7 & O + & +   "
};
