/* XPM */
static char *result[] = {
/* columns rows colors chars-per-pixel */
"64 64 14 1 ",
"  c gray3",
". c #712200",
"X c #2C412E",
"o c #4C614F",
"O c #E40000",
"+ c #9E7653",
"@ c #F6933E",
"# c #0000A7",
"$ c #0052B6",
"% c #9A9087",
"& c #FED798",
"* c #CAC0B7",
"= c #FBE7DF",
"- c None",
/* pixels */
"----------------------------------------------------------------",
"----------------------------------------------------------------",
"----------------------------------------------------------------",
"----------------------------------------------------------------",
"----------------------------------------------------------------",
"----------------------------oo----------------------------------",
"---------------------------ooo---%ooo---------------------------",
"---------------------------ooo---%ooo---------------------------",
"---------------------------o%%o%%%*%%o-oo-----------------------",
"------------------------oo-o**%%%**%%%o-------------------------",
"------------------------oooo**%******%%-------------------------",
"------------------------oooo**%******%%-------------------------",
"------------------------oo%***********%oo-----------------------",
"------------------------oo%%**%%%%%%% o-------------------------",
"------------------------oo%%**%%%%%%% o-------------------------",
"------------------------ooo####$$$===oo-------------------------",
"------------------------oo#####$$$***.--------------------------",
"--------------------------##&&.%%= %%.--------------------------",
"--------------------------##&&.%%= %%.--------------------------",
"-----------------------     @@.%%@@&&.--------------------------",
"---------------------   XX %  X$$$$$$#--------------------------",
"------------------------##       X#$$#--------------------------",
"------------------------##       X#$$#--------------------------",
"-----------------------#  - ooooo X  ---------------------------",
"----------------------- --- %%%      ---------------------------",
"----------------------- --- %%%      ---------------------------",
"-------------------------- o%%%  %%   --------------------------",
"-------------------------- X##   oooo --------------------------",
"--------------------------XOOO   o ** --------------------------",
"--------------------------XOOO   o ** --------------------------",
"--------------------------#OOO   o %% --------------------------",
"------------------------##$$%%    ooo  -------------------------",
"------------------------##$$%%    ooo  -------------------------",
"------------------------XX$$%%       % -------------------------",
"-----------------------.XX#$%% oooo%%% -------------------------",
"-----------------------.  #XXX oo%oooo -------------------------",
"-----------------------.  #XXX oo%oooo -------------------------",
"-----------------------.  X@@@        --------------------------",
"-----------------------.++.$$$@  #### --------------------------",
"-----------------------.++.$$$@  #### --------------------------",
"------------------------.. $@@&  $X$$X--------------------------",
"-------------------------- @@@X***X%%X--------------------------",
"--------------------------oXXXX##$$XX$X-------------------------",
"--------------------------oXXXX##$$XX$X-------------------------",
"--------------------------#oooX##**XX%X-------------------------",
"------------------------###### XX#XXX$X-------------------------",
"------------------------###### XX#XXX$X-------------------------",
"------------------------####   --X#$$$X-------------------------",
"------------------------  $### --X#$$XX-------------------------",
"----------------------- %% $  ---- XXX--------------------------",
"----------------------- %% $  ---- XXX--------------------------",
"---------------------   %%% ------ **= -------------------------",
"---------------------  #  %------- **= -------------------------",
"---------------------  #  %------- **= -------------------------",
"---------------------  #$$ -------#####-------------------------",
"----------------------- ##@ ------####$##-----------------------",
"------------------------    ------####$&&#----------------------",
"------------------------    ------####$&&#----------------------",
"----------------------------------        ----------------------",
"----------------------------------------------------------------",
"----------------------------------------------------------------",
"----------------------------------------------------------------",
"----------------------------------------------------------------",
"----------------------------------------------------------------"
};
