/* XPM */
static char *result[] = {
/* columns rows colors chars-per-pixel */
"64 64 13 1 ",
"  c gray3",
". c #2C412E",
"X c #4C614F",
"o c #E40000",
"O c #F6933E",
"+ c #0000A7",
"@ c #0052B6",
"# c #6EBAFE",
"$ c #9A9087",
"% c #FED798",
"& c #CAC0B7",
"* c #FBE7DF",
"= c None",
/* pixels */
"================================================================",
"================================================================",
"================================================================",
"================================================================",
"================================XX==============================",
"===========================X===$XX==============================",
"===========================X===$XX==============================",
"=========================XX$=XX&XX=XXXX=========================",
"=========================XX&X&&&XXX&$$X=========================",
"=========================XX&X&&&XXX&$$X=========================",
"========================X$$&$&&&$$&$XX==========================",
"========================X$$&&&&&&&$$XX==========================",
"=========================   $&&$&&$X$$X  =======================",
"=========================   $&&$&&$X$$X  =======================",
"=========================  @   X&&X$XX =========================",
"========================   @*$$ XXX   ==========================",
"========================   @*$$ XXX   ==========================",
"======================= %  O$***$$$+%% =========================",
"======================= O  * %%%XXX+OO =========================",
"========================   O%@@@%%O   ==========================",
"========================   O%@@@%%O   ==========================",
"=========================  .+@@@++. ============================",
"=====================    XX .+++.. X     =======================",
"=====================    XX .+++.. X     =======================",
"==================== $$$X$$  ...   $XX$$$ ======================",
"==================== $$$X$$  ...   $XX$$$ ======================",
"====================o   &$$X      X$&&   o======================",
"====================o   &$$X      X$&&   o======================",
"====================o++ X$$$$XXX$$$$XX ++o======================",
"==================  @++ $  & XXX  & $$ ++@ =====================",
"==================  @++ $  $ XXX  $ $$ ++@ =====================",
"==================  @++ $  $ XXX  $ $$ ++@ =====================",
"==================  +..  XXXXXXXXXXX   ..+ =====================",
"==================  .  #   $$XXX$$$   #  . =====================",
"==================  .  #   $$XXX$$$   #  . =====================",
"=================.+++..# $$XXXXXXXX$  #..++  ===================",
"=================.++.    XX$$XXX$$$X   ..+.  ===================",
"================= @@@##                ##@@  ===================",
"================= @@@##                ##@@  ===================",
"================= @@%   +++. +++  .+++   %@  ===================",
"=================O  O  &***&$++ ..+@@@   O OO===================",
"=================O  O  &***&$++ ..+@@@   O OO===================",
"================= == ==+$$$$$   ++@@++ == =  ===================",
"=======================&***&$     @@@@.=========================",
"======================= @@@+.===..@@@@ =========================",
"======================= @@@+.===..@@@@ =========================",
"=======================.++++ ===  ++++.=========================",
"=======================+++++ ===  +++++=========================",
"=======================+++++ ===  +++++=========================",
"=======================.+++. ===  ++++.=========================",
"========================    ======    ==========================",
"========================*&&+======+&**==========================",
"========================*&&+======+&**==========================",
"=======================+*&&+======+&**+=========================",
"=======================+++++======+++++=========================",
"=======================+++++======+++++=========================",
"=====================+++@@@+======+@@@+++=======================",
"=====================++O%OO+======+O%%O++=======================",
"=======================    ========    =========================",
"=======================    ========    =========================",
"================================================================",
"================================================================",
"================================================================",
"================================================================"
};
