/* XPM */
static char *result[] = {
/* columns rows colors chars-per-pixel */
"64 64 14 1 ",
"  c gray3",
". c #712200",
"X c #2C412E",
"o c #4C614F",
"O c #E40000",
"+ c #F6933E",
"@ c #0000A7",
"# c #0052B6",
"$ c #9A9087",
"% c #FED798",
"& c #CAC0B7",
"* c #EBD7CF",
"= c #FBE7DF",
"- c None",
/* pixels */
"----------------------------------------------------------------",
"----------------------------------------------------------------",
"----------------------------------------------------------------",
"----------------------------------------------------------------",
"----------------------------------------------------------------",
"----------------------------------------------------------------",
"----------------------------------------------------------------",
"---------------------------ooo--ooo-----------------------------",
"---------------------------ooo--ooo-----------------------------",
"-------------------------oo$oooo&&oooo--------------------------",
"------------------------ooo&ooo&$$o&&o--------------------------",
"---------------------oo-o&&$oo&&$$&oo---------------------------",
"---------------------oo-o&&$oo&&$$&oo---------------------------",
"---------------------ooo&&&$&&&$$$$oo---------------------------",
"---------------------oo$&&&$&&$$$$ooo-@  -----------------------",
"---------------------oo$&&&$&&$$$$ooo-@  -----------------------",
"---------------------oo$&&&&&&$$ooo--@ -------------------------",
"---------------------oo $$$$##@@@@ @@@--------------------------",
"-----------------------o===###@@@@@@@ @-------------------------",
"-----------------------o===###@@@@@@@ @-------------------------",
"--------------....-----.&&&#$$.%@@   - @@-----------------------",
"-------------.++.+@@---$$  =       XX --------------------------",
"-------------.++.+@@---$$  =       XX --------------------------",
"-------------=..&&$$@@@@@@@ &&&$  ooo --------------------------",
"-----------======@######OOO   $$ooooo  -------------------------",
"-----------=======@@####OOO#    ooo    @@@----------------------",
"-----------=======@@####OOO#    ooo    @@@----------------------",
"-------------========  @######       O ###@@@-------------------",
"--------------===========       ooo  OO  ####@------------------",
"-------------=--=======&&=====  $$ooo    ####@------------------",
"-------------=--=======&&=====  $$ooo    ####@------------------",
"--------------===========&&&&&*****oooo       ------------------",
"----------------============**o ooooooo      -------------------",
"----------------============**o ooooooo      -------------------",
"-----------------******************XX&&$$X----------------------",
"--------------------*****&&&*********&&&&&----------------------",
"-----------------------*****&&&&&&&XX$XXXX----------------------",
"-----------------------*****&&&&&&&XX$XXXX----------------------",
"------------------------ ******    XXX$$$X----------------------",
"-----------------------@ ###@@****&@@##     --------------------",
"-----------------------@ ###@@****&@@##     --------------------",
"-----------------------@###@    @@@@@@####   -------------------",
"-----------------------@@@@        @@@@##### -------------------",
"------------------------@XX@       @@@@@@#### ------------------",
"------------------------@XX@       @@@@@@#### ------------------",
"-------------------------@@X##@    --  @@@### ------------------",
"---------------------------XXXX   ----   @@@@ ------------------",
"---------------------------XXXX   ----   @@@@ ------------------",
"----------------------------  $$  -------   $&  ----------------",
"----------------------------  $$  ---------- $&& ---------------",
"------------------------------@@@@@---------- $$&  -------------",
"------------------------------@@@@@---------- $$&  -------------",
"----------------------------@@#@@@@-----------@@### ------------",
"---------------------------@+++@   ---------- @@@   ------------",
"---------------------------@+++@   ---------- @@@   ------------",
"---------------------------     ------------ %+++   ------------",
"--------------------------------------------       -------------",
"----------------------------------------------------------------",
"----------------------------------------------------------------",
"----------------------------------------------------------------",
"----------------------------------------------------------------",
"----------------------------------------------------------------",
"----------------------------------------------------------------",
"----------------------------------------------------------------"
};
