/* XPM */
static char *result[] = {
/* columns rows colors chars-per-pixel */
"64 64 13 1 ",
"  c gray3",
". c #2C412E",
"X c #4C614F",
"o c #E40000",
"O c #F6933E",
"+ c #0000A7",
"@ c #0052B6",
"# c #9A9087",
"$ c #FED798",
"% c #CAC0B7",
"& c #EBD7CF",
"* c #FBE7DF",
"= c None",
/* pixels */
"================================================================",
"================================================================",
"================================================================",
"================================================================",
"================================================================",
"================================================================",
"================================================================",
"================================================================",
"================================================================",
"===================================X============================",
"===================================X============================",
"============================X=====#X===XXX======================",
"===========================X#XX=XX%X==X#XX======================",
"===========================X#XX=XX%X==X#XX======================",
"=========================XX#%XXX%%%XXX%X========================",
"=========================XX#%###%%%#%%#X========================",
"=========================XX#%%%%%%%####X  ======================",
"=========================XX#%%%%%%%####X  ======================",
"===========================  ##%##%#XXX ========================",
"==============***====....== @   XX%X## =========================",
"===============*****.$$$@.. @**#  XX  $ ========================",
"===============*****.$$$@.. @**#  XX  $ ========================",
"=================*****OO***.O##***##++O ========================",
"==================******%##**  $$$XX++ =========================",
"==================******%##**  $$$XX++ =========================",
"====================&&&&***%$@@   $O   =========================",
"=====================%&&&&&&O@@@oo    ==========================",
"===================== ###%%&&&&@ooo ## =========================",
"===================== ###%%&&&&@ooo ## =========================",
"==================== o   XX# @@@@@@ @@ =========================",
"==================  oo++ XX#   @@@ @@@ =========================",
"==================  oo++ XX#   @@@ @@@ =========================",
"==================  .+   %%#X          =========================",
"=================.++..   ## %  XXX %   =========================",
"================= @@@ ===  XXXXXXXXXXX =========================",
"================= @@@ ===  XXXXXXXXXXX =========================",
"================= @@$.===   ###XXX##   =========================",
"=================O  O ==   XXXX   XXXX  ========================",
"=================O  O ==   XXXX   XXXX  ========================",
"================= == ===    ###XXX##    ========================",
"======================   +++.  +++ .+++   ======================",
"======================  %***%  +  .+@@@   ======================",
"======================  %***%  +  .+@@@   ======================",
"======================  +####%%   +@  ++++.=====================",
"===================== %%***%+##    @  +++++=====================",
"===================== %%***%+##    @  +++++=====================",
"=====================.+++++ #======   ++++.=====================",
"=====================++++++ ========  ##  ======================",
"======================+++.. ========== +++======================",
"======================+++.. ========== +++======================",
"========================    ==========+++++=====================",
"========================*%%+==========+OOO+=====================",
"========================*%%+==========+OOO+=====================",
"======================++*%%+===========+++======================",
"======================++++++====================================",
"=====================+++@@@+====================================",
"=====================+++@@@+====================================",
"=====================+OO$OO+====================================",
"======================     =====================================",
"================================================================",
"================================================================",
"================================================================",
"================================================================",
"================================================================"
};
