/* XPM */
static char *result[] = {
/* columns rows colors chars-per-pixel */
"64 64 14 1 ",
"  c gray3",
". c #7B1900",
"X c #26422C",
"o c #46624D",
"O c #F90000",
"+ c #FF8D1C",
"@ c #0000AE",
"# c #0054BD",
"$ c #9C9086",
"% c #FFD58E",
"& c #CCC0B6",
"* c #EFD6CE",
"= c #FFE6DE",
"- c None",
/* pixels */
"----------------------------------------------------------------",
"----------------------------------------------------------------",
"----------------------------------------------------------------",
"----------------------------------------------------------------",
"----------------------------------------------------------------",
"----------------------------------------------------------------",
"----------------------------------------------------------------",
"-----------------------------ooo--ooo---------------------------",
"-----------------------------ooo--ooo---------------------------",
"--------------------------oooo&&oooo$oo-------------------------",
"--------------------------o&&o$$&ooo&ooo------------------------",
"---------------------------oo&$$&&oo$&&o-oo---------------------",
"---------------------------oo&$$&&oo$&&o-oo---------------------",
"---------------------------oo$$$$&&&$&&&ooo---------------------",
"-----------------------  @-ooo$$$$&&$&&&$oo---------------------",
"-----------------------  @-ooo$$$$&&$&&&$oo---------------------",
"------------------------- @--ooo$$&&&&&&$oo---------------------",
"--------------------------@@@ @@@@##$$$$ oo---------------------",
"-------------------------@ @@@@@@@###===o-----------------------",
"-------------------------@ @@@@@@@###===o-----------------------",
"-----------------------@@ -   @@%.$$#&&&.-----....--------------",
"-------------------------- XX       =  $$---@@+.++.-------------",
"-------------------------- XX       =  $$---@@+.++.-------------",
"-------------------------- ooo  $&&& @@@@@@@$$&&..=-------------",
"-------------------------  ooooo$$   OOO######@======-----------",
"----------------------@@@    ooo    #OOO####@@=======-----------",
"----------------------@@@    ooo    #OOO####@@=======-----------",
"-------------------@@@### O       ######@  ========-------------",
"------------------@####  OO  ooo       ===========--------------",
"------------------@####    ooo$$  =====&&=======--=-------------",
"------------------@####    ooo$$  =====&&=======--=-------------",
"------------------       oooo*****&&&&&===========--------------",
"-------------------      ooooooo o**============----------------",
"-------------------      ooooooo o**============----------------",
"----------------------X$$&&XX******************-----------------",
"----------------------&&&&&*********&&&*****--------------------",
"----------------------XXXX$XX&&&&&&&*****-----------------------",
"----------------------XXXX$XX&&&&&&&*****-----------------------",
"----------------------X$$$XXX    ****** ------------------------",
"--------------------     ##@@&****@@### @-----------------------",
"--------------------     ##@@&****@@### @-----------------------",
"-------------------   ####@@@@@@    @###@-----------------------",
"------------------- #####@@@@        @@@@-----------------------",
"------------------ ####@@@@@@       @XX@------------------------",
"------------------ ####@@@@@@       @XX@------------------------",
"------------------ ###@@@  --    @##X@@-------------------------",
"------------------ @@@@   ----   XXXX---------------------------",
"------------------ @@@@   ----   XXXX---------------------------",
"----------------  &$   -------  $$  ----------------------------",
"--------------- &&$ ----------  $$  ----------------------------",
"-------------  &$$ ----------@@@@@------------------------------",
"-------------  &$$ ----------@@@@@------------------------------",
"------------ ###@@-----------@@@@#@@----------------------------",
"------------   @@@ ----------   @+++@---------------------------",
"------------   @@@ ----------   @+++@---------------------------",
"------------   +++% ------------     ---------------------------",
"-------------       --------------------------------------------",
"----------------------------------------------------------------",
"----------------------------------------------------------------",
"----------------------------------------------------------------",
"----------------------------------------------------------------",
"----------------------------------------------------------------",
"----------------------------------------------------------------",
"----------------------------------------------------------------"
};
