/* XPM */
static char *result[] = {
/* columns rows colors chars-per-pixel */
"64 64 12 1 ",
"  c gray3",
". c #2C412E",
"X c #4C614F",
"o c #E40000",
"O c #F6933E",
"+ c #0000A7",
"@ c #0052B6",
"# c #9A9087",
"$ c #FED798",
"% c #CAC0B7",
"& c #FBE7DF",
"* c None",
/* pixels */
"****************************************************************",
"****************************************************************",
"****************************************************************",
"****************************************************************",
"****************************************************************",
"****************************************************************",
"****************************************************************",
"****************************************************************",
"***************************X************************************",
"*********************XXX***X##***XX*****************************",
"*********************XXX***X##***XX*****************************",
"*********************XX#XX*X%%X**X#XX***************************",
"***********************X%%XX%%%XXX%XXX**************************",
"***********************X%%XX%%%XXX%XXX**************************",
"***********************X##%#%%%###%##X**************************",
"*********************  X####%%%%%%%##X&&&&**********************",
"*********************** XXX#%%#%%#   X&&&&&&&&&&****************",
"*********************** XXX#%%#%%#   X&&&&&&&&&&****************",
"************************   ####..@.  &&...&&&&&&&&&*************",
"*********************** $$ ........  .+$$$..&&******************",
"*********************** $$ ........  .+$$$..&&******************",
"*********************&& OO+...#@@..  @@OO+**********************",
"********************&&&&   @.....##  @OOO$++********************",
"*******************&&&&&   ........  +O...**********************",
"*******************&&&&&   ........  +O...**********************",
"*****************&&&***&XXX ..+++. XX ...***********************",
"****************&****&& ##X######X%%%#    **********************",
"****************&****&& ##X######X%%%#    **********************",
"*******************&&** XXXXXXXXXXXXX .  o  ********************",
"*****************&&**** ##X ooo  X#XX .++ooo *******************",
"*********************** XXX ooo  X#XX    +.. *******************",
"*********************** XXX ooo  X#XX    +.. *******************",
"************************  XX   XXXX      ...+.******************",
"************************XX########   #*** @@@ ******************",
"************************XX########   #*** @@@ ******************",
"***********************XXXXXXXXXXXX###***.$$@ ******************",
"*********************XX%%%%X#######XX  ** OO O******************",
"*********************XX%%%X            ***  * ******************",
"*********************XX%%%X            ***  * ******************",
"*********************XXXXX#   +++++++++  ***********************",
"********************.++### ++++++++####XX***********************",
"********************.++### ++++++++####XX***********************",
"********************++++++++++    ###%%##***********************",
"********************.+++++ ****   #%%%%##***********************",
"*********************     ********###++++.**********************",
"*********************     ********###++++.**********************",
"*********************&&%++*********  +++++**********************",
"********************+&&%++*********  .+++.**********************",
"********************++++++***********     **********************",
"********************++++++***********     **********************",
"*******************++@@@++*********** +%%&**********************",
"*******************+++++++************+@@@++********************",
"*******************+++++++************+@@@++********************",
"********************    **************+   ++********************",
"**************************************+     +*******************",
"**************************************+     +*******************",
"**************************************+     +*******************",
"***************************************     ********************",
"****************************************************************",
"****************************************************************",
"****************************************************************",
"****************************************************************",
"****************************************************************",
"****************************************************************"
};
