/* XPM */
static char *result[] = {
/* columns rows colors chars-per-pixel */
"64 64 13 1 ",
"  c gray3",
". c #2C412E",
"X c #4C614F",
"o c #E40000",
"O c #9E7653",
"+ c #F6933E",
"@ c #0000A7",
"# c #0052B6",
"$ c #9A9087",
"% c #FED798",
"& c #CAC0B7",
"* c #FBE7DF",
"= c None",
/* pixels */
"================================================================",
"================================================================",
"================================================================",
"================================================================",
"================================================================",
"================================================================",
"================================================================",
"===============================X================================",
"===============================X$===XX==========================",
"=========================XXXX==X&XX=$$X=========================",
"=========================XXXX==X&XX=$$X=========================",
"=========================X$$&XXX&&&X&&X=========================",
"==========================XX&&&&&$$&&&$X========================",
"==========================XX&&&&&$$&&&$X========================",
"========================XX$$$&&&.$$&&&$X========================",
"========================X$&&$$$&#..&&&$X========================",
"=========================X$$&$$$.##.$$X=========================",
"=========================X$$&$$$.##.$$X=========================",
"=========================X  $$$$.##.  X=========================",
"========================    ........    ========================",
"========================    ........    ========================",
"======================== %@@...$#...  % ========================",
"=========================   ###..$$$   =========================",
"==========================  .##.....  ==========================",
"==========================  .##.....  ==========================",
"======================    XX$...$$$$XX    ======================",
"===================== $$$$XX$XXXXXX$XX$$$$ =====================",
"===================== $$$$XX$XXXXXX$XX$$$$ =====================",
"===================== $$$$XX$XXXXXX$XX$$$$ =====================",
"=====================o   $&&X$$$$$$X&&$   o=====================",
"===================== ##@XXXXXXXXXXXXXX @@o=====================",
"===================== ##@XXXXXXXXXXXXXX @@o=====================",
"===================== ##@$$$X  oo  X$$$ @@#  ===================",
"===================  #..@X$$X  oo  X$$X @@#  ===================",
"===================  #..@X$$X  oo  X$$X @@#  ===================",
"===================  @@@. XXXXX  XXXXX  ..#..===================",
"===================  .@@ $  $$$$$$$$  $   .## ==================",
"===================  ###.$$$XXXXXXXX$$$ ..@##.==================",
"===================  ###.$$$XXXXXXXX$$$ ..@##.==================",
"==================   #  . XX$$$$$$$$XX    .@@.==================",
"================== ++    &&&&&&           ### ==================",
"===================  ===  &&&   @  .@@@X  +##+ =================",
"===================  ===  &&&   @  .@@@X  +##+ =================",
"======================== O   OO..$$&&&$X==   + =================",
"======================== @OOO@@@ $$$$$X@===== ==================",
"======================== @OOO@@@ $$$$$X@===== ==================",
"========================.@@@@      @@@@.========================",
"======================== @@@@..==  .@@@=========================",
"========================.@...  ==      =========================",
"========================.@...  ==      =========================",
"========================.@@@@  ==@@$$$@=========================",
"=========================@**&  ==@@$$$@=========================",
"=========================@**&  ==@@$$$@=========================",
"=========================@**&@@==@@@@@@=========================",
"=========================@@@@@@==@@###@=========================",
"=========================@###@@==@@####=========================",
"=========================@###@@==@@####=========================",
"=========================@   @@====   ==========================",
"=========================    @@=================================",
"=========================    @@=================================",
"=========================    ===================================",
"================================================================",
"================================================================",
"================================================================"
};
