/* XPM */
static char *result[] = {
/* columns rows colors chars-per-pixel */
"64 64 13 1 ",
"  c gray3",
". c #712200",
"X c #2C412E",
"o c #4C614F",
"O c #E40000",
"+ c #F6933E",
"@ c #0000A7",
"# c #0052B6",
"$ c #9A9087",
"% c #FED798",
"& c #CAC0B7",
"* c #FBE7DF",
"= c None",
/* pixels */
"================================================================",
"================================================================",
"================================================================",
"================================================================",
"================================================================",
"================================================================",
"============================ooo===$ooo==========================",
"===========================oo&&o$$&&$$==========================",
"===========================oo&&o$$&&$$==========================",
"========================o==o&&&$&&&$oo&$$=======================",
"========================ooo&&&&&&&&&$$o=========================",
"========================o$$&&&&&&&&&&&$=========================",
"========================o$$&&&&&&&&&&&$=========================",
"========================o$$$&$$$$$$$  &$$=======================",
"========================ooo@@@@###**ooo=========================",
"========================ooo@@@@###**ooo=========================",
"=========================@@@@@@###&&..==========================",
"=======================X @@@%..$** $$$==========================",
"=====================  #    +..$+++%..==========================",
"=====================  #    +..$+++%..==========================",
"========================X  $ XX#####@@==========================",
"=======================#@       XX@#@@==========================",
"=====================@@@ == oooo  X ============================",
"=====================@@@ == oooo  X ============================",
"=========================== $$$     ============================",
"=========================  o$$$ $$$   ==========================",
"=========================  o$$$ $$$   ==========================",
"=========================   X@@ oooo  ==========================",
"=========================  XOOO oo &  ==========================",
"=========================  @OOO oo $  ==========================",
"=========================  @OOO oo $  ==========================",
"=========================  @###$  oo   =========================",
"========================o  X###$    $$ =========================",
"========================o  X###$    $$ =========================",
"=======================o&ooX@##$ooo$oo =========================",
"=======================oooo @XXX$$oo  ==========================",
"=======================o&oo X++%      ==========================",
"=======================o&oo X++%      ==========================",
"=======================o$oo..###++ @  ==========================",
"========================oooX ##+%% @  ==========================",
"========================oooX ##+%% @  ==========================",
"=========================  X +++XX  ============================",
"===========================X XXX  @ ============================",
"===========================X&&&#$$$ ============================",
"===========================X&&&#$$$ ============================",
"============================X###@@@ ============================",
"=========================== &&&#$$ =============================",
"=========================== &&&#$$ =============================",
"=========================== XXXX@@X=============================",
"=========================== X@@#XXX=============================",
"============================ XXX$$X=============================",
"============================ XXX$$X=============================",
"=========================== &$$ $$X=============================",
"=========================== &$$ XXXX============================",
"=========================== &$$ XXXX============================",
"===========================@@@@@@@@XXX==========================",
"===========================@@@@#@@@+XX==========================",
"===========================@@@@#++@X============================",
"===========================@@@@#++@X============================",
"============================       =============================",
"================================================================",
"================================================================",
"================================================================",
"================================================================"
};
