/* XPM */
static char *result[] = {
/* columns rows colors chars-per-pixel */
"64 64 13 1 ",
"  c gray3",
". c #2C412E",
"X c #4C614F",
"o c #E40000",
"O c #9E7653",
"+ c #F6933E",
"@ c #0000A7",
"# c #0052B6",
"$ c #9A9087",
"% c #FED798",
"& c #CAC0B7",
"* c #FBE7DF",
"= c None",
/* pixels */
"================================================================",
"================================================================",
"================================================================",
"================================================================",
"================================================================",
"=============================X==================================",
"=============================X==================================",
"=============================X$$===X============================",
"========================XXXX=X&&X==$X===========================",
"========================X$&&XX&&&XX&X===========================",
"========================X$&&XX&&&XX&X===========================",
"=========================X&&&$&&&$$&$XX=========================",
"=========================X$$$&&&&&&&$XX=========================",
"=========================X$$$&&&&&&&$XX=========================",
"======================  X&XX$$&&$...$XX=========================",
"======================== X$$$$$$.##.$XX=========================",
"=========================X  $$$$.##. XX=========================",
"=========================X  $$$$.##. XX=========================",
"========================    ........    ========================",
"======================== %@@..$$#... %% ========================",
"======================== %@@..$$#... %% ========================",
"=========================   #....$$$   =========================",
"==========================  ........ ===========================",
"======================    XX..$$$$$$X     ======================",
"======================    XX..$$$$$$X     ======================",
"===================== $$$$XX$XXXXXX$X$$$$$ =====================",
"===================== $$$$XX$XXXXXX$X$$$$$ =====================",
"===================== $$$$XX$XXXXXX$X$$$$$ =====================",
"=====================o   $&&X$$$$$$X&$$   o=====================",
"=====================o@@ XXXXXXXXXXXXXX @@o=====================",
"===================  #@@ $$$X ooo  X$$$ @@# ====================",
"===================  #@@ $$$X ooo  X$$$ @@# ====================",
"===================  #@@ X$$X ooo  X$XX @@# ====================",
"================== ##@..  XXXX   XXXX   ..@#  ==================",
"================== ##@..  XXXX   XXXX   ..@#  ==================",
"================== ##.   $  $$$$$$$$ $$   .#  ==================",
"================== @@@.. $$$XXXXXXXX$$$ ..@@..==================",
"================== ..@..  XX$$$$$$$$X     .@..==================",
"================== ..@..  XX$$$$$$$$X     .@..==================",
"================== ###  &&&&&             ##  ==================",
"=================  ###   &&&  @@@  .@@@   ##   =================",
"================= +  +  O   O......@@..   + ++ =================",
"================= +  +  O   O......@@..   + ++ =================",
"================== == == OOO@@   $$$&&&@@@ =  ==================",
"========================.@@@@    XXX$$$@@@======================",
"========================.@@@@    XXX$$$@@@======================",
"======================== @@@@.===$$$&&& @@======================",
"========================.@... ===  @@@@.========================",
"========================@@@@@ ===  @@@@@========================",
"========================@@@@@ ===  @@@@@========================",
"========================.@@@@ ===  .@@@.========================",
"=========================    ======    =========================",
"=========================    ======    =========================",
"========================@*&&@======@&**@========================",
"========================@*&&@======@&**@========================",
"======================  @@@@@======@@@@@@@======================",
"======================  @@@@@======@@@@@@@======================",
"======================  @###@======@###@@@======================",
"========================####@======@####========================",
"========================####@======@####========================",
"========================    ========    ========================",
"================================================================",
"================================================================",
"================================================================"
};
