/* XPM */
static char *result[] = {
/* columns rows colors chars-per-pixel */
"64 64 13 1 ",
"  c gray3",
". c #2C412E",
"X c #4C614F",
"o c #E40000",
"O c #F6933E",
"+ c #0000A7",
"@ c #0052B6",
"# c #6EBAFE",
"$ c #9A9087",
"% c #FED798",
"& c #CAC0B7",
"* c #FBE7DF",
"= c None",
/* pixels */
"================================================================",
"================================================================",
"================================================================",
"================================================================",
"================================================================",
"===================================X============================",
"===================================X============================",
"============================XXX==$$X============================",
"==========================XX$===X&&X============================",
"==========================XX$===X&&X============================",
"=========================XXX&XX&&XXXXXXX========================",
"=========================X$$&$$&&$$&&&$X========================",
"=========================X$$&&&&&&&$$$X=========================",
"=========================X$$&&&&&&&$$$X=========================",
"==========================   $$&$&&$XX$X  ======================",
"==========================  @   X&&X$$X ========================",
"==========================  @   X&&X$$X ========================",
"=========================   @**$ XXX   =========================",
"======================== %  O$$**$$$++% ========================",
"======================== O  *  %%XXX++O ========================",
"======================== O  *  %%XXX++O ========================",
"=========================   O%%@@%%O   =========================",
"==========================  .++@@++.  ==========================",
"==========================  .++@@++.  ==========================",
"======================    XX ..++.. XX    ======================",
"===================== $$$X$$   ..   $$X$$$ =====================",
"===================== $$$X$$   ..   $$X$$$ =====================",
"===================== $$$X$$   ..   $$X$$$ =====================",
"=====================o   &$$X      X$$&   o=====================",
"=====================o++ X$$$$$XX$$$$$X ooo=====================",
"===================== @@+   &  XX  &  $ @@ =====================",
"===================== @@+   &  XX  &  $ @@ =====================",
"===================== @@+   $  XX  $  $ .. =====================",
"===================== ++. XXXXXXXXXXXX  +++..===================",
"===================== ++. XXXXXXXXXXXX  +++..===================",
"===================   ..    $$$XX$$$   #..+..===================",
"===================  +++.#$$XXXXXXXX$$ #@@@  ===================",
"===================  .++. XX$$$XX$$$XX  %%@  ===================",
"===================  .++. XX$$$XX$$$XX  %%@  ===================",
"===================  @@@                OO OO===================",
"===================  @%% +++.  ++  .+++   =  ===================",
"===================  @%% +++.  ++  .+++   =  ===================",
"===================OO OO=.&&&$$+ ..+@@@ ========================",
"===================  =  =.$$$$$  ++@@@+ ========================",
"=========================.+++++    @@@@.========================",
"=========================.+++++    @@@@.========================",
"=========================.+++.. .@@@@@ =========================",
"==========================     = +++++.=========================",
"==========================     = +++++.=========================",
"==========================XX$XX==+++++.=========================",
"=========================+XX$XX==     ==========================",
"=========================++++++==++&**==========================",
"=========================++++++==++&**==========================",
"=========================+@@@++==++&**+=========================",
"=========================+OOO++==++++++=========================",
"=========================+OOO++==++++++=========================",
"==========================   ====++@@@++========================",
"=================================++O%%O+========================",
"===================================    =========================",
"===================================    =========================",
"================================================================",
"================================================================",
"================================================================",
"================================================================"
};
