/* XPM */
static char *result[] = {
/* columns rows colors chars-per-pixel */
"64 64 14 1 ",
"  c gray3",
". c #712200",
"X c #2C412E",
"o c #4C614F",
"O c #E40000",
"+ c #9E7653",
"@ c #F6933E",
"# c #0000A7",
"$ c #0052B6",
"% c #9A9087",
"& c #FED798",
"* c #CAC0B7",
"= c #FBE7DF",
"- c None",
/* pixels */
"----------------------------------------------------------------",
"----------------------------------------------------------------",
"----------------------------------------------------------------",
"----------------------------------------------------------------",
"----------------------------------------------------------------",
"----------------------------------------------------------------",
"----------------------------------o-----------------------------",
"---------------------------oo%%---oo----------------------------",
"----------------------oo*oo%*%%%oo%o----------------------------",
"----------------------oo*oo%*%%%oo%o----------------------------",
"------------------------o%%%***%%%*o--o-------------------------",
"------------------------%%%*****%%*oooo-------------------------",
"----------------------oo%***********%%o-------------------------",
"----------------------oo%***********%%o-------------------------",
"------------------------o  %%%%*%%*%%%o-------------------------",
"------------------------ooo=*$$%%%##ooo-------------------------",
"------------------------ooo=*$$%%%##ooo-------------------------",
"-------------------------..*=**$######o-------------------------",
"-------------------------..%***$..&###--------------------------",
"-------------------------..@$$$$..@     ------------------------",
"-------------------------..@$$$$..@     ------------------------",
"-------------------------##$$$$ XX %  X   ----------------------",
"-------------------------##$#XX       #-------------------------",
"-------------------------##$#XX       #-------------------------",
"--------------------------- X  oooo -- #------------------------",
"---------------------------     %%% --- ------------------------",
"-------------------------   %%% %%%o  --------------------------",
"-------------------------   %%% %%%o  --------------------------",
"-------------------------  oooo   #X  --------------------------",
"-------------------------  * oo   OOXX--------------------------",
"-------------------------  * oo   OOXX--------------------------",
"-------------------------  % oo   OO##--------------------------",
"------------------------   oo     %$$$#-------------------------",
"------------------------ %%       %$$$X-------------------------",
"------------------------ %%       %$$$X-------------------------",
"------------------------ %%%oooo  %$##X.------------------------",
"------------------------ oooo%%o  XX## .------------------------",
"------------------------ oooo%%o  XX## .------------------------",
"-------------------------         @@XX .------------------------",
"-------------------------  #### @@$$..+.------------------------",
"-------------------------XX$$$$ &&@$  .-------------------------",
"-------------------------XX$$$$ &&@$  .-------------------------",
"-------------------------XX$$$$$XX@@  --------------------------",
"------------------------X$$$$$$$XXXXoo--------------------------",
"------------------------X$$$$$$$XXXXoo--------------------------",
"------------------------X$$$$$$#XXoo##--------------------------",
"------------------------X$$$$##X  #####-------------------------",
"------------------------X$$$#XX-   ####-------------------------",
"------------------------X$$$#XX-   ####-------------------------",
"------------------------XXX$#XX-  ##$$ -------------------------",
"-------------------------XXX ----- $  % ------------------------",
"------------------------ ==* ------ %%%   ----------------------",
"------------------------ ==* ------ %%%   ----------------------",
"------------------------ ==* -------%% #  ----------------------",
"------------------------#####-------  $#  ----------------------",
"------------------------#####-------  $#  ----------------------",
"----------------------##$####------ @@# ------------------------",
"---------------------#&&$####------    -------------------------",
"---------------------        -----------------------------------",
"---------------------        -----------------------------------",
"----------------------------------------------------------------",
"----------------------------------------------------------------",
"----------------------------------------------------------------",
"----------------------------------------------------------------"
};
