/* XPM */
static char *result[] = {
/* columns rows colors chars-per-pixel */
"64 64 13 1 ",
"  c gray3",
". c #712200",
"X c #2C412E",
"o c #4C614F",
"O c #E40000",
"+ c #F6933E",
"@ c #0000A7",
"# c #0052B6",
"$ c #9A9087",
"% c #FED798",
"& c #CAC0B7",
"* c #FBE7DF",
"= c None",
/* pixels */
"================================================================",
"================================================================",
"================================================================",
"================================================================",
"================================================================",
"================================================================",
"============================oooo================================",
"============================oooo================================",
"=======================o===o&$$o==oo============================",
"=====================oo&ooo&$ooooo$o============================",
"=====================oo&ooo&$ooooo$o============================",
"=====================oo$o&&&$oo$$$ooooo=========================",
"====================o$$&&&&&&&&$$$o$oo==========================",
"====================o$$&&&&$&$$$$$$o============================",
"====================o$$&&&&$&$$$$$$o============================",
"====================o$$&&$$&$$$$ooo=###=========================",
"=====================oo$$$$$#@@@@@=#  ==========================",
"=====================oo$$$$$#@@@@@=#  ==========================",
"=====================oo****##@@@@@  ==#  =======================",
"=====================..&&&&#$..%@@ ### =========================",
"=====================..$$  *$..+  X ============================",
"=====================..$$  *$..+  X ============================",
"=====================..##+++#XX $$@   ==========================",
"=======================#####   $   &$$ =========================",
"=======================#####   $   &$$ =========================",
"======================= ###    ooo$$  ###=======================",
"=======================     $$$ ooo       ======================",
"======================= $  ooooo      OOO  =====================",
"======================= $  ooooo      OOO  =====================",
"=====================  # && o&& $$o   OOO  =====================",
"=====================  # $$ o$$ $$o ###### =====================",
"==================== ### oo ooo ooo ##### ======================",
"==================== ### oo ooo ooo ##### ======================",
"==================                 ####@@o======================",
"=================   o++  $$ $$$$oo  XXX@@&o=====================",
"=================   o++  $$ $$$$oo  XXX@@&o=====================",
"================= ++ oo      ooo  o %%+XXoo=====================",
"================= %%     $$ $$$$  +###.  &o=====================",
"================= ++%             %+###  $o=====================",
"================= ++%             %+###  $o=====================",
"==================      ###@@     X+++#  o======================",
"=====================  ##@@@    @@ XXX XXX======================",
"=====================  ##@@@    @@ XXX XXX======================",
"=====================  @@@@  XXX@@@@#####XX=====================",
"=====================  @@   X===  @@@@@###X=====================",
"======================= X   X=====  @@@@@##XX===================",
"======================= X   X=====  @@@@@##XX===================",
"======================== XX  XX====       #XX===================",
"=========================XX  XX=====       =====================",
"=========================XX  XX=====       =====================",
"=========================== $oo =======  $&oo===================",
"=========================== $oo =========o$&&o==================",
"============================@@@@  ========o$$&  ================",
"============================@@@@  ========o$$&  ================",
"===========================@#@@@@@=========   @@ ===============",
"=========================@@++@@   ========@@@@@@ ===============",
"=========================@@++@@   ========@@@@@@ ===============",
"=========================       =========@%+++@@ ===============",
"=========================================@@@@@@@================",
"================================================================",
"================================================================",
"================================================================",
"================================================================",
"================================================================"
};
