/* XPM */
static char *result[] = {
/* columns rows colors chars-per-pixel */
"64 64 12 1 ",
"  c gray3",
". c #2C412E",
"X c #4C614F",
"o c #E40000",
"O c #F6933E",
"+ c #0000A7",
"@ c #0052B6",
"# c #9A9087",
"$ c #FED798",
"% c #CAC0B7",
"& c #FBE7DF",
"* c None",
/* pixels */
"****************************************************************",
"****************************************************************",
"****************************************************************",
"****************************************************************",
"****************************************************************",
"****************************************************************",
"****************************************************************",
"****************************************************************",
"****************************************************************",
"****************************************************************",
"*****************************XX*********************************",
"************************XX***XX#*XXX****************************",
"************************XX***XX#*XXX****************************",
"************************X#XX*XX%XXX#XX**************************",
"*************************X%%XXX%%XX%XX**************************",
"*************************X%%XXX%%XX%XX**************************",
"*************************X##%##%%##%##X*************************",
"**********************  X%XX###%#...##X*************************",
"************************ X######.@@.##X*************************",
"************************ X######.@@.##X*************************",
"*************************X  ####.@@.  X*************************",
"************************    ........    ************************",
"************************    ........    ************************",
"************************ $++...#@...  $ &&&*********************",
"**********************&&&   @....###   &&&**********************",
"*******************&&&&& #  ........      **********************",
"*******************&&&&& #  ........      **********************",
"*****************&&&&&  ##XX.######XXX#### *********************",
"***************&&&&&&&   X  .+++.  XXX##XX *********************",
"***************&&&&&&&   X  .+++.  XXX##XX *********************",
"**************&&&*&&&&   #XX#####XX%%%  ++o  *******************",
"**************&**&&&&&   XXXXXXXXXXXXX  ++ooo ******************",
"***************&&&&&&&&& #XX ooo XX###     +++.*****************",
"***************&&&&&&&&& #XX ooo XX###     +++.*****************",
"**************&&&&&&&&&& #XX ooo XX#XXX*** ..+.  ***************",
"**************&&&*&&&&*** XXX   XXXXXX ****  .@@@ **************",
"**************&&&*&&&&*** XXX   XXXXXX ****  .@@@ **************",
"************&&&**&&*****X#XX#######   #****** $@@ **************",
"************&&*&&&****XX%%%%%XXXXXXX### ***** O  O**************",
"***********&&&*&&*****XXX%%%X#######XX  ****** ** **************",
"***********&&&*&&*****XXX%%%X#######XX  ****** ** **************",
"***********&***&&*****  #XXX#++++++++++ ************************",
"**********&**********.+++###.  ++++@####XX**********************",
"**********&**********.+++###.  ++++@####XX**********************",
"**********&**********+++++         ###%%##**********************",
"*********************.++++  ****   #%%%%##**********************",
"**********************    *********###     *********************",
"**********************    *********###     *********************",
"**********************&&%+**********  +@@@+*********************",
"*********************+&&%+**********  .@@@.*********************",
"*********************+++++************     *********************",
"*********************+++++************     *********************",
"*******************+++@@@+*************+%%&*********************",
"*******************+++++++*************+@@@++*******************",
"*******************+++++++*************+@@@++*******************",
"*********************    **************+     *******************",
"***************************************+   +++******************",
"***************************************+     +******************",
"***************************************+     +******************",
"****************************************     *******************",
"****************************************************************",
"****************************************************************",
"****************************************************************",
"****************************************************************"
};
