/* XPM */
static char *result[] = {
/* columns rows colors chars-per-pixel */
"64 64 13 1 ",
"  c gray3",
". c #712200",
"X c #2C412E",
"o c #4C614F",
"O c #E40000",
"+ c #F6933E",
"@ c #0000A7",
"# c #0052B6",
"$ c #9A9087",
"% c #FED798",
"& c #CAC0B7",
"* c #FBE7DF",
"= c None",
/* pixels */
"================================================================",
"================================================================",
"================================================================",
"================================================================",
"================================================================",
"================================================================",
"===============================oo===============================",
"=============================ooo===$$$o=========================",
"=============================ooo===$$$o=========================",
"=========================o==o&&&o$$$&&$o========================",
"=========================ooo&&&&$$$&&&o=========================",
"=========================o$$&&&&&$$&&&$&oo======================",
"=========================o$$&&&&&$$&&&$&oo======================",
"=========================o$$&&&&&&&&&&&o========================",
"=========================o$$$&&$$$$$$$ $========================",
"=========================o$$$&&$$$$$$$ $========================",
"==========================oo@@@@###***oo========================",
"======================   =@@@@@@###&&&.=========================",
"========================X oo@%%.$** $$.=========================",
"========================X oo@%%.$** $$.=========================",
"========================#    ++.$+++%%.=========================",
"======================== X  $  X######@=========================",
"======================###@==     XX@##@=========================",
"======================###@==     XX@##@=========================",
"============================ oooo  X  ==========================",
"============================ $$$      ==========================",
"============================ $$$      ==========================",
"==========================   oo$$XX$   =========================",
"==========================  X   X  ooo =========================",
"==========================OOXXXOO   && =========================",
"==========================OOXXXOO   && =========================",
"==========================OOX@@OO   $$ =========================",
"==========================  X####$$ooo  ========================",
"==========================  X####$$ooo  ========================",
"=========================o  X####$$   $ ========================",
"========================o$$$oXX##XXX$$o ========================",
"========================o$ooo  #X++%XX =========================",
"========================o$ooo  #X++%XX =========================",
"========================oo$$o  X ++     ========================",
"========================o$$$o      ###+ ========================",
"========================o$$$o      ###+ ========================",
"=========================oooXXXX   #+++ ========================",
"==========================  $###X  +++Xo========================",
"==========================  #&&@#XXX  $oXX======================",
"==========================  #&&@#XXX  $oXX======================",
"==========================  &###$  o$$oXXX======================",
"=========================XXXX##$X   @@@XXX======================",
"=========================XXXX##$X   @@@XXX======================",
"=========================X@@@@@XX  @@@XXXX======================",
"========================= @@#XXX=XXXXXXX========================",
"======================== $XXXXX==XXXXXXX========================",
"======================== $XXXXX==XXXXXXX========================",
"======================  $&** ====== $$$ ========================",
"=====================   @&  =======X$$$ ========================",
"=====================   @&  =======X$$$ ========================",
"=====================@@@@@========= XXXXXX======================",
"===================== @@@#@@======= XXXX++X=====================",
"======================  @#%%@====== XXX XXX=====================",
"======================  @#%%@====== XXX XXX=====================",
"========================     ===================================",
"================================================================",
"================================================================",
"================================================================",
"================================================================"
};
