/* XPM */
static char *result[] = {
/* columns rows colors chars-per-pixel */
"64 64 12 1 ",
"  c gray3",
". c #2C412E",
"X c #4C614F",
"o c #E40000",
"O c #F6933E",
"+ c #0000A7",
"@ c #0052B6",
"# c #9A9087",
"$ c #FED798",
"% c #CAC0B7",
"& c #FBE7DF",
"* c None",
/* pixels */
"****************************************************************",
"****************************************************************",
"****************************************************************",
"****************************************************************",
"****************************************************************",
"****************************************************************",
"****************************************************************",
"****************************************************************",
"****************************************************************",
"********************************XX******************************",
"***************************X***#XX**XXX*************************",
"***************************X***#XX**XXX*************************",
"*************************XX#*XX%XX*X##X*************************",
"*************************XX%X%%%XXX%XX**************************",
"*************************XX%X%%%XXX%XX**************************",
"************************X##%#%%%##%#XX**************************",
"************************X##%%%%%%%####X  ***********************",
"*************************   #%%#%%#XXX *************************",
"*************************   #%%#%%#XXX *************************",
"*************************  @   X%%X#  **************************",
"***********************    @&## XXX $$ *************************",
"*********************** $  O#&&&###+OO *************************",
"*********************** $  O#&&&###+OO *************************",
"************************O  & $$$XXX+  **************************",
"*************************  O$@@@$$O      ***********************",
"*************************  O$@@@$$O      ***********************",
"*********************      .+@@@++.   ### **********************",
"******************** ### XX .+++.. XXX### **********************",
"******************** ### ##  ...   #XX   o**********************",
"******************** ### ##  ...   #XX   o**********************",
"********************o   X##        #%% ++oo*********************",
"******************  o++ %##XXXXXXXX#XX   +@  *******************",
"******************  o++ %##XXXXXXXX#XX   +@  *******************",
"******************  ... #  % XXX  % ##   ..  *******************",
"***************** @@@..*#  # XXX  # ##***  +++******************",
"***************** @@$  * XXXXXXXXXXX  **** $$.******************",
"***************** @@$  * XXXXXXXXXXX  **** $$.******************",
"**************** O  O  *   ##XXX###   **** ..@******************",
"***************** ** *** ##XX   XXX#   ** $..$@@****************",
"***************** ** *** ##XX   XXX#   ** $..$@@****************",
"***********************    ##XXX###    ** O  O  ****************",
"*********************** +++. +++  .+++   *    ******************",
"*********************  %&&&%+++ ..+@@@   ***********************",
"*********************  %&&&%+++ ..+@@@   ***********************",
"*********************  +####%   ++@ +++++.**********************",
"*********************##&&%%+#     @ ++++++**********************",
"*********************##&&%%+#     @ ++++++**********************",
"********************.++++  #******  ++++++**********************",
"********************+++++  ********    +++**********************",
"*********************+++.  *********  +++***********************",
"*********************+++.  *********  +++***********************",
"***********************    *********++++++**********************",
"***********************&%++*********++OOO+**********************",
"***********************&%++*********++OOO+**********************",
"*********************++&%++***********+++***********************",
"*********************++++++*************************************",
"********************+++@@++*************************************",
"********************+++@@++*************************************",
"********************+OO$O++*************************************",
"*********************    ***************************************",
"****************************************************************",
"****************************************************************",
"****************************************************************",
"****************************************************************"
};
