/* XPM */
static char *result[] = {
/* columns rows colors chars-per-pixel */
"64 64 13 1 ",
"  c gray3",
". c #712200",
"X c #2C412E",
"o c #4C614F",
"O c #E40000",
"+ c #F6933E",
"@ c #0000A7",
"# c #0052B6",
"$ c #9A9087",
"% c #FED798",
"& c #CAC0B7",
"* c #FBE7DF",
"= c None",
/* pixels */
"================================================================",
"================================================================",
"================================================================",
"================================================================",
"================================================================",
"================================================================",
"===============================oo===============================",
"=========================o$$$===ooo=============================",
"========================o$&&$$$o&&&o==o=========================",
"========================o$&&$$$o&&&o==o=========================",
"=========================o&&&$$$&&&&ooo=========================",
"======================oo&$&&&$$&&&&&$$o=========================",
"========================o&&&&&&&&&&&$$o=========================",
"========================o&&&&&&&&&&&$$o=========================",
"========================$ $$$$$&$&&$$$o=========================",
"========================oo**&##$$@@@oo==========================",
"========================oo**&##$$@@@oo==========================",
"=========================.&&*&&#@@@@@@=   ======================",
"=========================.$$&&&#.%%@oo X========================",
"=========================.++####.++    #========================",
"=========================.++####.++    #========================",
"=========================@##### X  $  X ========================",
"=========================@##@XX     ==@###======================",
"=========================@##@XX     ==@###======================",
"==========================  X  oooo ============================",
"==========================      $$$ ============================",
"=========================   $XX$$oo   ==========================",
"=========================   $XX$$oo   ==========================",
"========================= ooo  X   X  ==========================",
"========================= &&   OOXXXOO==========================",
"========================= &&   OOXXXOO==========================",
"========================= $$   OO@@XOO==========================",
"========================  ooo$$####X  ==========================",
"======================== $   $$####X  o=========================",
"======================== $   $$####X  o=========================",
"======================== o$$XXX##XXo$$$o========================",
"========================= XX%++X#  ooo$o========================",
"========================= XX%++X#  ooo$o========================",
"========================     ++ X  o$$oo========================",
"======================== +###      o$$$o========================",
"======================== +++#   XXXXooo=========================",
"======================== +++#   XXXXooo=========================",
"========================oX+++  X###@  ==========================",
"======================XXo$  XXX#####  ==========================",
"======================XXo$  XXX#####  ==========================",
"======================XXXo$$o  #####  ==========================",
"======================XXX@@@   X###@XXX=========================",
"======================XXXX@@@  XX@@@@@X=========================",
"======================XXXX@@@  XX@@@@@X=========================",
"========================XXXXXXX=XXX#@@ =========================",
"========================XXXXXXX==XXXXX$ ========================",
"======================== $$$ ====== **&$  ======================",
"======================== $$$ ====== **&$  ======================",
"======================== $$$X=======  &@   =====================",
"======================XXXXXX =========@@@@@=====================",
"======================XXXXXX =========@@@@@=====================",
"=====================X++XXXX =======@@#@@@ =====================",
"=====================XXX XXX ======@%%#@  ======================",
"===================================     ========================",
"===================================     ========================",
"================================================================",
"================================================================",
"================================================================",
"================================================================"
};
