/* XPM */
static char *result[] = {
/* columns rows colors chars-per-pixel */
"64 64 13 1 ",
"  c gray3",
". c #712200",
"X c #2C412E",
"o c #4C614F",
"O c #E40000",
"+ c #F6933E",
"@ c #0000A7",
"# c #0052B6",
"$ c #9A9087",
"% c #FED798",
"& c #CAC0B7",
"* c #FBE7DF",
"= c None",
/* pixels */
"================================================================",
"================================================================",
"================================================================",
"================================================================",
"================================================================",
"================================================================",
"=========================ooo$===ooo=============================",
"=========================$&&&$oo&ooo============================",
"======================$$&o$$&&$$&&&o=oo=========================",
"======================$$&o$$&&$$&&&o=oo=========================",
"========================o$&&&&&&&&&&ooo=========================",
"========================$&&&&&&&&&&&$oo=========================",
"======================$$& $$$$&&$&&$$oo=========================",
"======================$$& $$$$&&$&&$$oo=========================",
"========================oo**&#$$$@@@ooo=========================",
"=========================.&&*&##@@@@@===========================",
"=========================.&&*&##@@@@@===========================",
"=========================$$$&&##.%%@@  X========================",
"=========================.++####.++    #  ======================",
"=========================@####  X  $ XX=========================",
"=========================@####  X  $ XX=========================",
"=========================@##@X       @@#========================",
"==========================  X ooooo =  @@@======================",
"==========================  X ooooo =  @@@======================",
"==========================      $$$ ============================",
"=========================   $$  $$$o ===========================",
"========================= oooo  @XX  ===========================",
"========================= oooo  @XX  ===========================",
"========================= && o  OOOX ===========================",
"========================= $$ o  OOO@ ===========================",
"========================= $$ o  OOO@ ===========================",
"========================  ooo $$###@ ===========================",
"======================== $    $$###X oo=========================",
"======================== o$$oo$$#@@Xo&&o========================",
"======================== o$$oo$$#@@Xo&&o========================",
"========================= ooo$XXX@@ oooo========================",
"=========================     %%+XX o&&o========================",
"=========================     %%+XX o&&o========================",
"========================= @@ +###...o$$o========================",
"========================= @@ %++#  Xooo=========================",
"==========================   X+++  X ===========================",
"==========================   X+++  X ===========================",
"==========================  @ XXX  X============================",
"==========================  ####@@@X============================",
"==========================  ####@@@X============================",
"==========================  @####@@=============================",
"============================ ####@@ ============================",
"============================X@XXXXX ============================",
"============================X@XXXXX ============================",
"============================XX##@XX ============================",
"============================X$XXX  =============================",
"============================X$  $&& ============================",
"============================X$  $&& ============================",
"==========================XXXX  $&& ============================",
"=========================XXX@@@@@@@@============================",
"=========================XXX@@@@@@@@============================",
"=========================X++@@##@@@@============================",
"==========================XX@+##@@@@============================",
"============================       =============================",
"============================       =============================",
"================================================================",
"================================================================",
"================================================================",
"================================================================"
};
