/* XPM */
static char *result[] = {
/* columns rows colors chars-per-pixel */
"64 64 13 1 ",
"  c gray3",
". c #2C412E",
"X c #4C614F",
"o c #E40000",
"O c #9E7653",
"+ c #F6933E",
"@ c #0000A7",
"# c #0052B6",
"$ c #9A9087",
"% c #FED798",
"& c #CAC0B7",
"* c #FBE7DF",
"= c None",
/* pixels */
"================================================================",
"================================================================",
"================================================================",
"================================================================",
"================================================================",
"================================================================",
"================================================================",
"============================XXX=================================",
"============================X$$X==X=============================",
"========================XXXX=XX&XXXX============================",
"========================XXXX=XX&XXXX============================",
"========================X$$&XXX&&&X$XX==========================",
"========================X$$&&$$&&&$&XX==========================",
"========================X$$&&$$&&&$&XX==========================",
"=========================XX$$&&&&&&&$$X=========================",
"========================X$$X$$$&$$$$$$X=========================",
"======================XXXXX$$$$$$$..$$X=========================",
"======================XXXXX$$$$$$$..$$X=========================",
"=========================XX $$$$..#.  X=========================",
"========================    ........    ========================",
"========================    ........    ========================",
"======================== %%@...$##..  % ========================",
"=========================   #.....$$   =========================",
"=========================== #.......  ==========================",
"=========================== #.......  ==========================",
"======================     ..$$$$$$$XX    ======================",
"===================== $$$$$X$XXXXXX$XX$$$$ =====================",
"===================== $$$$$X$XXXXXX$XX$$$$ =====================",
"===================== $$$$$X$XXXXXX$XX$$$$ =====================",
"=====================o   $$&X$$$$$$X&&$   o=====================",
"=====================o@@ XXXXXXXXXXXXXX ## =====================",
"=====================o@@ XXXXXXXXXXXXXX ## =====================",
"==================== #@@ $$$X  ooo X$$$ @@#  ===================",
"==================== #@@ XX$X  ooo X$$X ..#  ===================",
"==================== #@@ XX$X  ooo X$$X ..#  ===================",
"==================  #@..   XXXX   XXXX  @@@..===================",
"==================  #.   $$ $$$$$$$$  $ ..@..===================",
"==================  @@.. $$$XXXXXXXX$$$ ###  ===================",
"==================  @@.. $$$XXXXXXXX$$$ ###  ===================",
"==================  .@..   X$$$$$$$$XX  %%#   ==================",
"==================  ##  &&&&            ++ ++ ==================",
"================= ++#    &&    @@@ .@@@   =  ===================",
"================= ++#    &&    @@@ .@@@   =  ===================",
"================= ++ ===O  O ......@@@.@========================",
"==================  ==== OO@@@@   $$&&&@@@======================",
"==================  ==== OO@@@@   $$&&&@@@======================",
"========================.@@..  =  XX$$$@@@======================",
"========================.@@@@  ===$$&&& @@======================",
"=========================      === @@@@.@@======================",
"=========================      === @@@@.@@======================",
"=========================@@$$@@=== .@@@.========================",
"=========================@@$$@@===    @=========================",
"=========================@@$$@@===    @=========================",
"=========================@@@@@@===@&**@=========================",
"=========================@@##@@===@&**@=========================",
"=========================####@@===@@@@@=========================",
"=========================####@@===@@@@@=========================",
"===========================  =====@###@=========================",
"==================================@    =========================",
"==================================@    =========================",
"===================================    =========================",
"================================================================",
"================================================================",
"================================================================"
};
