/* XPM */
static char *result[] = {
/* columns rows colors chars-per-pixel */
"64 64 13 1 ",
"  c gray3",
". c #2C412E",
"X c #4C614F",
"o c #E40000",
"O c #9E7653",
"+ c #F6933E",
"@ c #0000A7",
"# c #0052B6",
"$ c #9A9087",
"% c #FED798",
"& c #CAC0B7",
"* c #FBE7DF",
"= c None",
/* pixels */
"================================================================",
"================================================================",
"================================================================",
"================================================================",
"================================================================",
"================================================================",
"================================================================",
"================================================================",
"==============================XX================================",
"=========================XXX==XX$==XX===========================",
"=========================X$$X=XX&XXX$XX=========================",
"=========================X$$X=XX&XXX$XX=========================",
"=========================X$$&XXX&XXX&XX=========================",
"========================XX$$&$$$&$$X&XX=========================",
"========================XX$$&$$$&$$X&XX=========================",
"======================  X&XX$$$$$...$XX=========================",
"======================== X$$$$$$.##.$XX=========================",
"=========================X  $$$$.##. XX=========================",
"=========================X  $$$$.##. XX=========================",
"========================    ........    ========================",
"======================== %@@..$$#... %% ========================",
"======================== %@@..$$#... %% ========================",
"=========================   #....$$$   =========================",
"======================      ........ ===========================",
"===================== $$$ XX.$$$$$$$X     ======================",
"===================== $$$ XX.$$$$$$$X     ======================",
"===================== $$$XXX .@@@.. X  $$$ =====================",
"=====================o   $&&X$$$$$$X&$$$$$ =====================",
"=====================o   $&&X$$$$$$X&$$$$$ =====================",
"===================ooo@@ XXXXXXXXXXXXXX   o=====================",
"================== ##@   $$$X ooo  X$$$ @@o ====================",
"================== ...   X$$X ooo  X$XX ... ====================",
"================== ...   X$$X ooo  X$XX ... ====================",
"=================@@   === XXXX   XXXX  =..##  ==================",
"=================.%  ====$  $$$$$$$$ $$=  %#  ==================",
"=================.%  ====$  $$$$$$$$ $$=  %#  ==================",
"=================#.  ====$$$XXXXXXXX$$$=  + ++ =================",
"===============##%.%% ==X&&&&&XX$$$$X  === =  ==================",
"===============  + ++ == X&&&X          ========================",
"===============  + ++ == X&&&X          ========================",
"=================    =  O$XXX$@@@  .@@@ ========================",
"=====================.@@@@$$$.  @    $$$XX======================",
"=====================.@@@@$$$.  @    $$$XX======================",
"=====================@@@@@  #@     $$&&&$$======================",
"=====================.@@@@  ====   $&&&&$$======================",
"======================    =========$$      =====================",
"======================    =========$$      =====================",
"======================**&@========== @@@@@@=====================",
"=====================@**&@========== ..@@@.=====================",
"=====================@@@@@===========      =====================",
"=====================@@@@@===========      =====================",
"===================@@@###@=============@&&*=====================",
"===================@@@@@@@=============@###@====================",
"===================@@@@@@@=============@###@====================",
"=====================    ==============@   @====================",
"=======================================@   @@@==================",
"=======================================@   @@@==================",
"=======================================@   @@@==================",
"========================================    ====================",
"================================================================",
"================================================================",
"================================================================",
"================================================================",
"================================================================"
};
