/* XPM */
static char *result[] = {
/* columns rows colors chars-per-pixel */
"64 64 15 1 ",
"  c gray3",
". c #712200",
"X c #2C412E",
"o c #4C614F",
"O c #E40000",
"+ c #F6933E",
"@ c #0000A7",
"# c #0052B6",
"$ c #6EBAFE",
"% c #9A9087",
"& c #FED798",
"* c #CAC0B7",
"= c #EBD7CF",
"- c #FBE7DF",
"; c None",
/* pixels */
";;;;;;;;;;;;;;;;;;;;;;;;;;;;;;;;;;;;;;;;;;;;;;;;;;;;;;;;;;;;;;;;",
";;;;;;;;;;;;;;;;;;;;;;;;;;;;;;;;;;;;;;;;;;;;;;;;;;;;;;;;;;;;;;;;",
";;;;;;;;;;;;;;;;;;;;;;;;;;;;;;;;;;;;;;;;;;;;;;;;;;;;;;;;;;;;;;;;",
";;;;;;;;;;;;;;;;;;;;;;;;;;;;;;;;;;;;;;;;;;;;;;;;;;;;;;;;;;;;;;;;",
";;;;;;;;;;;;;;;;;;;;;;;;;;;;;;;;;;;;;;;;;;;;;;;;;;;;;;;;;;;;;;;;",
";;;;;;;;;;;;;;;;;;;;;;;;;;;;;;;;;;;;;;;;;;;;;;;;;;;;;;;;;;;;;;;;",
";;;;;;;;;;;;;;;;;;;;;;;;;;;;;;;;;;;;;;;;;;;;;;;;;;;;;;;;;;;;;;;;",
";;;;;;;;;;;;;;;;;;;;;;;;;;;;;;;;;;;;;;;;;;;;;;;;;;;;;;;;;;;;;;;;",
";;;;;;;;;;;;;;;;;;;;;;;;;;;;;;;;;;;;;;;;;;;;;;;;;;;;;;;;;;;;;;;;",
";;;;;;;;;;;;;;;;;;;;;;;;;;;;;;;;;;;;;;;;;;;;;;;;;;;;;;;;;;;;;;;;",
";;;;;;;;;;;;;;;;;;;;;;;;;;;;;;;;;;;;;;;;;;;;;;;;;;;;;;;;;;;;;;;;",
";;;;;;;;;;;;;;;;;;;;;;;;;;;;;;oooo;;;;;;;;;;;;;;;;;;;;;;;;;;;;;;",
";;;;;;;;;;;;;;;;;;;;;;;;;oo;;o***%oo;;;;;;;;;;;;;;;;;;;;;;;;;;;;",
";;;;;;;;;;;;;;;;;;;;;;;oo%o%%***%o;;;;;;;;;;;;;;;;;;;;;;;;;;;;;;",
";;;;;;;;;;;;;;;;;;;;;;;oo%o%%***%o;;;;;;;;;;;;;;;;;;;;;;;;;;;;;;",
";;;;;;;;;;;;;;;;;;;;;;o%%*%***%%%ooooo;;;;;;;;;;;;;;;;;;;;;;;;;;",
";;;;;;;;;;;;;;;;;;;;;;o**%%**%%%%****%oo;;;;;;;;;;;;;;;;;;;;;;;;",
";;;;;;;;;;;;;;;;;;;;;;o**%%**%%%%****%oo;;;;;;;;;;;;;;;;;;;;;;;;",
";;;;;;;;;;;;;;;;;;;;oo%**%*%%%****oooo;;;;;;;;;;;;;;;;;;;;;;;;;;",
";;;;;;;;;;;;;;;;;;;;oo%**%*%%***%%oo;;;;;;;;;;;;;;;;;;;;;;;;;;;;",
";;;;;;;;;;;;;-----;;ooo%%%###@@@@o   ####;;;;;;;;;;;;;;;;;;;;;;;",
";;;;;;;;;;;;;-----;;ooo%%%###@@@@o   ####;;;;;;;;;;;;;;;;;;;;;;;",
";;;;;;;;;;;--***;;;;ooo---###@@@@@  X ;;   ;;;;;;;;;;;;;;;;;;;;;",
";;;;;;;;---**;;;....;;.***#%%.&&@@  ##;;;;;;;;;;;;;;;;;;;;;;;;;;",
";;;;;;;;---**;;;....;;.***#%%.&&@@  ##;;;;;;;;;;;;;;;;;;;;;;;;;;",
";;;;;;-----*;;;.++&+..     %%.++  XX;#  ;;;;;;;;;;;;;;;;;;;;;;;;",
";;;;;;-----;;;;.++ ###          %%%%%;;;;;;;;;;;;;;;;;;;;;;;;;;;",
";;;;;;------;;;   ##  #OO %%%o%%ooooo ;;;;;;;;;;;;;;;;;;;;;;;;;;",
";;;;;;------;;;   ##  #OO %%%o%%ooooo ;;;;;;;;;;;;;;;;;;;;;;;;;;",
";;;;;;;;-----;;;   #  #OOO#  oooo   o @@;;;;;;;;;;;;;;;;;;;;;;;;",
";;;;;;;;;-------;;;    ####  o   OOO  ##@;;;;;;;;;;;;;;;;;;;;;;;",
";;;;;;;;;;;=========$$$       %%oOOO  ###@@;;;;;;;;;;;;;;;;;;;;;",
";;;;;;;;;;;=========$$$       %%oOOO  ###@@;;;;;;;;;;;;;;;;;;;;;",
";;;;;;;;;;;;;=========$$$$ %% %%%   o   #@@;;;;;;;;;;;;;;;;;;;;;",
";;;;;;;;;;;;;;;;==========oooooooooooo  @@@;;;;;;;;;;;;;;;;;;;;;",
";;;;;;;;;;;;;;;;==========oooooooooooo  @@@;;;;;;;;;;;;;;;;;;;;;",
";;;;;;;;;;;;;;;;;;;**********o       o   ;;;;;;;;;;;;;;;;;;;;;;;",
";;;;;;;;;;;;;;;;;;;;;;;;;  ooX***%%%Xo  ;;;;;;;;;;;;;;;;;;;;;;;;",
";;;;;;;;;;;;;;;;;;;;;;;;; %  XXX*%XXX oo ;;;;;;;;;;;;;;;;;;;;;;;",
";;;;;;;;;;;;;;;;;;;;;;;;; %  XXX*%XXX oo ;;;;;;;;;;;;;;;;;;;;;;;",
";;;;;;;;;;;;;;;;;;;;;;;;; o%%X%%XX%%Xooo ;;;;;;;;;;;;;;;;;;;;;;;",
";;;;;;;;;;;;;;;;;;;;;;;    ooXXX%%XXo   ;;;;;;;;;;;;;;;;;;;;;;;;",
";;;;;;;;;;;;;;;;;;;;;;;    ooXXX%%XXo   ;;;;;;;;;;;;;;;;;;;;;;;;",
";;;;;;;;;;;;;;;;;;;;;;   ##          ###   ;;;;;;;;;;;;;;;;;;;;;",
";;;;;;;;;;;;;;;;;;;;;; ###    @@@@@@##@@@   ;;;;;;;;;;;;;;;;;;;;",
";;;;;;;;;;;;;;;;;;;;;;   @@      X@@@@###### ;;;;;;;;;;;;;;;;;;;",
";;;;;;;;;;;;;;;;;;;;;;   @@      X@@@@###### ;;;;;;;;;;;;;;;;;;;",
";;;;;;;;;;;;;;;;;;;;;;;   @     ;;  @@@@@###@;;;;;;;;;;;;;;;;;;;",
";;;;;;;;;;;;;;;;;;;;;;;;; @   ;;;;;;;    @@ %  ;;;;;;;;;;;;;;;;;",
";;;;;;;;;;;;;;;;;;;;;;;;; @   ;;;;;;;    @@ %  ;;;;;;;;;;;;;;;;;",
";;;;;;;;;;;;;;;;;;;;;;;;;; %%%  ;;;;;;;;    %**    ;;;;;;;;;;;;;",
";;;;;;;;;;;;;;;;;;;;;;;;;; %%%  ;;;;;;;;;;;; %% ###  ;;;;;;;;;;;",
";;;;;;;;;;;;;;;;;;;;;;;;;;;@@@@@ ;;;;;;;;;;;;   ##@  ;;;;;;;;;;;",
";;;;;;;;;;;;;;;;;;;;;;;;;;;@@@@@ ;;;;;;;;;;;;   ##@  ;;;;;;;;;;;",
";;;;;;;;;;;;;;;;;;;;;;;;;;@##    ;;;;;;;;;;;;;; @@   ;;;;;;;;;;;",
";;;;;;;;;;;;;;;;;;;;;;;;;@+      ;;;;;;;;;;;;;; @@   ;;;;;;;;;;;",
";;;;;;;;;;;;;;;;;;;;;;;;;@+      ;;;;;;;;;;;;;; @@   ;;;;;;;;;;;",
";;;;;;;;;;;;;;;;;;;;;;;;;     ;;;;;;;;;;;;;;;  +@@ ;;;;;;;;;;;;;",
";;;;;;;;;;;;;;;;;;;;;;;;;;;;;;;;;;;;;;;;;;;;;      ;;;;;;;;;;;;;",
";;;;;;;;;;;;;;;;;;;;;;;;;;;;;;;;;;;;;;;;;;;;;;;;;;;;;;;;;;;;;;;;",
";;;;;;;;;;;;;;;;;;;;;;;;;;;;;;;;;;;;;;;;;;;;;;;;;;;;;;;;;;;;;;;;",
";;;;;;;;;;;;;;;;;;;;;;;;;;;;;;;;;;;;;;;;;;;;;;;;;;;;;;;;;;;;;;;;",
";;;;;;;;;;;;;;;;;;;;;;;;;;;;;;;;;;;;;;;;;;;;;;;;;;;;;;;;;;;;;;;;",
";;;;;;;;;;;;;;;;;;;;;;;;;;;;;;;;;;;;;;;;;;;;;;;;;;;;;;;;;;;;;;;;"
};
