/* XPM */
static char *result[] = {
/* columns rows colors chars-per-pixel */
"64 64 13 1 ",
"  c gray3",
". c #2C412E",
"X c #4C614F",
"o c #E40000",
"O c #F6933E",
"+ c #0000A7",
"@ c #0052B6",
"# c #6EBAFE",
"$ c #9A9087",
"% c #FED798",
"& c #CAC0B7",
"* c #FBE7DF",
"= c None",
/* pixels */
"================================================================",
"================================================================",
"================================================================",
"================================================================",
"================================================================",
"===============================XX===============================",
"===============================XX===============================",
"==========================X===XXX==XXXX=========================",
"========================XXX=XX&XX=X&&X==========================",
"========================XXX=XX&XX=X&&X==========================",
"========================XX$XXX&&&X$$$X==========================",
"========================XX$&$$&&&$&XXX==========================",
"========================XX$&&&&&&&$$$XX  =======================",
"========================XX$&&&&&&&$$$XX  =======================",
"========================XX  $$&$$&$XX$ =========================",
"========================== @   XX&X$$X==========================",
"========================== @   XX&X$$X==========================",
"========================   @**$  XX   ==========================",
"======================= %% O$$***$$++% =========================",
"======================= OO *  %%%XX++O =========================",
"======================= OO *  %%%XX++O =========================",
"========================   O%%@@@%O   ==========================",
"========================== .++@@@+.  ===========================",
"========================== .++@@@+.  ===========================",
"=====================     X ..+++. XX    =======================",
"==================== $$$XX$   ...  $$X$$$ ======================",
"==================== $$$XX$   ...  $$X$$$ ======================",
"==================== $$$XX$   ...  $$X$$$ ======================",
"====================o   &&$X      X$$&   o======================",
"====================ooo XX$$$$XXX$$$$X ++o======================",
"==================== @@ $$ &  XXX &   +@@ ======================",
"==================== @@ $$ &  XXX &   +@@ ======================",
"==================== .. $$ $  XXX $   +@@ ======================",
"===================.+++   XXXXXXXXXXX  ..+  ====================",
"===================.+++   XXXXXXXXXXX  ..+  ====================",
"===================.+..#   $$$XXX$$    ..   ====================",
"=================== @@@#  $XXXXXXXX$$ #+++  ====================",
"=================== @%%   X$$$XXX$$XX .++.  ====================",
"=================== @%%   X$$$XXX$$XX .++.  ====================",
"===================O OO                @@@  ====================",
"=================== =   +++.  +++ .++@%  O  ====================",
"=================== =   +++.  +++ .++@%  O  ====================",
"=====================++&&&*&$$+  .+@@@O  O  ====================",
"=====================+++$$$$$$   +@@@@    ======================",
"=====================++&&&*&$$    ++++ =========================",
"=====================++&&&*&$$    ++++ =========================",
"=======================+  @@++.== +++ ==========================",
"========================..++++ ==    ===========================",
"========================..++++ ==    ===========================",
"========================..++..===X$XX===========================",
"==========================    ===X$XX+==========================",
"==========================*&++===+++++==========================",
"==========================*&++===+++++==========================",
"========================++*&++===+@@@+==========================",
"========================++++++===+OOO+==========================",
"========================++++++===+OOO+==========================",
"=======================+++@@++====   ===========================",
"=======================+OO%O++==================================",
"========================    ====================================",
"========================    ====================================",
"================================================================",
"================================================================",
"================================================================",
"================================================================"
};
