/* XPM */
static char *result[] = {
/* columns rows colors chars-per-pixel */
"64 64 13 1 ",
"  c gray3",
". c #7B1900",
"X c #26422C",
"o c #46624D",
"O c #F90000",
"+ c #FF8D1C",
"@ c #0000AE",
"# c #0054BD",
"$ c #9C9086",
"% c #FFD58E",
"& c #CCC0B6",
"* c #FFE6DE",
"= c None",
/* pixels */
"================================================================",
"================================================================",
"================================================================",
"================================================================",
"================================================================",
"================================================================",
"================================oooo============================",
"================================oooo============================",
"============================oo==o$$&o===o=======================",
"============================o$ooooo$&ooo&oo=====================",
"============================o$ooooo$&ooo&oo=====================",
"=========================ooooo$$$oo$&&&o$oo=====================",
"==========================oo$o$$$&&&&&&&&$$o====================",
"============================o$$$$$$&$&&&&$$o====================",
"============================o$$$$$$&$&&&&$$o====================",
"=========================###=ooo$$$$&$$&&$$o====================",
"==========================  #=@@@@@#$$$$$oo=====================",
"==========================  #=@@@@@#$$$$$oo=====================",
"=======================  #==  @@@@@##****oo=====================",
"========================= ### @@%..$#&&&&..=====================",
"============================ X  +..$*  $$..=====================",
"============================ X  +..$*  $$..=====================",
"==========================   @$$ XX#+++##..=====================",
"========================= $$&   $   #####=======================",
"========================= $$&   $   #####=======================",
"=======================###  $$ooo    ### =======================",
"======================       ooo $$$     =======================",
"=====================  OOO      ooooo  $ =======================",
"=====================  OOO      ooooo  $ =======================",
"=====================  OOO   o$$ &&o && #  =====================",
"===================== ###### o$$ $$o $$ #  =====================",
"====================== ##### ooo ooo oo ### ====================",
"====================== ##### ooo ooo oo ### ====================",
"======================o@@####                 ==================",
"=====================o&@@XXX  oo$$$$ $$  ++o   =================",
"=====================o&@@XXX  oo$$$$ $$  ++o   =================",
"=====================ooXX+%% o  ooo      oo ++ =================",
"=====================o&  .###+  $$$$ $$     %% =================",
"=====================o$  ###+%             %++ =================",
"=====================o$  ###+%             %++ =================",
"======================o  #+++X     @@###      ==================",
"======================XXX XXX @@    @@@##  =====================",
"======================XXX XXX @@    @@@##  =====================",
"=====================XX#####@@@@XXX  @@@@  =====================",
"=====================X###@@@@@  ===X   @@  =====================",
"===================XX##@@@@@  =====X   X =======================",
"===================XX##@@@@@  =====X   X =======================",
"===================XX#       ====XX  XX ========================",
"=====================       =====XX  XX=========================",
"=====================       =====XX  XX=========================",
"===================oo&$  ======= oo$ ===========================",
"==================o&&$o========= oo$ ===========================",
"================  &$$o========  @@@@============================",
"================  &$$o========  @@@@============================",
"=============== @@   =========@@@@@#@===========================",
"=============== @@@@@@========   @@++@@=========================",
"=============== @@@@@@========   @@++@@=========================",
"=============== @@+++%@=========       =========================",
"================@@@@@@@=========================================",
"================================================================",
"================================================================",
"================================================================",
"================================================================",
"================================================================"
};
