/* XPM */
static char *result[] = {
/* columns rows colors chars-per-pixel */
"64 64 13 1 ",
"  c gray3",
". c #2C412E",
"X c #4C614F",
"o c #E40000",
"O c #F6933E",
"+ c #0000A7",
"@ c #0052B6",
"# c #9A9087",
"$ c #FED798",
"% c #CAC0B7",
"& c #EBD7CF",
"* c #FBE7DF",
"= c None",
/* pixels */
"================================================================",
"================================================================",
"================================================================",
"================================================================",
"================================================================",
"================================================================",
"================================================================",
"================================================================",
"================================================================",
"===================================XXX==========================",
"===================================XXX==========================",
"============================XXX==XX#XX==========================",
"==========================XX#XX=X%%#==XXXX======================",
"==========================XX#XX=X%%#==XXXX======================",
"=========================X##%XXX%%%XXX%#XX======================",
"=========================X##%###%%%#%%#X========================",
"=========================X##%%%%%%%####XXX======================",
"=========================X##%%%%%%%####XXX======================",
"=================**=======   ##%#%%#XXXX  ======================",
"=================*%***====  @   X%%X##X ========================",
"==================*%%****   @**# XXX  $ ========================",
"==================*%%****   @**# XXX  $ ========================",
"==================**********O##**###++O ========================",
"===================&&**********@@$$O    ========================",
"===================&&**********@@$$O    ========================",
"===================&&&******%%%*$++.### ========================",
"=====================&&&&****%%%***$@@@   ======================",
"===================== &&&&******%%%***O@   =====================",
"===================== &&&&******%%%***O@   =====================",
"===================  o++&&&&&****%%%%%*+@@ =====================",
"================== ooo++ &&&&&&&&***%%%+@@ =====================",
"================== ooo++ &&&&&&&&***%%%+@@ =====================",
"=================.+++    #&&&&&&&&&****%  ======================",
"=================.+.. ===#  &&&&&&&&&&**========================",
"===============  @.  ==== XXX%%&&&&&&&%****=====================",
"===============  @.  ==== XXX%%&&&&&&&%****=====================",
"============== @@$ ======   ###X%&&&&&&%%%***===================",
"==============O  O =====  ##XXX  XX%%%&&=====**=================",
"==============O  O =====  ##XXX  XX%%%&&=====**=================",
"============== == ======    ###XX###    ========================",
"======================== +++.  ++  .+++   ======================",
"======================  %***%  + ..+@@@   ======================",
"======================  %***%  + ..+@@@   ======================",
"======================  #####%%  ++@  ++++.=====================",
"======================##**%%+##    @  +++++=====================",
"======================##**%%+##    @  +++++=====================",
"=====================.++++  #======   ++++.=====================",
"=====================+++++  ========  ##  ======================",
"======================+++.  ========== +++======================",
"======================+++.  ========== +++======================",
"========================    ==========+++++=====================",
"========================*%++==========+OOO+=====================",
"========================*%++==========+OOO+=====================",
"======================++*%++===========+++======================",
"======================++++++====================================",
"=====================+++@@++====================================",
"=====================+++@@++====================================",
"=====================+OO$O++====================================",
"======================    ======================================",
"================================================================",
"================================================================",
"================================================================",
"================================================================",
"================================================================"
};
