/* XPM */
static char *result[] = {
/* columns rows colors chars-per-pixel */
"64 64 15 1 ",
"  c gray3",
". c #7B1900",
"X c #26422C",
"o c #46624D",
"O c #F90000",
"+ c #FF8D1C",
"@ c #0000AE",
"# c #0054BD",
"$ c #50BCFF",
"% c #9C9086",
"& c #FFD58E",
"* c #CCC0B6",
"= c #EFD6CE",
"- c #FFE6DE",
"; c None",
/* pixels */
";;;;;;;;;;;;;;;;;;;;;;;;;;;;;;;;;;;;;;;;;;;;;;;;;;;;;;;;;;;;;;;;",
";;;;;;;;;;;;;;;;;;;;;;;;;;;;;;;;;;;;;;;;;;;;;;;;;;;;;;;;;;;;;;;;",
";;;;;;;;;;;;;;;;;;;;;;;;;;;;;;;;;;;;;;;;;;;;;;;;;;;;;;;;;;;;;;;;",
";;;;;;;;;;;;;;;;;;;;;;;;;;;;;;;;;;;;;;;;;;;;;;;;;;;;;;;;;;;;;;;;",
";;;;;;;;;;;;;;;;;;;;;;;;;;;;;;;;;;;;;;;;;;;;;;;;;;;;;;;;;;;;;;;;",
";;;;;;;;;;;;;;;;;;;;;;;;;;;;;;;;;;;;;;;;;;;;;;;;;;;;;;;;;;;;;;;;",
";;;;;;;;;;;;;;;;;;;;;;;;;;;;;;;;;;;;;;;;;;;;;;;;;;;;;;;;;;;;;;;;",
";;;;;;;;;;;;;;;;;;;;;;;;;;;;;;;;;;;;;;;;;;;;;;;;;;;;;;;;;;;;;;;;",
";;;;;;;;;;;;;;;;;;;;;;;;;;;;;;;;;;;;;;;;;;;;;;;;;;;;;;;;;;;;;;;;",
";;;;;;;;;;;;;;;;;;;;;;;;;;;;;;;;;;;;;;;;;;;;;;;;;;;;;;;;;;;;;;;;",
";;;;;;;;;;;;;;;;;;;;;;;;;;;;;;;;;;;;;;;;;;;;;;;;;;;;;;;;;;;;;;;;",
";;;;;;;;;;;;;;;;;;;;;;;;;;;;;;oooo;;;;;;;;;;;;;;;;;;;;;;;;;;;;;;",
";;;;;;;;;;;;;;;;;;;;;;;;;;;;oo%***o;;oo;;;;;;;;;;;;;;;;;;;;;;;;;",
";;;;;;;;;;;;;;;;;;;;;;;;;;;;;;o%***%%o%oo;;;;;;;;;;;;;;;;;;;;;;;",
";;;;;;;;;;;;;;;;;;;;;;;;;;;;;;o%***%%o%oo;;;;;;;;;;;;;;;;;;;;;;;",
";;;;;;;;;;;;;;;;;;;;;;;;;;ooooo%%%***%*%%o;;;;;;;;;;;;;;;;;;;;;;",
";;;;;;;;;;;;;;;;;;;;;;;;oo%****%%%%**%%**o;;;;;;;;;;;;;;;;;;;;;;",
";;;;;;;;;;;;;;;;;;;;;;;;oo%****%%%%**%%**o;;;;;;;;;;;;;;;;;;;;;;",
";;;;;;;;;;;;;;;;;;;;;;;;;;oooo****%%%*%**%oo;;;;;;;;;;;;;;;;;;;;",
";;;;;;;;;;;;;;;;;;;;;;;;;;;;oo%%***%%*%**%oo;;;;;;;;;;;;;;;;;;;;",
";;;;;;;;;;;;;;;;;;;;;;;####   o@@@@###%%%ooo;;-----;;;;;;;;;;;;;",
";;;;;;;;;;;;;;;;;;;;;;;####   o@@@@###%%%ooo;;-----;;;;;;;;;;;;;",
";;;;;;;;;;;;;;;;;;;;;   ;; X  @@@@@###---ooo;;;;***--;;;;;;;;;;;",
";;;;;;;;;;;;;;;;;;;;;;;;;;##  @@&&.%%#***.;;....;;;**---;;;;;;;;",
";;;;;;;;;;;;;;;;;;;;;;;;;;##  @@&&.%%#***.;;....;;;**---;;;;;;;;",
";;;;;;;;;;;;;;;;;;;;;;;;  #;XX  ++.%%     ..+&++.;;;*-----;;;;;;",
";;;;;;;;;;;;;;;;;;;;;;;;;;;%%%%%          ### ++.;;;;-----;;;;;;",
";;;;;;;;;;;;;;;;;;;;;;;;;; ooooo%%o%%% OO#  ##   ;;;------;;;;;;",
";;;;;;;;;;;;;;;;;;;;;;;;;; ooooo%%o%%% OO#  ##   ;;;------;;;;;;",
";;;;;;;;;;;;;;;;;;;;;;;;@@ o   oooo  #OOO#  #   ;;;-----;;;;;;;;",
";;;;;;;;;;;;;;;;;;;;;;;@##  OOO   o  ####    ;;;-------;;;;;;;;;",
";;;;;;;;;;;;;;;;;;;;;@@###  OOOo%%       $$$=========;;;;;;;;;;;",
";;;;;;;;;;;;;;;;;;;;;@@###  OOOo%%       $$$=========;;;;;;;;;;;",
";;;;;;;;;;;;;;;;;;;;;@@#   o   %%% %% $$$$=========;;;;;;;;;;;;;",
";;;;;;;;;;;;;;;;;;;;;@@@  oooooooooooo==========;;;;;;;;;;;;;;;;",
";;;;;;;;;;;;;;;;;;;;;@@@  oooooooooooo==========;;;;;;;;;;;;;;;;",
";;;;;;;;;;;;;;;;;;;;;;;   o       o**********;;;;;;;;;;;;;;;;;;;",
";;;;;;;;;;;;;;;;;;;;;;;;  oX%%%***Xoo  ;;;;;;;;;;;;;;;;;;;;;;;;;",
";;;;;;;;;;;;;;;;;;;;;;; oo XXX%*XXX  % ;;;;;;;;;;;;;;;;;;;;;;;;;",
";;;;;;;;;;;;;;;;;;;;;;; oo XXX%*XXX  % ;;;;;;;;;;;;;;;;;;;;;;;;;",
";;;;;;;;;;;;;;;;;;;;;;; oooX%%XX%%X%%o ;;;;;;;;;;;;;;;;;;;;;;;;;",
";;;;;;;;;;;;;;;;;;;;;;;;   oXX%%XXXoo    ;;;;;;;;;;;;;;;;;;;;;;;",
";;;;;;;;;;;;;;;;;;;;;;;;   oXX%%XXXoo    ;;;;;;;;;;;;;;;;;;;;;;;",
";;;;;;;;;;;;;;;;;;;;;   ###          ##   ;;;;;;;;;;;;;;;;;;;;;;",
";;;;;;;;;;;;;;;;;;;;   @@@##@@@@@@    ### ;;;;;;;;;;;;;;;;;;;;;;",
";;;;;;;;;;;;;;;;;;; ######@@@@X      @@   ;;;;;;;;;;;;;;;;;;;;;;",
";;;;;;;;;;;;;;;;;;; ######@@@@X      @@   ;;;;;;;;;;;;;;;;;;;;;;",
";;;;;;;;;;;;;;;;;;;@###@@@@@  ;;     @   ;;;;;;;;;;;;;;;;;;;;;;;",
";;;;;;;;;;;;;;;;;  % @@    ;;;;;;;   @ ;;;;;;;;;;;;;;;;;;;;;;;;;",
";;;;;;;;;;;;;;;;;  % @@    ;;;;;;;   @ ;;;;;;;;;;;;;;;;;;;;;;;;;",
";;;;;;;;;;;;;    **%    ;;;;;;;;  %%% ;;;;;;;;;;;;;;;;;;;;;;;;;;",
";;;;;;;;;;;  ### %% ;;;;;;;;;;;;  %%% ;;;;;;;;;;;;;;;;;;;;;;;;;;",
";;;;;;;;;;;  @##   ;;;;;;;;;;;; @@@@@;;;;;;;;;;;;;;;;;;;;;;;;;;;",
";;;;;;;;;;;  @##   ;;;;;;;;;;;; @@@@@;;;;;;;;;;;;;;;;;;;;;;;;;;;",
";;;;;;;;;;;   @@ ;;;;;;;;;;;;;;    ##@;;;;;;;;;;;;;;;;;;;;;;;;;;",
";;;;;;;;;;;   @@ ;;;;;;;;;;;;;;      +@;;;;;;;;;;;;;;;;;;;;;;;;;",
";;;;;;;;;;;   @@ ;;;;;;;;;;;;;;      +@;;;;;;;;;;;;;;;;;;;;;;;;;",
";;;;;;;;;;;;; @@+  ;;;;;;;;;;;;;;;     ;;;;;;;;;;;;;;;;;;;;;;;;;",
";;;;;;;;;;;;;      ;;;;;;;;;;;;;;;;;;;;;;;;;;;;;;;;;;;;;;;;;;;;;",
";;;;;;;;;;;;;;;;;;;;;;;;;;;;;;;;;;;;;;;;;;;;;;;;;;;;;;;;;;;;;;;;",
";;;;;;;;;;;;;;;;;;;;;;;;;;;;;;;;;;;;;;;;;;;;;;;;;;;;;;;;;;;;;;;;",
";;;;;;;;;;;;;;;;;;;;;;;;;;;;;;;;;;;;;;;;;;;;;;;;;;;;;;;;;;;;;;;;",
";;;;;;;;;;;;;;;;;;;;;;;;;;;;;;;;;;;;;;;;;;;;;;;;;;;;;;;;;;;;;;;;",
";;;;;;;;;;;;;;;;;;;;;;;;;;;;;;;;;;;;;;;;;;;;;;;;;;;;;;;;;;;;;;;;"
};
