/* XPM */
static char *_4a11449ae5a4b3fd8d4c876a465f40esydl73mpug7YYXEd[] = {
/* columns rows colors chars-per-pixel */
"50 50 248 2 ",
"   c None",
".  c #020907",
"X  c #150908",
"o  c #081302",
"O  c #080818",
"+  c #190819",
"@  c #14151B",
"#  c #0C160D",
"$  c #2C0207",
"%  c #391011",
"&  c #162902",
"*  c #0B3303",
"=  c #0A3719",
"-  c #102F10",
";  c #283604",
":  c #3C3503",
">  c #362617",
",  c #29371B",
"<  c #282C10",
"1  c #050929",
"2  c #061539",
"3  c #100B32",
"4  c #3A1625",
"5  c #230A39",
"6  c #291030",
"7  c #193828",
"8  c #0A2E2F",
"9  c #2A2526",
"0  c #32342F",
"q  c #430B18",
"w  c #5D0C15",
"e  c #443A15",
"r  c #493108",
"t  c #72340D",
"y  c #721B35",
"u  c #49362B",
"i  c #610D1C",
"p  c #1A4709",
"a  c #064618",
"s  c #114915",
"d  c #005003",
"f  c #2C4707",
"g  c #25451A",
"h  c #265619",
"j  c #38510F",
"k  c #126F06",
"l  c #2C6606",
"z  c #326F15",
"x  c #15522B",
"c  c #394639",
"v  c #345C34",
"b  c #2F4F2A",
"n  c #196B37",
"m  c #29683C",
"M  c #31732B",
"N  c #454108",
"B  c #465816",
"V  c #4C4E10",
"C  c #674614",
"Z  c #60560E",
"A  c #536D0C",
"S  c #716F11",
"D  c #40432A",
"F  c #5F4C24",
"G  c #4C5330",
"H  c #645935",
"J  c #71502F",
"K  c #556A35",
"L  c #757225",
"P  c #766329",
"I  c #020848",
"U  c #000656",
"Y  c #031655",
"T  c #17114A",
"R  c #2B1856",
"E  c #2D114D",
"W  c #192946",
"Q  c #12225E",
"!  c #2C2F55",
"~  c #180978",
"^  c #081675",
"/  c #131569",
"(  c #2E1762",
")  c #350F75",
"_  c #172966",
"`  c #163960",
"'  c #0E2F71",
"]  c #2D3372",
"[  c #54314D",
"{  c #4C3271",
"}  c #7B3C4D",
"|  c #174551",
" . c #394455",
".. c #344B55",
"X. c #336E4C",
"o. c #344B6F",
"O. c #205E5D",
"+. c #4F4B4D",
"@. c #7E494B",
"#. c #674F50",
"$. c #506B4E",
"%. c #766659",
"&. c #777952",
"*. c #6D6951",
"=. c #51536E",
"-. c #615F6C",
";. c #657C67",
":. c #6F6E76",
">. c #853F1B",
",. c #A63814",
"<. c #8B3B3A",
"1. c #924C13",
"2. c #B4560E",
"3. c #8B6606",
"4. c #837A19",
"5. c #96750A",
"6. c #B37915",
"7. c #8A522C",
"8. c #9A7A28",
"9. c #896C2B",
"0. c #AE632E",
"q. c #CC6D00",
"w. c #F37911",
"e. c #C67736",
"r. c #CE6D2D",
"t. c #FB7D26",
"y. c #EF722E",
"u. c #A13D73",
"i. c #88364D",
"p. c #885748",
"a. c #884D4A",
"s. c #A45C53",
"d. c #A94A5E",
"f. c #817553",
"g. c #8B7242",
"h. c #B1744A",
"j. c #8F5466",
"k. c #92716E",
"l. c #CA6747",
"z. c #CB6D5D",
"x. c #CF5850",
"c. c #118A0A",
"v. c #34882A",
"b. c #5F8400",
"n. c #708713",
"m. c #4C9438",
"M. c #428245",
"N. c #728D51",
"B. c #758E6F",
"V. c #8F8813",
"C. c #9AAB0C",
"Z. c #B4B212",
"A. c #898B38",
"S. c #B7932F",
"D. c #B3B12E",
"F. c #A4910E",
"G. c #CF9112",
"H. c #EE8E0D",
"J. c #D3B10A",
"K. c #F1A81F",
"L. c #C68431",
"P. c #D09932",
"I. c #EA9A24",
"U. c #F3922E",
"Y. c #D4AF3B",
"T. c #FEB827",
"R. c #F6A62E",
"E. c #B3D00C",
"W. c #B2CE2A",
"Q. c #CED015",
"!. c #F4CB0A",
"~. c #D9CD35",
"^. c #CAD32F",
"/. c #D5E223",
"(. c #EEE22F",
"). c #DAE026",
"_. c #8D8B4B",
"`. c #A89757",
"'. c #A98852",
"]. c #8F8A70",
"[. c #A8906B",
"{. c #AFB262",
"}. c #DD8E41",
"|. c #CCA151",
" X c #F6AC55",
".X c #CC8F7A",
"XX c #D0AD79",
"oX c #FFB473",
"OX c #E08C6A",
"+X c #BAD143",
"@X c #D1C644",
"#X c #EFCD57",
"$X c #DAEA4F",
"%X c #EDE656",
"&X c #CACB74",
"*X c #ECD07B",
"=X c #F4D26F",
"-X c #0F1790",
";X c #2A1993",
":X c #132D94",
">X c #373789",
",X c #323390",
"<X c #2E2FAB",
"1X c #0D19A5",
"2X c #482A93",
"3X c #443AB7",
"4X c #1F468B",
"5X c #334E8C",
"6X c #2155A4",
"7X c #3E55A1",
"8X c #4F5690",
"9X c #7C428C",
"0X c #536A8C",
"qX c #51758D",
"wX c #777486",
"eX c #484DAF",
"rX c #5E68A5",
"tX c #6258AF",
"yX c #252EC7",
"uX c #1D4ED1",
"iX c #4B4FC3",
"pX c #6342C5",
"aX c #5C6DD5",
"sX c #8F7792",
"dX c #649096",
"fX c #798EAA",
"gX c #5FADB0",
"hX c #67ABC0",
"jX c #9AAD8E",
"kX c #A0A18F",
"lX c #888EAA",
"zX c #AA98BB",
"xX c #8EABAB",
"cX c #ACA6A9",
"vX c #C8A78F",
"bX c #A0CBA0",
"nX c #F1D38E",
"mX c #F7CBAE",
"MX c #CFDCA1",
"NX c #A28BDD",
"BX c #A5B1CE",
"VX c #90BCFF",
"CX c #D5BDD5",
"ZX c #B4D6CD",
"AX c #ABD2FF",
"SX c #99E2D5",
"DX c #C5CAF6",
"FX c #E6E2DA",
/* pixels */
"                                                                                                    ",
"                                                                                                    ",
"                                                                                                    ",
"                                                        m.                                          ",
"                                            # k c.- a c.$.X.                                        ",
"                                  8       b 9 h k # v m., 9 M                                       ",
"                                  W 2 x 8 j L K v A j h K F p                                       ",
"                                  ! 0 ..^ 0 W.N.=.C.n.v A.8.<       z                               ",
"                          n = * = I B W.B r Z.E.E.+XD.C.D.L ; g l & X g                             ",
"                            s h b.+ e E.C.V.~.).^.W.^.Q.J.F.L f ; S e #                             ",
"                              M n.#.J Z.Q.Y.#X~.Q.^.(.(.!.~.D.A Z S V 7                             ",
"                                ; _.`.W.$X=X@X/./.^.@X#X%X%X$XW.V.N g v.                            ",
"                                x $.;.N.N.&.H n.N.K :.lXsX*.N.N.K v k                               ",
"                                M.Q 1X' | ! >X/ Y ] >X~ / _ _ :X4XX.                                ",
"                                x U :X0XB.kXzX8X] lX-.@ c ;.0XiXyX|                                 ",
"                                ^ / ! ;.jX[.[.wXrXwX%.*.].jXfXiX<X1Xm                               ",
"                                _ -Xo.B.:.+.@ 0XfX_ +.{.bXxXqX<X1X` M                               ",
"                                m ' ^ ] >X,XQ ..o.1X;X-.8X<X:X' 4Xm                                 ",
"                                m =. . ._ ^ U !  .tX] 3 3 T  .+.G b v.                              ",
"                                W A.Z.V.c 2 O [ [.nXf.. @ N 3.S.L 8 n                               ",
"                                7 V.J.V.;.qX0 f. X*X].` 0XN.5.K.'.T x                               ",
"                                  A 4.A.bXAX7XlX=X&XdXuXVXZXA.8.%.-                                 ",
"                                  p b _.MXDXaXBXnXMXlXaXAXMX_.V g                                   ",
"                                    j H [.CXzXvXnXFXDXcX&X`.*.:                                     ",
"                                    B u 9.'.XX=XnXmXmX*XS.j.{ G                                     ",
"                                  d o.hXX.J OXoX#XoXmXXXC $.gXo.a                                   ",
"                                s 1 5XSXgX:.p.'. X|.'.s.k.bXSX5XY                                   ",
"                                5 ~ 5XZXDXxXe C h._.3.,.cXSXBX6X^ 4                                 ",
"                              G 8.2X;X5X8X+.t r.}.P.q.2.-.5X8X:X{ d.F                               ",
"                            & J J.h.9XR R y ,.6. XU.H.8.[ E E [ s..X7.;                             ",
"                          l ; 1.J.P.s.4 @.z.e.G.U.I.G.0.l.a.> <.e.|.7.e                             ",
"                          l S e.J.3.u 9 9.I.U.H.R.T.I.y.t.6.o 9 3.|.e.1.B                           ",
"                          : P 4.5.r 1 T #._.S.h.'.h.z.l.r.L 8 1 0 g.0.t ,                           ",
"                          X 4 q 9 + 5 5 Y 6XiXpXeX3X>X] 2X2X/ T + % % $ X                           ",
"                          ; J h._.c < C 7.k.sXsXs.j.a.a.j.u.i.u u %.k.@.<                           ",
"                          f 4.P.`.G : 6.w.r. XI.H.H.H.U.H.t.l.: c ].vXk.z                           ",
"                            b u [ % 1.L.7.#..XU.P.J.H.U.I.K.y.r @ > > c                             ",
"                              h , $ y }  .` +.r.H.H.H.R.T.!.G.t X f p                               ",
"                                z * 3 2X,X_ 0 7.q.2.L.R.T.J.4.D                                     ",
"                                  k M.BXeX4XBXk.i q J G.w.x.[ 0                                     ",
"                                  d m dX] >XNX=.1 X r p.a.[ E R                                     ",
"                                  - O ( ~ ~ ) 6 o o 6 ( ~ / 2 . s                                   ",
"                                  c T ) <X-XU O o . 2 ^ -X:X` 8 s                                   ",
"                                  7 5 ) ;X~ 2 - = = 8 W R R R R ;                                   ",
"                                  * & > % 6 ,         - + q w w N                                   ",
"                                                          l l A                                     ",
"                                                                                                    ",
"                                                                                                    ",
"                                                                                                    ",
"                                                                                                    "
};
