/* XPM */
static char *_d48512fe6d34263e18e8016a126f221G3Snpd53oKLkhH3H[] = {
/* columns rows colors chars-per-pixel */
"64 64 13 1 ",
"  c None",
". c black",
"X c #712200",
"o c #19106D",
"O c #EB1D00",
"+ c #8B7766",
"@ c #FF9200",
"# c #F6933E",
"$ c #F8F800",
"% c #0049A6",
"& c #FED798",
"* c #CAC0B7",
"= c #F8F8F8",
/* pixels */
"                                                                ",
"                                                                ",
"                                                                ",
"                                                                ",
"                                                                ",
"                                                                ",
"                                                                ",
"                                                                ",
"                                                                ",
"                                                                ",
"                                   XX                           ",
"                           XX XXXXX@@X                          ",
"                           XX XXXXX@@X                          ",
"                          X@@X$$@@$@@XXX                        ",
"                          X@@X$$@@$@@XXX                        ",
"                        XX$$$$$$$$$$$$@@XX                      ",
"                      XX$$@@@$$$$$@$$$$$@@O                     ",
"                      XX$$@@@$$$$$@$$$$$@@O                     ",
"                        XX$@@@$$@@$@@@@@OO                      ",
"                   %%%  oooooo%%%%*==%%%                        ",
"                   %%%  oooooo%%%%*==%%%                        ",
"                      %%..oooo%%%%*===..                        ",
"                      %%..oooo%%%%*===..                        ",
"                     o.....XXXXXXXXXXXXX                        ",
"                   ooo  ..@++=++&&=oo#XX                        ",
"                   ooo  ..@++=++&&=oo#XX                        ",
"                        ..@XX&##&&=oo#XX                        ",
"                          .XXX##&&&##X                          ",
"                          .XXX##&&&##X                          ",
"                        ..+***XXXXXXXX                          ",
"                        ..+***XXXXXXXX                          ",
"                        ..X++***===**X                          ",
"                          X%%o%%%%%%%X                          ",
"                          X%%o%%%%%%%X                          ",
"                          XXX*%%==O%%%XX                        ",
"                          XXX*%%==O%%%XX                        ",
"                          X%%XOOOOOXXOOOXX                      ",
"                          .XXXOOOOXOO@XX+++                     ",
"                          .XXXOOOOXOO@XX+++                     ",
"                        XXXOOOOOXXXOO@++&&&++                   ",
"                      XX++*XXXXXXXXOO@++&&&++                   ",
"                      XX++*XXXXXXXXOO@++&&&++                   ",
"                      XX**=XXOOOOOXOOOXX+++                     ",
"                      XX**=XXOOOOOXOOOXX+++                     ",
"                      XX++*XXOOOOOXXXXXX                        ",
"                        XX+XXOOOOOXXX.                          ",
"                        XX+XXOOOOOXXX.                          ",
"                        XXX%%*....XOOO..                        ",
"                      XX  %%%*....XXXO..                        ",
"                      XX  %%%*....XXXO..                        ",
"                      ..XXXXXX....XXX...                        ",
"                      ..XXXXXX....XXX...                        ",
"                     XOOOO@.....  .oo@..oo                      ",
"                     .ooooo.....  .ooooo  o                     ",
"                     .ooooo.....  .ooooo  o                     ",
"                     ooooo@&&o    ...ooo...                     ",
"                     ooooo@&&o    ...ooo...                     ",
"                      oooooooo                                  ",
"                                                                ",
"                                                                ",
"                                                                ",
"                                                                ",
"                                                                ",
"                                                                "
};
