/* XPM */
static char *result[] = {
/* columns rows colors chars-per-pixel */
"64 64 30 1 ",
"  c black",
". c #010001",
"X c #020001",
"o c #750900",
"O c #790F00",
"+ c #5C2512",
"@ c #722100",
"# c #712200",
"$ c #702300",
"% c #785218",
"& c #7C531C",
"* c #19106D",
"= c #840B00",
"- c #910C00",
"; c #851400",
": c #A70D00",
"> c #A01E00",
", c #962707",
"< c #EB1D00",
"1 c #A06319",
"2 c #A66620",
"3 c #8B7766",
"4 c #FF9200",
"5 c #F6933E",
"6 c #F8F800",
"7 c #0049A6",
"8 c #FED798",
"9 c #CAC0B7",
"0 c #F8F8F8",
"q c None",
/* pixels */
"qqqqqqqqqqqqqqqqqqqqqqqqqqqqqqqqqqqqqqqqqqqqqqqqqqqqqqqqqqqqqqqq",
"qqqqqqqqqqqqqqqqqqqqqqqqqqqqqqqqqqqqqqqqqqqqqqqqqqqqqqqqqqqqqqqq",
"qqqqqqqqqqqqqqqqqqqqqqqqqqqqqqqqqqqqqqqqqqqqqqqqqqqqqqqqqqqqqqqq",
"qqqqqqqqqqqqqqqqqqqqqqqqqqqqqqqqqqqqqqqqqqqqqqqqqqqqqqqqqqqqqqqq",
"qqqqqqqqqqqqqqqqqqqqqqqqqqqqqqqqqqqqqqqqqqqqqqqqqqqqqqqqqqqqqqqq",
"qqqqqqqqqqqqqqqqqqqqqqqqqqqqqqqqqqqqqqqqqqqqqqqqqqqqqqqqqqqqqqqq",
"qqqqqqqqqqqqqqqqqqqqqqqqqqqqqqqqqqqqqqqqqqqqqqqqqqqqqqqqqqqqqqqq",
"qqqqqqqqqqqqqqqqqqqqqqqqqqqqqqqqqqqqqqqqqqqqqqqqqqqqqqqqqqqqqqqq",
"qqqqqqqqqqqqqqqqqqqqqqqqqqqqqqqqqqqqqqqqqqqqqqqqqqqqqqqqqqqqqqqq",
"qqqqqqqqqqqqqqqqqqqqqqqqqqqqqqqqqqqqqqqqqqqqqqqqqqqqqqqqqqqqqqqq",
"qqqqqqqqqqqqqqqqqqqqqqqqqqqqqqq###qqqqqqqqqqqqqqqqqqqqqqqqqqqqqq",
"qqqqqqqqqqqqqqqqqqqqqqq#####q##66#qq###qqqqqqqqqqqqqqqqqqqqqqqqq",
"qqqqqqqqqqqqqqqqqqqqqqq#####q##66#qq###qqqqqqqqqqqqqqqqqqqqqqqqq",
"qqqqqqqqqqqqqqqqqqqqq##<<644#6666<<<6<<##qqqqqqqqqqqqqqqqqqqqqqq",
"qqqqqqqqqqqqqqqqqqqqqqq##<6666666666<##qqqqqqqqqqqqqqqqqqqqqqqqq",
"qqqqqqqqqqqqqqqqqqqqqqq##<6666666666<##qqqqqqqqqqqqqqqqqqqqqqqqq",
"qqqqqqqqqqqqqqqqqqqqq<<4466666666644644##qqqqqqqqqqqqqqqqqqqqqqq",
"qqqqqqqqqqqqqqqqqqqqq<<4466666666644644##qqqqqqqqqqqqqqqqqqqqqqq",
"qqqqqqqqqqqqqqqqqqqqq##<<466666666444<<##qqqqqqqqqqqqqqqqqqqqqqq",
"qqqqqqqqqqqqqqqqqqqqqqq   7766666477   qqqqqqqqqqqqqqqqqqqqqqqqq",
"qqqqqqqqqqqqqqqqqqqqqqq   7766666477   qqqqqqqqqqqqqqqqqqqqqqqqq",
"qqqqqqqqqqqqqqqqqqqqq  :-   477774   %&  qqqqqqqqqqqqqqqqqqqqqqq",
"qqqqqqqqqqqqqqqqqqqqq  =o   477774   12  qqqqqqqqqqqqqqqqqqqqqqq",
"qqqqqqqqqqqqqqqqqqqqq  X. 66      66 O;  qqqqqqqqqqqqqqqqqqqqqqq",
"qqqqqqqqqqqqqqqqqqqqqqq  #4446666444#  qqqqqqqqqqqqqqqqqqqqqqqqq",
"qqqqqqqqqqqqqqqqqqqqqqq  #4446666444#  qqqqqqqqqqqqqqqqqqqqqqqqq",
"qqqqqqqqqqqqqqqqqqqqqqq######4444######qqqqqqqqqqqqqqqqqqqqqqqqq",
"qqqqqqqqqqqqqqqqqqqqq##**900000000009**##qqqqqqqqqqqqqqqqqqqqqqq",
"qqqqqqqqqqqqqqqqqqqqq##**900000000009**##qqqqqqqqqqqqqqqqqqqqqqq",
"qqqqqqqqqqqqqqqqqqqq#@+777990000009977744#qqqqqqqqqqqqqqqqqqqqqq",
"qqqqqqqqqqqqqqqqqqqq#>,777990000009977744#qqqqqqqqqqqqqqqqqqqqqq",
"qqqqqqqqqqqqqqqqqq##<<<77777777777777**<<#qqqqqqqqqqqqqqqqqqqqqq",
"qqqqqqqqqqqqqqqq##44#<<<<#7777777777#<<444##qqqqqqqqqqqqqqqqqqqq",
"qqqqqqqqqqqqqqqq##44#<<<<#7777777777#<<444##qqqqqqqqqqqqqqqqqqqq",
"qqqqqqqqqqqqqqqq##444####<444<<<<444<##<<<##qqqqqqqqqqqqqqqqqqqq",
"qqqqqqqqqqqqqqqq#########<444<<<<444<#######qqqqqqqqqqqqqqqqqqqq",
"qqqqqqqqqqqqqqqq#########<444<<<<444<#######qqqqqqqqqqqqqqqqqqqq",
"qqqqqqqqqqqqqqqq##$$$##<<    <<444<< <<444##qqqqqqqqqqqqqqqqqqqq",
"qqqqqqqqqqqqqqqq##$$$##<<    <<444<< <<444##qqqqqqqqqqqqqqqqqqqq",
"qqqqqqqqqqqqqqqq##$$$qq  9999  <<<<<#33#####qqqqqqqqqqqqqqqqqqqq",
"qqqqqqqqqqqqqqqqqq###qq  3333       ###888##qqqqqqqqqqqqqqqqqqqq",
"qqqqqqqqqqqqqqqqqq###qq  3333       ###888##qqqqqqqqqqqqqqqqqqqq",
"qqqqqqqqqqqqqqqqqqqqqqq  ####  44444###555##qqqqqqqqqqqqqqqqqqqq",
"qqqqqqqqqqqqqqqqqqqqqqq      <<<<<<<#**###qqqqqqqqqqqqqqqqqqqqqq",
"qqqqqqqqqqqqqqqqqqqqqqq      <<<<<<<#**###qqqqqqqqqqqqqqqqqqqqqq",
"qqqqqqqqqqqqqqqqqqqqqqq##<<<#     ###**##qqqqqqqqqqqqqqqqqqqqqqq",
"qqqqqqqqqqqqqqqqqqqqqqq##<<<#     ###**##qqqqqqqqqqqqqqqqqqqqqqq",
"qqqqqqqqqqqqqqqqqqqqqqq##<444  qq #####qqqqqqqqqqqqqqqqqqqqqqqqq",
"qqqqqqqqqqqqqqqqqqqqqqq##4     qq 885**qqqqqqqqqqqqqqqqqqqqqqqqq",
"qqqqqqqqqqqqqqqqqqqqqqq##4     qq 885**qqqqqqqqqqqqqqqqqqqqqqqqq",
"qqqqqqqqqqqqqqqqqqqqqqqqq####  qq ***  qqqqqqqqqqqqqqqqqqqqqqqqq",
"qqqqqqqqqqqqqqqqqqqqqqqqq####  qq ***  qqqqqqqqqqqqqqqqqqqqqqqqq",
"qqqqqqqqqqqqqqqqqqqqqqqqq*777  qq **7  qqqqqqqqqqqqqqqqqqqqqqqqq",
"qqqqqqqqqqqqqqqqqqqqqqqqq7***  qqq   qqqqqqqqqqqqqqqqqqqqqqqqqqq",
"qqqqqqqqqqqqqqqqqqqqqqqqq7***  qqq   qqqqqqqqqqqqqqqqqqqqqqqqqqq",
"qqqqqqqqqqqqqqqqqqqqqqqqq7***  qqqqqqqqqqqqqqqqqqqqqqqqqqqqqqqqq",
"qqqqqqqqqqqqqqqqqqqqqqqqqq   qqqqqqqqqqqqqqqqqqqqqqqqqqqqqqqqqqq",
"qqqqqqqqqqqqqqqqqqqqqqqqqq   qqqqqqqqqqqqqqqqqqqqqqqqqqqqqqqqqqq",
"qqqqqqqqqqqqqqqqqqqqqqqqqqqqqqqqqqqqqqqqqqqqqqqqqqqqqqqqqqqqqqqq",
"qqqqqqqqqqqqqqqqqqqqqqqqqqqqqqqqqqqqqqqqqqqqqqqqqqqqqqqqqqqqqqqq",
"qqqqqqqqqqqqqqqqqqqqqqqqqqqqqqqqqqqqqqqqqqqqqqqqqqqqqqqqqqqqqqqq",
"qqqqqqqqqqqqqqqqqqqqqqqqqqqqqqqqqqqqqqqqqqqqqqqqqqqqqqqqqqqqqqqq",
"qqqqqqqqqqqqqqqqqqqqqqqqqqqqqqqqqqqqqqqqqqqqqqqqqqqqqqqqqqqqqqqq",
"qqqqqqqqqqqqqqqqqqqqqqqqqqqqqqqqqqqqqqqqqqqqqqqqqqqqqqqqqqqqqqqq"
};
