/* XPM */
static char *result[] = {
/* columns rows colors chars-per-pixel */
"64 64 13 1 ",
"  c black",
". c #712200",
"X c #19106D",
"o c #EB1D00",
"O c #8B7766",
"+ c #FF9200",
"@ c #F6933E",
"# c #F8F800",
"$ c #0049A6",
"% c #FED798",
"& c #CAC0B7",
"* c #F8F8F8",
"= c None",
/* pixels */
"================================================================",
"================================================================",
"================================================================",
"================================================================",
"================================================================",
"================================================================",
"================================================================",
"================================================================",
"================================================================",
"================================================================",
"================================================================",
"================================...=============================",
"========================.....==.##.==...========================",
"========================.....==.##.==...========================",
"======================..oo#++..###ooo##o..======================",
"========================..o##########oo.========================",
"========================..o##########oo.========================",
"======================oo++#########++##+..======================",
"======================oo++#########++##+..======================",
"======================..oo+#######+++++o..======================",
"========================   $$#####+$$   ========================",
"========================   $$#####+$$   ========================",
"======================  ==   ++$$$+    =  ======================",
"======================  ==   ++$$$+    =  ======================",
"======================  == ##      ##  =  ======================",
"========================  .++++###+++.. ========================",
"========================  .++++###+++.. ========================",
"========================.......+++......========================",
"======================..XX&**********&&X..======================",
"======================..XX&**********&&X..======================",
"=====================.==$$$&&******&&$$$++.=====================",
"=====================.==$$$&&******&&$$$++.=====================",
"=====================.oo$$$$$$$$$$$$$$$X++o..===================",
"===================..+++oo.$$$$$$$$$$..o...++..=================",
"===================..+++oo.$$$$$$$$$$..o...++..=================",
"===================..ooo..o++++ooo+++oo.oo+++..=================",
"===================.......o++++ooo+++oo.OO.....=================",
"===================.......o++++ooo+++oo.OO.....=================",
"===================..+++oo   oo++++oooo ..@%%..=================",
"===================..+++oo   oo++++oooo ..@%%..=================",
"===================.....  &&&  oooooo.....@@@..=================",
"===================..%%%  OOO        oo.==...===================",
"===================..%%%  OOO        oo.==...===================",
"===================..%@@  ...  ++++++oo.========================",
"=====================...     oooooooo++$XX======================",
"=====================...     oooooooo++$XX======================",
"======================  oo+++..   &**++$XX======================",
"======================  oo+++..   &**++$XX======================",
"======================..+++oo   &&...**XXX======================",
"========================.....  =  +++..XXX======================",
"========================.....  =  +++..XXX======================",
"========================XX@%%  =     ++.========================",
"========================XX@%%  =     ++.========================",
"======================XX$$XXX  =  .....=========================",
"======================XX$$$XX  =  $$$XX=========================",
"======================XX$$$XX  =  $$$XX=========================",
"========================     ===  XXX$$=========================",
"==================================XXXXX=========================",
"==================================XXXXX=========================",
"================================================================",
"================================================================",
"================================================================",
"================================================================",
"================================================================"
};
