/* XPM */
static char *result[] = {
/* columns rows colors chars-per-pixel */
"64 64 13 1 ",
"  c black",
". c #712200",
"X c #19106D",
"o c #EB1D00",
"O c #8B7766",
"+ c #FF9200",
"@ c #F6933E",
"# c #F8F800",
"$ c #0049A6",
"% c #FED798",
"& c #CAC0B7",
"* c #F8F8F8",
"= c None",
/* pixels */
"================================================================",
"================================================================",
"================================================================",
"================================================================",
"================================================================",
"================================================================",
"================================================================",
"=============================...================================",
"=============================...================================",
"========================...==..#..=.....========================",
"========================...==..#..=.....========================",
"======================..oo#oooo###.++##o..======================",
"========================..o##########oo.========================",
"========================..o##########oo.========================",
"======================..++########+####+oo======================",
"======================..oo+####+##+##++o..======================",
"======================..oo+####+##+##++o..======================",
"========================  XXX***$$*$$XX ========================",
"========================  XXX***$$*$$XX ========================",
"======================  == $$**$..*$$  %  ======================",
"======================  ==             @  ======================",
"======================  ==             @  ======================",
"========================   **XX%%%X**   ========================",
"========================...**XX%%%X**...========================",
"========================...**XX%%%X**...========================",
"========================XX&..%%%%%%..&&X..======================",
"========================XX&..%%%%%%..&&X..======================",
"======================..$$*&&OO...O&&**&**$=====================",
"======================..$$$&&**ooo*&&$$&&&$=====================",
"======================..$$$&&**ooo*&&$$&&&$=====================",
"=====================.++oo$$$$$ooo$$$$$o$$$..===================",
"=====================.++oo$$$$$ooo$$$$$o$$$..===================",
"=====================.++...++++ooo+++...ooo..===================",
"=====================.....o++oo...o++oo.+++..===================",
"=====================.....o++oo...o++oo.+++..===================",
"=====================.==  o++++ooo+++  %%%...===================",
"=====================.==...oooooooooo..%%%...===================",
"=====================.==...oooooooooo..%%%...===================",
"======================....o          ......=====================",
"======================....o          ......=====================",
"======================....o++oo+++o++oo.========================",
"======================  ..+oooo.oo.oooo...======================",
"======================  ..+oooo.oo.oooo...======================",
"========================  *****&  ooooo...======================",
"========================..oooooo  .....o..======================",
"========================..oooooo  .....o..======================",
"========================..++++++  .oooo.========================",
"========================..++++++  .oooo.========================",
"==========================.....    $$$$ ========================",
"==========================X@@%%         ========================",
"==========================X@@%%         ========================",
"==========================X$$$$XXX=    =========================",
"==========================X$$$$XXX=    =========================",
"==========================X%%@@@XX==============================",
"===========================    X================================",
"===========================    X================================",
"================================================================",
"================================================================",
"================================================================",
"================================================================",
"================================================================",
"================================================================",
"================================================================",
"================================================================"
};
