/* XPM */
static char *result[] = {
/* columns rows colors chars-per-pixel */
"64 64 14 1 ",
"  c black",
". c #712200",
"X c #19106D",
"o c #EB1D00",
"O c #8B7766",
"+ c #FF9200",
"@ c #F6933E",
"# c #F8F800",
"$ c #0049A6",
"% c #FF5BBB",
"& c #FED798",
"* c #CAC0B7",
"= c #F8F8F8",
"- c None",
/* pixels */
"----------------------------------------------------------------",
"----------------------------------------------------------------",
"----------------------------------------------------------------",
"----------------------------------------------------------------",
"----------------------------------------------------------------",
"----------------------------------------------------------------",
"----------------------------------------------------------------",
"----------------------------------------------------------------",
"----------------------------------------------------------------",
"----------------------------------------------------------------",
"----------------------------------------------------------------",
"----------------------------------------------------------------",
"----------------------------------------------------------------",
"----------------------------------------------------------------",
"----------------------------------------------------------------",
"----------------------------------------------------------------",
"----------------------------------------------------------------",
"----------------------------------------------------------------",
"----------------------------------------------------------------",
"----------------------------------------------------------------",
"----------------------------------------------------------------",
"----------------------------------------------------------------",
"----------------------------------------------------------------",
"----------------------------------------------------------------",
"----------------------------------------------------------------",
"----------------------------------------------------------------",
"----------------------------------------------------------------",
"----------------------------------------------------------------",
"----------------------------------------------------------------",
"----------------------------------------------------------------",
"----------------------------------------------------------------",
"----------------------------------------------------------------",
"----------------------------------------------------------------",
"----------------------------------------------------------------",
"----------------------------------------------------------------",
"----------------------------------------------------------------",
"-------------------------..........-----------------------------",
"-------------------------..........-----------------------------",
"-----------------------..--.oooOO.....-----------...--..--------",
"----------XXXX---.--...............$$$$--.....  X++#..oo.-------",
"----------XXXX---.--...............$$$$--.....  X++#..oo.-------",
"---------X--XXX..+..==+++oo oo+++++o$$*..@@@XX@@ $$Xoo##.-------",
"---------X--XXX..+..==+++oo oo+++++o$$*..@@@XX@@ $$Xoo##.-------",
"--------- --$$@..+..**ooo++ oo+oo++$==.@@&&&XX&& ===##oo--------",
"--------- --$$&..o..** ..oo ooo..ooo..     &&&&& $$=##oo...-----",
"--------- --$$&..o..** ..oo ooo..ooo..     &&&&& $$=##oo...-----",
"----------XXXX   ...ooooo++ ooo..ooo..     &&&&& ..$#####..-----",
"----------$$$$%%%   oo+..oo oo+oo++$==.@@&&&XX&& ===####.-------",
"----------$$$$%%%   oo+..oo oo+oo++$==.@@&&&XX&& ===####.-------",
"---------$--$$   o..+++oo++ oo+++++$**O..@@@XX@@ $$$##..--------",
"---------$--$$   o..+++oo++ oo+++++$**O..@@@XX@@ $$$##..--------",
"--------- --$$&..+..++o++ooo..ooo..$$$*.......$$$+++##++.-------",
"---------X--XX@..+..ooooooo... ..oo+$$$**...@@&&Xoo+oo++.-------",
"---------X--XX@..+..ooooooo... ..oo+$$$**...@@&&Xoo+oo++.-------",
"---------X--XX@.......ooo&&&OOo..oo+oo=XXXX-.... ..o..oo.-------",
"----------XXXXX-----.......@&&.++..o...XX--------...--..--------",
"----------XXXXX-----.......@&&.++..o...XX--------...--..--------",
"-----------------------..@@&OO.oo.....--------------------------",
"-----------------------..@@&OO.oo.....--------------------------",
"-------------------------........-------------------------------",
"----------------------------------------------------------------",
"----------------------------------------------------------------",
"----------------------------------------------------------------",
"----------------------------------------------------------------"
};
