/* XPM */
static char *_29d0b58e680453fe94079c4a04e7832rKpnBYMcRttzzWvS[] = {
/* columns rows colors chars-per-pixel */
"64 64 13 1 ",
"  c None",
". c black",
"X c #712200",
"o c #19106D",
"O c #EB1D00",
"+ c #8B7766",
"@ c #FF9200",
"# c #F6933E",
"$ c #F8F800",
"% c #0049A6",
"& c #FED798",
"* c #CAC0B7",
"= c #F8F8F8",
/* pixels */
"                                                                ",
"                                                                ",
"                                                                ",
"                                                                ",
"                                                                ",
"                                                                ",
"                                                                ",
"                                                                ",
"                                                                ",
"                                   XX                           ",
"                                   XX                           ",
"                           XX XXXXX@@X                          ",
"                         XX@@X$$@$$@@XXX                        ",
"                         XX@@X$$@$$@@XXX                        ",
"                        X$$$$$$$$$$$$$@@XX                      ",
"                        X$$$$$$$$$$$$$@@XX                      ",
"                      XX$@@@@$$$$@@$$$$$@@O                     ",
"                        X$$@@@$$@$$@@@@@OO                      ",
"                        X$$@@@$$@$$@@@@@OO                      ",
"                     %  oooooo%%%**==%%%                        ",
"                      %%oooooo%%%**===..                        ",
"                      %%oooooo%%%**===..                        ",
"                     ooo...XXXXXXXXXXXXX                        ",
"                     ooo...XXXXXXXXXXXXX                        ",
"                     o  .@@++=++&==oo#XX                        ",
"                        .@@XX&##&==oo#XX                        ",
"                        .@@XX&##&==oo#XX                        ",
"                         ..XXX##&&&##X                          ",
"                         XX***XXXXXXXX                          ",
"                         XX***XXXXXXXX                          ",
"                         XX++*=====**X                          ",
"                         XX++*=====**X                          ",
"                         XX%%oooo%%%%X                          ",
"                         XXooO@@Ooo%%XXX                        ",
"                         XXooO@@Ooo%%XXX                        ",
"                         XXooO@@OooOOOXX                        ",
"                         XXooO@@OooOOOXX                        ",
"                         ..XXOXXXXX@@O..                        ",
"                        X..XXX@@@XXXX...                        ",
"                        X..XXX@@@XXXX...                        ",
"                      XX+..XX@XXXXXOO@XX                        ",
"                      XX+..XXX&&&++XX@XX                        ",
"                      XX+..XXX&&&++XX@XX                        ",
"                      XX+....X&&&++XXOXX                        ",
"                      XX+....X&&&++XXOXX                        ",
"                        X....X+++XX==X                          ",
"                           XX*XXX**==X                          ",
"                           XX*XXX**==X                          ",
"                           XX*%%%**XXX                          ",
"                           ..X%%%XXXX                           ",
"                           ..X%%%XXXX                           ",
"                           XXOOO@XX                             ",
"                           XXOOO@XX                             ",
"                           ..oooo..                             ",
"                           oo@&&%oo                             ",
"                           oo@&&%oo                             ",
"                           ooooo%&&oo                           ",
"                           ooooo%&&oo                           ",
"                           oooooooooo                           ",
"                                                                ",
"                                                                ",
"                                                                ",
"                                                                ",
"                                                                "
};
