/* XPM */
static char *c5f8f9d91909406c8a84bbe0decf39e28w9D1IqNIimHb0vd[] = {
/* columns rows colors chars-per-pixel */
"64 64 13 1 ",
"  c None",
". c black",
"X c #712200",
"o c #19106D",
"O c #EB1D00",
"+ c #8B7766",
"@ c #FF9200",
"# c #F6933E",
"$ c #F8F800",
"% c #0049A6",
"& c #FED798",
"* c #CAC0B7",
"= c #F8F8F8",
/* pixels */
"                                                                ",
"                                                                ",
"                                                                ",
"                                                                ",
"                                                                ",
"                                                                ",
"                                                                ",
"                                                                ",
"                           XX                                   ",
"                           XX                                   ",
"                          X@@XXXXX XX                           ",
"                          X@@XXXXX XX                           ",
"                        XXX@@$@@$$X@@X                          ",
"                      XX@@$$$$$$$$$$$$XX                        ",
"                      XX@@$$$$$$$$$$$$XX                        ",
"                     O@@$$$$$@$$$$$@@@$$XX                      ",
"                     O@@$$$$$@$$$$$@@@$$XX                      ",
"                      OO@@@@@$@@$$@@@$XX  %                     ",
"                        %%%==*%%%%oooooo  %                     ",
"                        %%%==*%%%%oooooo  %                     ",
"                        ..===*%%%%oooo..%%                      ",
"                        XXXXXXXXXXXXX.....o                     ",
"                        XXXXXXXXXXXXX.....o                     ",
"                        XX#oo=&&++=++@..  ooo                   ",
"                        XX#oo=&&++=++@..  ooo                   ",
"                        XX#oo=&&##&XX@..                        ",
"                          X##&&&##XXX.                          ",
"                          X##&&&##XXX.                          ",
"                          XXXXXXXX***+..                        ",
"                          X**===***++X..                        ",
"                          X**===***++X..                        ",
"                          X%%%%%%%o%%X                          ",
"                          X%%%%%%%o%%X                          ",
"                        XX%%%O==%%*XXX                          ",
"                      XXOOOXXOOOOOX%%X                          ",
"                      XXOOOXXOOOOOX%%X                          ",
"                     +++XX@OOXOOOOXXX.                          ",
"                     +++XX@OOXOOOOXXX.                          ",
"                   ++&&&++@OOXXXOOOOOXXX                        ",
"                   ++&&&++@OOXXXXXXXX*++XX                      ",
"                   ++&&&++@OOXXXXXXXX*++XX                      ",
"                     +++XXOOOXOOOOOXX=**XX                      ",
"                        XXXXXXOOOOOXX*++XX                      ",
"                        XXXXXXOOOOOXX*++XX                      ",
"                          .XXXOOOOOXX+XX                        ",
"                          .XXXOOOOOXX+XX                        ",
"                        ..OOOX....XXXXXX                        ",
"                        ..OXXX....O@@OXXXX                      ",
"                        ..OXXX....O@@OXXXX                      ",
"                        ...XXX....XXXXXX..                      ",
"                      oo..@oo.  .....@OOOOX                     ",
"                      oo..@oo.  .....@OOOOX                     ",
"                     o  ooooo.  .....ooooo.                     ",
"                     o  ooooo.  .....ooooo.                     ",
"                     ...ooo...    o&&@ooooo                     ",
"                                  oooooooo                      ",
"                                  oooooooo                      ",
"                                                                ",
"                                                                ",
"                                                                ",
"                                                                ",
"                                                                ",
"                                                                ",
"                                                                "
};
