/* XPM */
static char *result[] = {
/* columns rows colors chars-per-pixel */
"64 64 13 1 ",
"  c black",
". c #712200",
"X c #19106D",
"o c #EB1D00",
"O c #8B7766",
"+ c #FF9200",
"@ c #F6933E",
"# c #F8F800",
"$ c #0049A6",
"% c #FED798",
"& c #CAC0B7",
"* c #F8F8F8",
"= c None",
/* pixels */
"================================================================",
"================================================================",
"================================================================",
"================================================================",
"================================================================",
"================================================================",
"================================================================",
"=============================...================================",
"========================...==.##.==.....========================",
"========================...==.##.==.....========================",
"======================..o##ooo###..++#oo..======================",
"========================.oo##########o..========================",
"========================.oo##########o..========================",
"======================..+#####++#++###++oo======================",
"======================..+#####++#++###++oo======================",
"======================..o++XX***$**$$+oo..======================",
"======================== XX$$*$$.**$$X  ========================",
"======================== XX$$*$$.**$$X  ========================",
"======================  =             %%  ======================",
"======================  =             %%  ======================",
"======================  =  **X%%%XX** @@  ======================",
"========================   **X%%%XX**   ========================",
"========================   **X%%%XX**   ========================",
"========================.....%%%%%%.....========================",
"======================..X&&..........&XX..======================",
"======================..X&&..........&XX..======================",
"=====================.XX$**&&O...OO&&*$$**.=====================",
"=====================.XX$**&&O...OO&&*$$**.=====================",
"=====================.oo$$$..........$$$oo.=====================",
"=====================.++o$$..*...**...oo++.=====================",
"=====================.++o$$..*...**...oo++.=====================",
"=====================.oo.++%%%...%%%%+..oo.=====================",
"=====================.oo+..%%%...%%%%.++oo.=====================",
"=====================.oo+..%%%...%%%%.++oo.=====================",
"=====================.oo+..%%o...oo%%.++oo.=====================",
"=====================.oo+..%%o...oo%%.++oo.=====================",
"=====================...+..ooo  .oooo.++...=====================",
"======================...++          +....======================",
"======================...++          +....======================",
"========================.oo++o+++oo++o..========================",
"========================.++oo.oo.oo++.==========================",
"========================.++oo.oo.oo++.==========================",
"======================== oo+++ooo++++o..========================",
"======================== oo+++ooo++++o..========================",
"========================.*****ooo++++...========================",
"========================......   .......========================",
"========================......   .......========================",
"========================.++++o   oo+++..========================",
"========================.++++o   oo+++..========================",
"=========================.....     ...==========================",
"========================X@@%%      %%@XX========================",
"========================X@@%%      %%@XX========================",
"========================XXX$$$XXX$$$$XXX========================",
"========================X%%%%@XXX@@%%%XX========================",
"========================X%%%%@XXX@@%%%XX========================",
"=========================XX   =====   XX========================",
"=========================XX   =====   XX========================",
"================================================================",
"================================================================",
"================================================================",
"================================================================",
"================================================================",
"================================================================",
"================================================================"
};
