/* XPM */
static char *result[] = {
/* columns rows colors chars-per-pixel */
"64 64 13 1 ",
"  c black",
". c #712200",
"X c #19106D",
"o c #EB1D00",
"O c #8B7766",
"+ c #FF9200",
"@ c #F6933E",
"# c #F8F800",
"$ c #0049A6",
"% c #FED798",
"& c #CAC0B7",
"* c #F8F8F8",
"= c None",
/* pixels */
"================================================================",
"================================================================",
"================================================================",
"================================================================",
"================================================================",
"================================================================",
"================================================================",
"================================================================",
"================================================================",
"=============================...================================",
"=============================...================================",
"========================...==.##..=.....========================",
"======================..oo#ooo####.++#oo..======================",
"======================..oo#ooo####.++#oo..======================",
"========================..o##########o..========================",
"========================..o##########o..========================",
"======================..++########+###++oo======================",
"======================..oo+#######+##+oo..======================",
"======================..oo+#######+##+oo..======================",
"========================  X###++##+##X  ========================",
"========================  X###++##+##X  ========================",
"======================  == XX***$$*$$ %%  ======================",
"======================  == $$*$$..*$$ @@  ======================",
"======================  == $$*$$..*$$ @@  ======================",
"========================                ========================",
"========================...**X%%%%X**...========================",
"========================...**X%%%%X**...========================",
"======================..XX&..%..%%%..&XX..======================",
"======================..XX&..%..%%%..&XX..======================",
"=====================.XX$$*&&O**.....*$$**.=====================",
"=====================.oo$$$...%%%%...$$$oo.=====================",
"=====================.oo$$$...%%%%...$$$oo.=====================",
"=====================.++oo$...%%%%%...oo++.=====================",
"=====================.oo..+..@..@@%..+..oo.=====================",
"=====================.oo..+..@..@@%..+..oo.=====================",
"=====================.oo++...@%%%%@...++oo.=====================",
"=====================.oo++...@%%%%@...++oo.=====================",
"=====================.oo++.@@...@@.@@.++oo.=====================",
"=====================...++.@@@....@@@.++...=====================",
"=====================...++.@@@....@@@.++...=====================",
"======================....+          +....======================",
"========================..o++o++++o++o..========================",
"========================..o++o++++o++o..========================",
"========================  o+++oooo+++o..========================",
"========================  o+++oooo+++o..========================",
"========================..****oooo+++...========================",
"========================......    ......========================",
"========================......    ......========================",
"========================..+++o    o+++..========================",
"========================..+++o    o+++..========================",
"==========================....     ...==========================",
"========================XX@%%      %%@XX========================",
"========================XX@%%      %%@XX========================",
"========================XXX$$$XXXX$$$XXX========================",
"========================XX%%%@XXXX@%%%XX========================",
"========================XX%%%@XXXX@%%%XX========================",
"==========================X   ====   X==========================",
"==========================X   ====   X==========================",
"================================================================",
"================================================================",
"================================================================",
"================================================================",
"================================================================",
"================================================================"
};
