/* XPM */
static char *result[] = {
/* columns rows colors chars-per-pixel */
"64 64 13 1 ",
"  c black",
". c #712200",
"X c #19106D",
"o c #EB1D00",
"O c #8B7766",
"+ c #FF9200",
"@ c #F6933E",
"# c #F8F800",
"$ c #0049A6",
"% c #FED798",
"& c #CAC0B7",
"* c #F8F8F8",
"= c None",
/* pixels */
"================================================================",
"================================================================",
"================================================================",
"================================================================",
"================================================================",
"================================================================",
"================================================================",
"================================================================",
"================================================================",
"================================================================",
"================================================================",
"==============================..================================",
"==============================..================================",
"==========================+..+++===..===========================",
"==========================+..+++===..===========================",
"========================..+##+##...++.==========================",
"======================..++############..========================",
"======================..++############..========================",
"=====================o++$$*&&*&&$$#+++..=====XX=================",
"======================oo$$*&&*&&$$$++#..XX=XXXX=================",
"======================oo$$*&&*&&$$$++#..XX=XXXX=================",
"========================$$$$$$$$..$XXXXXXXXXX===================",
"========================$$$$$$$$..$XXXXXXXXXX===================",
"=================    =*****..*****$...    X=====================",
"================ %%   *****..*****.**O++  ...===================",
"================ %%   *****..*****.**O++  ...===================",
"================ @@  %*****..*****O%%.  OO %%..=================",
"=================  @@@  @@%%%%%%%%@.....%%O%%..=================",
"=================  @@@  @@%%%%%%%%@.....%%O%%..=================",
"=================       @@    %%@@.&&&..OO%@@..=================",
"=================       @@    %%@@.&&&..OO%@@..=================",
"=================  ooo..      @@..&OO.++..O....=================",
"===================  ooo..&&&*****X..+..++...===================",
"===================  ooo..&&&*****X..+..++...===================",
"===================== oo  $$$X  oo ++ooo..o..===================",
"===================== oo  $$$X  oo ++ooo..o..===================",
"======================    o++o++++o  ooooo.=====================",
"========================..o   oo++ooo ....======================",
"========================..o   oo++ooo ....======================",
"========================..o++o++++ooo ..========================",
"========================..o++o++++o...OO..======================",
"========================..o++o++++o...OO..======================",
"======================.....OOO........&&..======================",
"======================.....OOO........&&..======================",
"=====================...+++oo++++++oo.OO..======================",
"================XXXXX.++++ooo+oooooooo..========================",
"================XXXXX.++++ooo+oooooooo..========================",
"================X%%%%X  ooo     +++++o..========================",
"================XXXXXXXXoo ===  ooo++.==========================",
"================XXXXXXXXoo ===  ooo++.==========================",
"=================XXXXXXX  ====XXXXXXX.==========================",
"=================XXXXXXX  ====XXXXXXX.==========================",
"===================XXXXX======XX%%+XX ==========================",
"==============================XXXXXXXX==========================",
"==============================XXXXXXXX==========================",
"================================XXXXXX==========================",
"================================XXXXXX==========================",
"==================================XXX===========================",
"================================================================",
"================================================================",
"================================================================",
"================================================================",
"================================================================",
"================================================================"
};
