/* XPM */
static char *result[] = {
/* columns rows colors chars-per-pixel */
"64 64 13 1 ",
"  c black",
". c #712200",
"X c #19106D",
"o c #EB1D00",
"O c #8B7766",
"+ c #FF9200",
"@ c #F6933E",
"# c #F8F800",
"$ c #0049A6",
"% c #FED798",
"& c #CAC0B7",
"* c #F8F8F8",
"= c None",
/* pixels */
"================================================================",
"================================================================",
"================================================================",
"================================================================",
"================================================================",
"================================================================",
"================================================================",
"================================================================",
"================================================================",
"================================================================",
"=============================...================================",
"=============================...================================",
"========================...==.##.==.....========================",
"========================...==.##.==.....========================",
"======================..o##ooo###..++#oo..======================",
"========================.oo##########o..========================",
"========================.oo##########o..========================",
"======================..+#############++oo======================",
"======================..o++XX***$**$$+oo..======================",
"======================..o++XX***$**$$+oo..======================",
"======================== XX$$*$$.**$$X  ========================",
"======================== XX$$*$$.**$$X  ========================",
"================.=====  =             %%  ====..================",
"==============..%....=  =  ***%%%**** @@  =...%%..==============",
"==============..%....=  =  ***%%%**** @@  =...%%..==============",
"==============..@..==.==   ***%%%**** ..==.==.@@..==============",
"==============..@.....==...%%%...%%%%.XX==....@@..==============",
"==============..@.....==...%%%...%%%%.XX==....@@..==============",
"================.++++...X&&..%...%%..&$$...+++..================",
"================.++++...X&&..%...%%..&$$...+++..================",
"================.++ooooo$**&&O...OO&&*$$..ooo+..================",
"=================..oo+++$$$&&*ooo**&&$$$oo+oo.==================",
"=================..oo+++$$$&&*ooo**&&$$$oo+oo.==================",
"===================...  o$$$$$ooo$$$$$oo++...===================",
"===================...  o$$$$$ooo$$$$$oo++...===================",
"======================  ...+++ooo++++.....======================",
"======================  .oo++o...oo++o....======================",
"======================  .oo++o...oo++o....======================",
"======================  ...oooooooooo...========================",
"========================.oo          o..========================",
"========================.oo          o..========================",
"========================.oo++o+++oo++o..========================",
"========================.oo++o+++oo++o..========================",
"========================.++oo.ooo+++++....======================",
"======================  +++++o   oo+++++  ======================",
"======================  +++++o   oo+++++  ======================",
"======================.....          .....======================",
"=====================X@@%++   ===    +%%@@X=====================",
"=====================X@@%++   ===    +%%@@X=====================",
"=====================XXX$$$XX======XX$$$XXX=====================",
"=====================XXX$$$XX======XX$$$XXX=====================",
"=====================X%%%@@XX======XX@%%%%X=====================",
"=====================        ======        =====================",
"=====================        ======        =====================",
"======================     ==========     ======================",
"======================     ==========     ======================",
"================================================================",
"================================================================",
"================================================================",
"================================================================",
"================================================================",
"================================================================",
"================================================================",
"================================================================"
};
