/* XPM */
static char *_0a24198700c4981fba5417e05765260HnpxZFgQoz8hP1CO[] = {
/* columns rows colors chars-per-pixel */
"64 64 13 1 ",
"  c None",
". c black",
"X c #712200",
"o c #19106D",
"O c #EB1D00",
"+ c #8B7766",
"@ c #FF9200",
"# c #F6933E",
"$ c #F8F800",
"% c #0049A6",
"& c #FED798",
"* c #CAC0B7",
"= c #F8F8F8",
/* pixels */
"                                                                ",
"                                                                ",
"                                                                ",
"                                                                ",
"                                                                ",
"                                                                ",
"                                                                ",
"                                                                ",
"                           XX                                   ",
"                         XX@@XXXX  XX                           ",
"                         XX@@XXXX  XX                           ",
"                        XXX@@$@@$XX@@X                          ",
"                        XXX@@$@@$XX@@X                          ",
"                      XX@$$$$$$$$$$$$$XX                        ",
"                     O@@$$$$$@$$$$$@@@$$XX                      ",
"                     O@@$$$$$@$$$$$@@@$$XX                      ",
"                      OO@@@@@$@@$@@@@$XX                        ",
"                      OO@@@@@$@@$@@@@$XX                        ",
"                        %%%==*%%%ooooooo  %oo                   ",
"                        .====*%%%ooooooo%%                      ",
"                        .====*%%%ooooooo%%                      ",
"                        XXXXXXXXXXXXX...oo%                     ",
"                        X##oo=&&+==++@..  o                     ",
"                        X##oo=&&+==++@..  o                     ",
"                        X##oo=&&#&&XX@..  o                     ",
"                        X##oo=&&#&&XX@..  o                     ",
"                         XX##&&&#XXXX.    o                     ",
"                         XXXXXXXX****+..                        ",
"                         XXXXXXXX****+..                        ",
"                         XX**====**++X..                        ",
"                         XX%%%ooooo%%X                          ",
"                         XX%%%ooooo%%X                          ",
"                        XXX%%o%%=%%ooX                          ",
"                        XXX%%o%%=%%ooX                          ",
"                        XOOOOoOOOOOooX                          ",
"                        .OO@@XXXXOOXX.                          ",
"                        .OO@@XXXXOOXX.                          ",
"                        ...XXX@@@XXXX.XX                        ",
"                        ...XXX@@@XXXX.XX                        ",
"                        X@@OOXXXX@@XX*++XX                      ",
"                        X@@XX+&&&XXXX=**XX                      ",
"                        X@@XX+&&&XXXX=**XX                      ",
"                        XOOXX+&&&XX++*++XX                      ",
"                         XX@@X+++XX+++XX                        ",
"                         XX@@X+++XX+++XX                        ",
"                         XXOO@XXXOOXX                           ",
"                         XXOO@XXXOOXX                           ",
"                         XXXXO@@OXXXX                           ",
"                           XXXXXXXX..                           ",
"                           XXXXXXXX..                           ",
"                             X@@OOOXX                           ",
"                             .ooooo..                           ",
"                             .ooooo..                           ",
"                             o%%&@@oo                           ",
"                             o%%&@@oo                           ",
"                           oo @@ooooo                           ",
"                           oooooooooo                           ",
"                           oooooooooo                           ",
"                                                                ",
"                                                                ",
"                                                                ",
"                                                                ",
"                                                                ",
"                                                                "
};
