/* XPM */
static char *_a818a6c5c2e4b4ba598e5d91199cdebXuyF8WH9kvCE353a[] = {
/* columns rows colors chars-per-pixel */
"64 64 13 1 ",
"  c None",
". c black",
"X c #712200",
"o c #19106D",
"O c #EB1D00",
"+ c #8B7766",
"@ c #FF9200",
"# c #F6933E",
"$ c #F8F800",
"% c #0049A6",
"& c #FED798",
"* c #CAC0B7",
"= c #F8F8F8",
/* pixels */
"                                                                ",
"                                                                ",
"                                                                ",
"                                                                ",
"                                                                ",
"                                                                ",
"                                                                ",
"                           XX                                   ",
"                           XX                                   ",
"                          X@@XXXXX XX                           ",
"                          X@@XXXXX XX                           ",
"                        XXX@@$$@$$X@@XX                         ",
"                      XX@@$$$$$$$$$$$$$X                        ",
"                      XX@@$$$$$$$$$$$$$X                        ",
"                     O@@$$$$$@@$$$$@@@@$XX                      ",
"                     O@@$$$$$@@$$$$@@@@$XX                      ",
"                      OO@@@@@$$@$$@@@$$X                        ",
"                        %%%==**%%%oooooo                        ",
"                        %%%==**%%%oooooo                        ",
"                        ..===**%%%oooooo%%%oo                   ",
"                        ..XXXXXXXXX.....oo                      ",
"                        ..XXXXXXXXX.....oo                      ",
"                        ..#oo==&++=++@@.  ...                   ",
"                        ..#oo==&++=++@@.  ...                   ",
"                        ..#oo==&##&XX@@.                        ",
"                          X##&&&##XXX..                         ",
"                          X##&&&##XXX..                         ",
"                          XXXXXXXX***++.                        ",
"                          X****====++XX.                        ",
"                          X****====++XX.                        ",
"                          X%%%%oooooooo                         ",
"                          X%%%%oooooooo                         ",
"                        XXX%%XXo%%%**%%o                        ",
"                        XXOOO@@OXXOOOOO%XX                      ",
"                        XXOOO@@OXXOOOOO%XX                      ",
"                        ..O@@OOOOOXXXXXO..                      ",
"                        ..O@@OOOOOXXXXXO..                      ",
"                        ...XXXXXXXXXX@@@@@X                     ",
"                        XX@@@OOOOOXOOXXXXXXXX                   ",
"                        XX@@@OOOOOXOOXXXXXXXX                   ",
"                        XX@@@OOOOOXOO++&&&+XX                   ",
"                        XXOOO@@@OOXXX++&&&+                     ",
"                        XXOOO@@@OOXXX++&&&+                     ",
"                          XOO@@@OOXXXXX+++                      ",
"                          XOO@@@OOXXXXX+++                      ",
"                        XX@@@OOOXX.XXXXXXX                      ",
"                        XX@@@OOX..........                      ",
"                        XX@@@OOX..........                      ",
"                        XXXXXXXX   .....oo.                     ",
"                        XX@OOOOX     ..ooo.                     ",
"                        XX@OOOOX     ..ooo.                     ",
"                      ..ooooo...   oo  oooo                     ",
"                      ..ooooo...   oo  oooo                     ",
"                     o  @@ooooo.   ooooooo                      ",
"                     oooooooooo                                 ",
"                     oooooooooo                                 ",
"                                                                ",
"                                                                ",
"                                                                ",
"                                                                ",
"                                                                ",
"                                                                ",
"                                                                ",
"                                                                "
};
