/* XPM */
static char *ed9aa23af19e4e14c1d961885fac624b9ueC4k51VlZC7nRj[] = {
/* columns rows colors chars-per-pixel */
"64 64 18 1 ",
"  c None",
". c black",
"X c #191919",
"o c #1E1E1E",
"O c gray15",
"+ c #712200",
"@ c #19106D",
"# c #EB1D00",
"$ c #8B7766",
"% c #FF9200",
"& c #FFAB00",
"* c #F6933E",
"= c #F8F800",
"- c #443D89",
"; c #0049A6",
": c #FED798",
"> c #CAC0B7",
", c #F8F8F8",
/* pixels */
"                                                                ",
"                                                                ",
"                                                                ",
"                                                                ",
"                                                                ",
"                                                                ",
"                                                                ",
"                                                                ",
"                             +++                                ",
"                             +++                                ",
"                        +++  +==+  +++++                        ",
"                        +++  +==+  +++++                        ",
"                      ++#==###===++%%=##++                      ",
"                      ++#==###===++%%=##++                      ",
"                        +##==========#++                        ",
"                      ++%========%%===%%##                      ",
"                      ++%========%%===%%##                      ",
"                      ++#%%===%%=%%==%##++                      ",
"                        .@@@@,,,;,,;;@..                        ",
"                        .@@@@,,,;,,;;@..                        ",
"                      .. ..;;,;;+,,;;.::..                      ",
"                      .. ..;;,;;+,,;;.::..                      ",
"                      .. .............**..                      ",
"                        ...,,@:::@@,,...                        ",
"                        ...,,@:::@@,,...                        ",
"                        +++,,@:::@@,,+++                        ",
"                      ++@>>++::::::++>@@++                      ",
"                      ++@>>++::::::++>@@++                      ",
"                     +@@;,,>>$+++$$>>,;;,,+                     ",
"                     +@@;,,>>$+++$$>>,;;,,+                     ",
"                     +##;;;>>,###,,>>;;;##+                     ",
"                   ++%%%#;;;;;###;;;;;##%%%++                   ",
"                   ++%%%#;;;;;###;;;;;##%%%++                   ",
"                   +++##+++%%%###%%%%+++##+++                   ",
"                   +++##+++%%%###%%%%+++##+++                   ",
"                 ++%%%+++##%%#+++##%%#++++%%%+                  ",
"                 +++++##.##%%%###%%%%#..##++++                  ",
"                 +++++##.##%%%###%%%%#..##++++                  ",
"                 ++$$:$$+++##########+++$$:$$+                  ",
"                 ++:::+++##..........#++++:::+                  ",
"                 ++:::+++##..........#++++:::+                  ",
"                 ++**++++##%%#%%%##%%#+++++**+                  ",
"                 ++**++++##%%#%%%##%%#+++++**+                  ",
"                   +++..+%%##+###++##%++  +++                   ",
"                     ...#%%%%#...##%%%##++                      ",
"                     ...#%%%%#...##%%%##++                      ",
"                      ++,,,,,>XXO&&%%%++++                      ",
"                      +++++++X   OO+++++++                      ",
"                      +++++++X   OO+++++++                      ",
"                      ++%%%##O   OO##%%%++                      ",
"                      ++%%%##O   OO##%%%++                      ",
"                        +++++O   OO..+++                        ",
"                      @@*::..O   OO..:**@@                      ",
"                      @@*::..O   OO..:**@@                      ",
"                      @@@;;;;-   --;;;@@@@                      ",
"                      @@@;;;;-   --;;;@@@@                      ",
"                      @@:::**-   --**:::@@                      ",
"                        @..oo      oo.@@                        ",
"                        @..oo      oo.@@                        ",
"                                                                ",
"                                                                ",
"                                                                ",
"                                                                ",
"                                                                "
};
