/* XPM */
static char *result[] = {
/* columns rows colors chars-per-pixel */
"64 64 13 1 ",
"  c black",
". c #712200",
"X c #19106D",
"o c #EB1D00",
"O c #8B7766",
"+ c #FF9200",
"@ c #F6933E",
"# c #F8F800",
"$ c #0049A6",
"% c #FED798",
"& c #CAC0B7",
"* c #F8F8F8",
"= c None",
/* pixels */
"================================================================",
"================================================================",
"================================================================",
"================================================================",
"================================================================",
"================================================================",
"================================================================",
"================================================================",
"================================================================",
"=============================...================================",
"========================...==..#..=.....========================",
"========================...==..#..=.....========================",
"======================..oo#oooo###.++##o..======================",
"======================..oo#oooo###.++##o..======================",
"========================..o##########oo.========================",
"======================..++########+####+oo======================",
"======================..++########+####+oo======================",
"======================..oo+#######+##++o..======================",
"======================..oo+#######+##++o..======================",
"========================  X####+##+##XX ========================",
"======================  == XX***$$*$$  %  ======================",
"======================  == XX***$$*$$  %  ======================",
"======================  == $$**$..*$$  @  ======================",
"========================                ========================",
"========================                ========================",
"========================...**XX%%%X**...========================",
"========================...**XX%%%X**...========================",
"======================..XX&..%%.%%%..&&X..======================",
"=====================.XX$$*&&OO*.....**$**.=====================",
"=====================.XX$$*&&OO*.....**$**.=====================",
"=====================.oo$$$....%%%...$$$oo.=====================",
"=====================.++oo$....%%%%....o++.=====================",
"=====================.++oo$....%%%%....o++.=====================",
"=====================.oo..+..@@.@@%..++.oo.=====================",
"=====================.oo..+..@@.@@%..++.oo.=====================",
"=====================.oo++...@@%%%@....+oo.=====================",
"=====================.oo++.@@...@@.@@..+oo.=====================",
"=====================.oo++.@@...@@.@@..+oo.=====================",
"=====================...++.@@@@...@@@..+...=====================",
"======================....+          ++...======================",
"======================....+          ++...======================",
"========================  o++++ooo+++oo.========================",
"========================  o++++ooo+++oo.========================",
"========================..*****ooo+++...========================",
"========================.......   ......========================",
"========================.......   ......========================",
"========================..+++oo   o++++.========================",
"========================..+++oo   o++++.========================",
"==========================.....    ....=========================",
"========================XX@%%      %%@@X========================",
"========================XX@%%      %%@@X========================",
"========================XXX$$$$XXX$$$XXX========================",
"========================XX%%%@@XXX@%%%%X========================",
"========================XX%%%@@XXX@%%%%X========================",
"==========================X    ===   XX=========================",
"==========================X    ===   XX=========================",
"================================================================",
"================================================================",
"================================================================",
"================================================================",
"================================================================",
"================================================================",
"================================================================",
"================================================================"
};
