/* XPM */
static char *_89ce9fc46ba46f08a5a11b887625309ror6mZAZWC9h8c0F[] = {
/* columns rows colors chars-per-pixel */
"64 64 13 1 ",
"  c None",
". c black",
"X c #712200",
"o c #19106D",
"O c #EB1D00",
"+ c #8B7766",
"@ c #FF9200",
"# c #F6933E",
"$ c #F8F800",
"% c #0049A6",
"& c #FED798",
"* c #CAC0B7",
"= c #F8F8F8",
/* pixels */
"                                                                ",
"                                                                ",
"                                                                ",
"                                                                ",
"                                                                ",
"                                                                ",
"                                                                ",
"                                                                ",
"                                                                ",
"                                                                ",
"                                   XX                           ",
"                           XX  XXXX@@XX                         ",
"                           XX  XXXX@@XX                         ",
"                          X@@XX$@@$@@XXX                        ",
"                          X@@XX$@@$@@XXX                        ",
"                        XX$$$$$$$$$$$$$@XX                      ",
"                      XX$$@@@$$$$$@$$$$$@@O                     ",
"                      XX$$@@@$$$$$@$$$$$@@O                     ",
"                        XX$@@@@$@@$@@@@@OO                      ",
"                        ooooooo%%%*==%%%                        ",
"                        ooooooo%%%*==%%%                        ",
"                   oo%%%ooooooo%%%*====.                        ",
"                   oo%%%ooooooo%%%*====.                        ",
"                      oo.....XXXXXXXXXX.                        ",
"                   ...  ..@++==+&&=oo##.                        ",
"                   ...  ..@++==+&&=oo##.                        ",
"                        ..@XX&&#&&=oo##.                        ",
"                          .XXXX#&&&##XX                         ",
"                          .XXXX#&&&##XX                         ",
"                        ..+****XXXXXXXX                         ",
"                        ..+****XXXXXXXX                         ",
"                        ..X++=====***XX                         ",
"                          oooooooo%%%XX                         ",
"                          oooooooo%%%XX                         ",
"                        oo%**%%%ooX%%XXX                        ",
"                        oo%**%%%ooX%%XXX                        ",
"                      XX%%OOOOOXOO@OOOOX                        ",
"                      ..OOXXXXXOOOO@@OO.                        ",
"                      ..OOXXXXXOOOO@@OO.                        ",
"                     X@@@@@XXXXXXXXXX...                        ",
"                   XXXXXXXXOOXXOOOO@@@@X                        ",
"                   XXXXXXXXOOXXOOOO@@@@X                        ",
"                   XX+&&&&+OOXXOOOO@@@@X                        ",
"                   XX+&&&&+OOXXOOOO@@@@X                        ",
"                     +&&&&+XXXXO@@@OOOOX                        ",
"                      ++++XXXXX*%%%**XX                         ",
"                      ++++XXXXX*%%%**XX                         ",
"                      XXXXXXX..X**%%%**X                        ",
"                      ..........@@%%%@@X                        ",
"                      ..........@@%%%@@X                        ",
"                     .oo.....   XXXXXXXX                        ",
"                     .oo.....   XXXXXXXX                        ",
"                     .oooo.     XXOOO@@X                        ",
"                     ooooo oo   ...ooooo..                      ",
"                     ooooo oo   ...ooooo..                      ",
"                      ooooooo   ..ooooo@&&o                     ",
"                      ooooooo   ..ooooo@&&o                     ",
"                                  ooooooooo                     ",
"                                                                ",
"                                                                ",
"                                                                ",
"                                                                ",
"                                                                ",
"                                                                "
};
