/* XPM */
static char *result[] = {
/* columns rows colors chars-per-pixel */
"64 64 13 1 ",
"  c black",
". c #712200",
"X c #19106D",
"o c #EB1D00",
"O c #8B7766",
"+ c #FF9200",
"@ c #F6933E",
"# c #F8F800",
"$ c #0049A6",
"% c #FED798",
"& c #CAC0B7",
"* c #F8F8F8",
"= c None",
/* pixels */
"================================================================",
"================================================================",
"================================================================",
"================================================================",
"================================================================",
"================================================================",
"================================================================",
"================================...=============================",
"================================...=============================",
"========================.....=..#..==...========================",
"======================..o##++.###oooo#oo..======================",
"======================..o##++.###oooo#oo..======================",
"========================.oo##########o..========================",
"======================oo+##########++#++..======================",
"======================oo+##########++#++..======================",
"======================..o++######+++++oo..======================",
"======================..o++######+++++oo..======================",
"========================   $$####++$$   ========================",
"======================  =    +$$$++   ==  ======================",
"======================  =    +$$$++   ==  ======================",
"======================  =  ##      ## ==  ======================",
"======================  =  ##      ## ==  ======================",
"======================== ..+++###++++.  ========================",
"========================......+++.......========================",
"========================......+++.......========================",
"======================..X&&**********&XX..======================",
"=====================.==$$$&&******&&$$$++.=====================",
"=====================.==$$$&&******&&$$$++.=====================",
"=====================.oo$$$$$$$$$$$$$$XXoo.=====================",
"=====================.oo$$$$$$$$$$$$$$XXoo.=====================",
"===================..+++o..$$$$$$$$$$.oo+++..===================",
"===================..ooo.oo+++ooo++++o..ooo..===================",
"===================..ooo.oo+++ooo++++o..ooo..===================",
"=================........oo+++ooo++++o........==================",
"=================..+++oo     o+++++ooo  oo+++.==================",
"=================..+++oo     o+++++ooo  oo+++.==================",
"=================.....  &&&&& ooooooo...OO....==================",
"=================.....  &&&&& ooooooo...OO....==================",
"=================..%%@  OOOOO        o....@%%.==================",
"=================..@@@  ..... +++++++o....@@@.==================",
"=================..@@@  ..... +++++++o....@@@.==================",
"===================...       oooooooo+..XX...===================",
"======================  o++++.   ..+++ooXXX=====================",
"======================  o++++.   ..+++ooXXX=====================",
"======================..+++++o   oo***++XXX=====================",
"======================..+++++o   oo***++XXX=====================",
"======================....... ===  .......======================",
"======================..+++oo ===  oo+++..======================",
"======================..+++oo ===  oo+++..======================",
"========================..... ===  .....========================",
"========================..... ===  .....========================",
"========================X@@%% ===  %%@XX========================",
"======================XX$XXXX ===  XXX$$XX======================",
"======================XX$XXXX ===  XXX$$XX======================",
"======================XX$$$XX ===  XX$$$XX======================",
"========================     ======     ========================",
"========================     ======     ========================",
"================================================================",
"================================================================",
"================================================================",
"================================================================",
"================================================================",
"================================================================",
"================================================================"
};
