/* XPM */
static char *_7f0b24374774364cbf650ba77e1ab91BmWkUih7HeRBmvQR[] = {
/* columns rows colors chars-per-pixel */
"64 64 13 1 ",
"  c None",
". c black",
"X c #712200",
"o c #19106D",
"O c #EB1D00",
"+ c #8B7766",
"@ c #FF9200",
"# c #F6933E",
"$ c #F8F800",
"% c #0049A6",
"& c #FED798",
"* c #CAC0B7",
"= c #F8F8F8",
/* pixels */
"                                                                ",
"                                                                ",
"                                                                ",
"                                                                ",
"                                                                ",
"                                                                ",
"                                                                ",
"                                                                ",
"                                                                ",
"                             XXX                                ",
"                             XXX                                ",
"                        XXX  X$$XX XXXXX                        ",
"                        XXX  X$$XX XXXXX                        ",
"                      XXOO$OOO$$$$X@@$OOXX                      ",
"                        XXO$$$$$$$$$$OXX                        ",
"                        XXO$$$$$$$$$$OXX                        ",
"                      XX@@$$$$$$$$@$$$@@OO                      ",
"                      XXOO@$$$@@$$@$$@OOXX                      ",
"                      XXOO@$$$@@$$@$$@OOXX                      ",
"                        ..ooo===%%=%%o..                        ",
"                        ..ooo===%%=%%o..                        ",
"                      ..  .%%=%%XX=%%.&&..                      ",
"                      ..  ............##..                      ",
"                      ..  ............##..                      ",
"                        ...==o&&&&o==...                        ",
"                        XXX==o&&&&o==XXX                        ",
"                        XXX==o&&&&o==XXX                        ",
"                      XXoo*XX&&&&&&XX*ooXX                      ",
"                      XXoo*XX&&&&&&XX*ooXX                      ",
"                     Xoo%%=**+XXXX+**=%%OOX                     ",
"                     XOO%%%**=OOOO=**%%%OOX                     ",
"                     XOO%%%**=OOOO=**%%%OOX                     ",
"                     X@@@@%%%%OOOO%%%%OO@@X                     ",
"                     X@@@@%%%%OOOO%%%%OO@@X                     ",
"                     XOOOOX@@@OOOO@@@XXXOOXXX                   ",
"                   XXOXXXX.@@OXXXXO@@OXXXX@XX                   ",
"                   XXOXXXX.@@OXXXXO@@OXXXX@XX                   ",
"                   XXO&&&&+@@@OOOO@@@O..OOXXX                   ",
"                   XXX&&&&+..OOOOOOOOXXX++#XX                   ",
"                   XXX&&&&+..OOOOOOOOXXX++#XX                   ",
"                     X++++X..........OXXXX#XX                   ",
"                     X++++X..........OXXXX#XX                   ",
"                      XXXX.@@O@@@@O@@OXXXXX                     ",
"                      ..XXXOOXOOOOXOOO@@XX                      ",
"                      ..XXXOOXOOOOXOOO@@XX                      ",
"                      ..**O@@O..OO@@@@@@XX                      ",
"                        XX===*....XXXXXXXX                      ",
"                        XX===*....XXXXXXXX                      ",
"                          OOOO..OO@@@@XX                        ",
"                          OOOO..OO@@@@XX                        ",
"                          XXXX..XXXXXXXX                        ",
"                           .......&##o                          ",
"                           .......&##o                          ",
"                                oo%%%ooo                        ",
"                                oo%%%ooo                        ",
"                                oo#&&&oo                        ",
"                                  ...o                          ",
"                                  ...o                          ",
"                                                                ",
"                                                                ",
"                                                                ",
"                                                                ",
"                                                                ",
"                                                                "
};
