/* XPM */
static char *_9abb1ca6c66441cc4f3f8f261fab7a7b7m4UT8ra5XlJl2q[] = {
/* columns rows colors chars-per-pixel */
"64 64 18 1 ",
"  c None",
". c #106A28",
"X c #007A2F",
"o c #985D56",
"O c #AA655D",
"+ c #B3645D",
"@ c #BB6C65",
"# c #CC7451",
"$ c #00AB02",
"% c #179A31",
"& c #20822C",
"* c #1CBB32",
"= c #67CA44",
"- c #D28D57",
"; c #E29D71",
": c #92D262",
"> c #E8B68A",
", c #EBD78F",
/* pixels */
"                                                                ",
"                                                                ",
"                                                                ",
"                             %    %%                            ",
"                           %%$% %%%%                            ",
"                      %%$&$$$$$$%%$$*%%%                        ",
"                      %$*$=$$$$$%$$==$*%&                       ",
"                   %%%%====**$$$$*$$$$%%%&&                     ",
"                   *%$=:::=$$**$$%$*$*$%&%&                     ",
"                 %%**===:==*==**$$%$$=**$*%%&                   ",
"                 %%==::=:=*==$$$$$$$*=:*$=$$&                   ",
"                %$$=:****$$$$=*=*=$===***$$*$&%                 ",
"                %$*==*$$=$$$$*:****=:*$=*$*$%%&                 ",
"                %%%$$=*$$*$**=***=**=%$*:=$*$&&&                ",
"                 %$$*=:*$=:**=*$*===*$$$=$***%%&&               ",
"                 %%===**$*=%%%%$$$*%$$*%$*=$$%&&&X              ",
"               %%%==:*$=*$*%%%%%%=$%%$*$$==$*$%&%X              ",
"                &%*==%$*:%%%%%$**==*$%*%%$=%$%%XX               ",
"              & &&%**$**=%%%$***===*$$*$%%*%%XX&X               ",
"             &&$%&%$$$$$$$%%%=*****%$%%$$&%%%%&XXX              ",
"             $**$%&%$$%$%$$%%*=*$*$**%&%%$%%$$%&&X..            ",
"           &%::==$$%%%$**$%%*$$==$$$$%&%%**$*%%&&XX.            ",
"           &&:==***$%$**=$%$$***$%$%%&&&%$**$$%%&X.             ",
"            &$**$%%%*:*=$%$%$$$$*%%$%%%%$$$$$$%&%XX.            ",
"             &%**%$$$*=*$%%%%$%%$$%%%%%$*$%$$%%%&%XX.           ",
"           &&$%$*$%%$$$**%%&%&%*$$$%%$$$%%$&%%&&&&%X..          ",
"           &%%$$$%%%%$%*$&%%&%%%***$%$%%%&%$&&&&.&&X..          ",
"          ..&&%%$%&%&%%&%%%&&%%%$$%%%%%&%%$$%X....X..           ",
"           .&%&%%&&&X&&%&$%&&%$$%%&%&&&%$$$%%&X..XX...          ",
"             .&&%&&&XX&&&%%&%&&%&%&&XXX%&$%%&%&%.X....          ",
"             &&&&XXXXXX&%&&&&&%&%&&&XXX&%%&&&&&%&XX..           ",
"             .&..%&XXXX&&%&%%&XXXXXXXXX&&%&&%&.&XX...           ",
"             &&&.&&XXXX&%&%%&XXXXXXXXX&%&&%%%&&.X....           ",
"             ..&&%&&%X&%%%&&&&&XX&X&&&XX&%%&%.X.X..             ",
"              .X.&%&&&&%&&&%&%&&&&&&%&&&%%%%&.X...              ",
"                .X.X.X.&&&&&..%&%%%%%&&X&&&&XX..                ",
"                .XXX.XX&X&X.%&.%%%%&%&X.X&&X....                ",
"                 ....XXXX.X.X&X&&&&&XXXX..X....                 ",
"                   ..X....X.XX&&X&XX&X..X......                 ",
"                   .....X....XXX.X.XX.......                    ",
"                     .........XXX..X.......                     ",
"                       ... @............ .                      ",
"                       ..  #@.........                          ",
"                           +#@...#o..                           ",
"                           ++@.@O#OOo                           ",
"                            +#@@O#Oo                            ",
"                            +#@#OO#o                            ",
"                            +#-#OO#o                            ",
"                            +--###-o                            ",
"                            +--;-##o                            ",
"                           o+;---#-o                            ",
"                         o##+;-;;--oo                           ",
"                         ->+#;->;;-#ooo                         ",
"                          o#;;-,;>;;#-;o                        ",
"                           -,-->;>;;-o#o                        ",
"                         +->-#;,;-->>#                          ",
"                         ->-##>>-##;>;                          ",
"                             -,-#ooo#-;                         ",
"                             >;#o   oo#                         ",
"                             -#                                 ",
"                                                                ",
"                                                                ",
"                                                                ",
"                                                                "
};
