/* XPM */
static char *d405f1f68cd443e3e4d6d649ce23c7e3t4cjnTdvgfd9Iuzq[] = {
/* columns rows colors chars-per-pixel */
"65 65 28 1 ",
"  c None",
". c #000707",
"X c #000808",
"o c gray12",
"O c #202020",
"+ c #27275F",
"@ c #28285F",
"# c #2F2F6F",
"$ c #2F2F70",
"% c #303070",
"& c #4F575F",
"* c #4F585F",
"= c #50575F",
"- c #50585F",
"; c #4F5760",
": c #4F5860",
"> c #505760",
", c #505860",
"< c #805030",
"1 c #C08067",
"2 c #C08068",
"3 c #4868C8",
"4 c #9F9F9F",
"5 c #A0A0A0",
"6 c #E7B79F",
"7 c #E8B8A0",
"8 c #C8C8C8",
"9 c #F8F8F8",
/* pixels */
"                                                                 ",
"                                                                 ",
"                                                                 ",
"                                                                 ",
"                                                                 ",
"                                                                 ",
"                                                                 ",
"                                                                 ",
"                             X.....XX                            ",
"                           .X+>;==&,,XXX X                       ",
"                          .@-**=,,,,,,,%X                        ",
"                         X%,:-;:&,,,,,%OX                        ",
"                        X#;&;**;=&,,,%OX                         ",
"                        X=&-*>;==&,,%%,OX                        ",
"                        .;,;-;:,,,,,,,OX                         ",
"                       X#&-->;;=&,,,,,%X                         ",
"                       .;&;-;=,,&,,,,%%X                         ",
"                       .%:*>;#=,,,%,,%X                          ",
"                       .#->$:OooO,O%,%X                          ",
"                       XO#;o$5898O8O,,X                          ",
"                        X$=O+4888O5O%,X                          ",
"                        .1;o4&OOOOO5O,2X                         ",
"                        .6%o9O2772O9O%7X                         ",
"                         .$o29799792O%X                          ",
"                          .O<777777<OOX                          ",
"                         .O5O<2772<O5%OX                         ",
"                       .X%%O8OOOOOO5O3O%X                        ",
"                      .%3%%OO<22<<O%3O%%3X                       ",
"                      X33%%33OOOOO33%O%%3X                       ",
"                     X3333%%3333333%O%%%%X                       ",
"                    X%3333333333%%%OO%%%%%X                      ",
"                    X3333%%%3%%%%OO%%%%%%%X                      ",
"                    X%33%%%%33%%%%%%%%%%OOX                      ",
"                   X<OO%%%%%333%%%%%%%OO<X                       ",
"                   X2<OO%%%333333%%%%%O<OOX                      ",
"                  X72<<OX%%333333%%%%%OO335X                     ",
"                  XOOOOX X%3333333%%%%O%585X                     ",
"                  X%33%X X%333333333%%OO533X                     ",
"                  X5%%OX X%33333333%%OOO%OOXX                    ",
"                  X5885X X%%333333%%OOOOO<2<X                    ",
"                  XO333X XOOOOOOOOOO,5OO<27<X                    ",
"                  X<OOOOXO,8,55,,,,,,OOOO<<X                     ",
"                  X<222OOO,,8985,588,98OOXX                      ",
"                   X<72OO,599958,5985995X                        ",
"                    XXXOOO,,59855,8889995X                       ",
"                       XO898,55,,,55995,,X                       ",
"                       XOO598,XXXX,555OOOX                       ",
"                      X<2<O,5,X   X,5O<72X                       ",
"                      XO772O,X     XO277<X                       ",
"                      X3OOO%XX      XOOO3X                       ",
"                      XO33%XO      OX333%X                       ",
"                      X,,%XOOOOOOOOOX%,,%X                       ",
"                     X%%%%XOOOOOOOOOX%%%%%X                      ",
"                    X%333%XOOOOOOOOOXX%3<2<X                     ",
"                    X%%33XOOOOOOOOOOOOX%272X                     ",
"                    X277%XOOOOOOOOOOOOOXXXX                      ",
"                     X72XOOO                                     ",
"                      XXXO                                       ",
"                                                                 ",
"                                                                 ",
"                                                                 ",
"                                                                 ",
"                                                                 ",
"                                                                 ",
"                                                                 "
};
