/* XPM */
static char *result[] = {
/* columns rows colors chars-per-pixel */
"64 64 12 1 ",
"  c black",
". c #712200",
"X c #19106D",
"o c #EB1D00",
"O c #8B7766",
"+ c #FF9200",
"@ c #F6933E",
"# c #F8F800",
"$ c #FF5BBB",
"% c #FED798",
"& c #F8F8F8",
"* c None",
/* pixels */
"****************************************************************",
"****************************************************************",
"****************************************************************",
"****************************************************************",
"**********************...***************...*********************",
"**********************...***************...*********************",
"********************..+##...........**..#++.********************",
"********************..###...++++++++..  ###.********************",
"********************..###...++++++++..  ###.********************",
"********************..#  oo+##++###+oo.. ##.********************",
"*******************.++#..++#oo###oo###++.##+..******************",
"*******************.++#..++#oo###oo###++.##+..******************",
"*******************.++#..++#OOOO+OO#++oo.##+..******************",
"*******************.++#..++#OOOO+OO#++oo.##+..******************",
"*******************.###  ++#OO%%OOO#oo  .###..******************",
"*******************.##+    OOO%%%OOO     ++#..******************",
"*******************.##+    OOO%%%OOO     ++#..******************",
"*******************.++...  %%%%%%XX&  %% ++#....****************",
"*******************+..@..  XXX%%%XX&  @@.++#++..****************",
"*******************+..@..  XXX%%%XX&  @@.++#++..****************",
"*******************.&&@....@%%%%%%%@..  .+++++..****************",
"*******************.&&@....@%%%%%%%@..  .+++++..****************",
"*******************.@@%@@  .@@...@@.$$$$.++.++..****************",
"*******************...@%%..@.......@.....++.++..****************",
"*******************...@%%..@.......@.....++.++..****************",
"*******************.##.@@@@@%%@@@@@@&&@@.++...******************",
"*******************.##.@@@@@%%@@@@@@&&@@.++...******************",
"*******************.++...@@%%%%%%%%%%%%%@...********************",
"********************..*....ooo%%ooo@OO@@%..*********************",
"********************..*....ooo%%ooo@OO@@%..*********************",
"***********************..ooooooooooo..OO%..*********************",
"***********************..ooooooooooo....@..*********************",
"***********************..ooooooooooo....@..*********************",
"*************************..@%%%%%@@O..$$O@@.********************",
"*************************..@%%%%%@@O..$$O@@.********************",
"*************************..@%%@@%%%O..$$.%%.********************",
"*************************..@%%..%%%@OO..$%%@..******************",
"*************************..@%%..%%%@OO..$%%@..******************",
"*************************..ooooooooooo...@@...******************",
"*************************..ooooooooooo......********************",
"*************************..ooooooooooo......********************",
"*************************..@..ooooo%@@..%@@.********************",
"*************************..@..ooooo%@@..%@@.********************",
"*************************..@%%...@@&@@OO@...********************",
"*************************..@%%%%.@@%@@OO...*********************",
"*************************..@%%%%.@@%@@OO...*********************",
"*************************..@%%%%.@@%@@OO.***********************",
"***************************.%%@@.@@@@@..************************",
"***************************.%%@@.@@@@@..************************",
"***************************.@@@@...O....************************",
"***************************.@@@@...O....************************",
"***************************.OOOO......**************************",
"****************************..@@O..*****************************",
"****************************..@@O..*****************************",
"****************************..@@O..*****************************",
"****************************..@@O..*****************************",
"******************************.....*****************************",
"****************************..%%O..*****************************",
"****************************..%%O..*****************************",
"****************************..@@%..*****************************",
"******************************...*******************************",
"******************************...*******************************",
"****************************************************************",
"****************************************************************"
};
