/* XPM */
static char *_70eae0fe2af4aa1cf6e33133414597exY3kNs0pO5feurlM[] = {
/* columns rows colors chars-per-pixel */
"50 50 176 2 ",
"   c None",
".  c #010001",
"X  c #09050D",
"o  c #0C0712",
"O  c #0F0815",
"+  c #0F0819",
"@  c #110917",
"#  c #120A1A",
"$  c #1B0C1C",
"%  c #1E1417",
"&  c #1B111C",
"*  c #200D1E",
"=  c #23141E",
"-  c #28161F",
";  c #25181F",
":  c #2C1D1C",
">  c #33241F",
",  c #1F1825",
"<  c #240B21",
"1  c #2A0B23",
"2  c #320B26",
"3  c #360B28",
"4  c #3B0C2A",
"5  c #261120",
"6  c #2B1421",
"7  c #271A20",
"8  c #2D1B20",
"9  c #211928",
"0  c #341524",
"q  c #311B22",
"w  c #3A1D24",
"e  c #3C1229",
"r  c #332423",
"t  c #3C2423",
"y  c #3C2924",
"u  c #440C2D",
"i  c #490C2F",
"p  c #441B27",
"a  c #44122C",
"s  c #4D132E",
"d  c #451C29",
"f  c #4B1E2B",
"g  c #531D2E",
"h  c #4B0C30",
"j  c #4F1231",
"k  c #531530",
"l  c #561A31",
"z  c #591D31",
"x  c #442426",
"c  c #492726",
"v  c #422D26",
"b  c #4B2927",
"n  c #4C232A",
"m  c #4E2A2A",
"M  c #512726",
"N  c #5A2F24",
"B  c #54222D",
"V  c #59232E",
"C  c #532B2B",
"Z  c #592F2A",
"A  c #473326",
"S  c #483327",
"D  c #463228",
"F  c #4C3328",
"G  c #4D382A",
"H  c #5B3023",
"J  c #53342A",
"K  c #5C332B",
"L  c #523B2B",
"P  c #5D3C2C",
"I  c #5E2431",
"U  c #612929",
"Y  c #62332C",
"T  c #6B342F",
"R  c #633B2D",
"E  c #6E392F",
"W  c #74312D",
"Q  c #78362E",
"!  c #703B2F",
"~  c #602631",
"^  c #642A31",
"/  c #6A2C32",
"(  c #6B3332",
")  c #6D3B33",
"_  c #733533",
"`  c #743C33",
"'  c #7B3B34",
"]  c #5C432D",
"[  c #62442E",
"{  c #62482F",
"}  c #6F4434",
"|  c #674C30",
" . c #6A4D32",
".. c #754235",
"X. c #7B4233",
"o. c #7D4B35",
"O. c #6D5032",
"+. c #715433",
"@. c #7D5334",
"#. c #7C5A35",
"$. c #7F5238",
"%. c #813F34",
"&. c #91441F",
"*. c #9C4A1D",
"=. c #BC5A1F",
"-. c #924E24",
";. c #9B5B2F",
":. c #834434",
">. c #884735",
",. c #834A35",
"<. c #8A4A35",
"1. c #954C30",
"2. c #845536",
"3. c #8B5237",
"4. c #865936",
"5. c #8C5B37",
"6. c #8F5B35",
"7. c #8C5C37",
"8. c #8B5B37",
"9. c #825638",
"0. c #8D5438",
"q. c #865B39",
"w. c #8E5B38",
"e. c #895E38",
"r. c #8C5D38",
"t. c #8E5D38",
"y. c #8D5F38",
"u. c #8C5D38",
"i. c #965B32",
"p. c #905A35",
"a. c #915B34",
"s. c #985830",
"d. c #AA5424",
"f. c #AE5A26",
"g. c #A1562B",
"h. c #A05D2E",
"j. c #AC5F29",
"k. c #A85B29",
"l. c #B35521",
"z. c #B85721",
"x. c #B15A25",
"c. c #B75B22",
"v. c #836238",
"b. c #846238",
"n. c #876539",
"m. c #8D6038",
"M. c #8D6138",
"N. c #8F6339",
"B. c #8E6139",
"V. c #896639",
"C. c #8A673A",
"Z. c #886539",
"A. c #8F643A",
"S. c #8F6439",
"D. c #8B643A",
"F. c #8F6A3B",
"G. c #8E693B",
"H. c #8C683A",
"J. c #906339",
"K. c #90663A",
"L. c #90663B",
"P. c #916B3B",
"I. c #946939",
"U. c #976C39",
"Y. c #916B3C",
"T. c #906C3C",
"R. c #926C3C",
"E. c #936D3C",
"W. c #936E3C",
"Q. c #946F3D",
"!. c #956E3D",
"~. c #926D3C",
"^. c #95703D",
"/. c #95703D",
"(. c #B46026",
"). c #C15B1D",
/* pixels */
"                                                                                                    ",
"                                                                                                    ",
"                            9 9 ,                                                                   ",
"                            # # O                                                                   ",
"                            y v y                                                                   ",
"                      # # ; #.G.O.# # O     O # @             # # O                                 ",
"                      # # ; b.!.+.# # O     O # #             # # @                                 ",
"                      # # = 4.K.#.G F y     t F S :         % F F y                                 ",
"                      # # = @.7.y.G.P.] # # ] R.V.t + # # # 8 n.R.| # # O                           ",
"                      # # = @.5.y.R.R.] # # ] !.V.y # # # # 8 V.R.| # # O                           ",
"                  o o # # = o.3.0.N.S.P # # r L L L L G & # 8 e.S.{ # # @ o o                       ",
"                @ # # # # = X.<.<.8.8.P # # # # &  .!.v.7 # 7 2.7.[ # # # # #                       ",
"                # # # # # = X.>.<.8.8.P # # # # & O.!.b.7 # 7 2.5.[ # # # # #                       ",
"            o @ A { ] ; # = ^ _ ` <.3.K # # y ] { #.N.4.; # 7 ,.3.R # # t ] ] > o o                 ",
"            # # { /.V.r # $ B ~ / >.<.Z # # ] !.R.N.8.@.= + 6 :.<.Y # # L !.G.v + #                 ",
"            # # { !.V.r # $ B ~ / :.:.Z $ & ] !.P.N.8.@.8 # 8 X.:.K # # L !.G.v + #                 ",
"            # # ] J.4.8 # $ B ~ B w w F  . .#.N.N.y.8.4. .| ] t w 8 # # G N.e.y + #                 ",
"            # # P y.2.8 # $ B ~ f # # D R.R.N.8.8.8.8.y.Y.R.#.& # # # # F 7.4.y # #                 ",
"            # # P w.2.8 # $ B ~ n # # D R.P.J.p.5.5.8.7.I.U.#.& # # # # F 5.2.y # #                 ",
"            # # K <.,.8 # $ B ~ f # # v N.N.h.x.f.i.8.5.j.(.-.$ # # # # m <.>.t # #                 ",
"            # # K <.:.8 + $ B ~ f # # v 7.5.k.).=.;.8.p.c.).*.$ # # # # b <.:.t # #                 ",
"            # # Z :.X.w = 6 B I f # # v 2.2.g.z.l.s.8.5.d.l.&.$ # $ = = C :.X.w # #                 ",
"            # # n / / ) ! T k k a # # q ( ( :.1.1.<.<.>.Q W U $ # q E E ) / ^ 0 # #                 ",
"            # # d ~ ^ :.<.%.k h 4 # # 0 ~ ~ ` <.<.<.<.:./ ~ B # + w <.<._ ~ I 6 # #                 ",
"            # # d I ~ :.3.,.I z f 6 - w B B ( ' ' ' ' ' V B f 6 - b <.<.` I I 6 # #                 ",
"            # # 4 k k 9.K.S.q.q.9.` ` C $ * e k k k k s 5 $ q ` ` o.K.K.` h s 1 # #                 ",
"            # # 3 h j 9.R.R.R.!.K.<.<.Z + # 2 h h h h u $ + - :.<.0.R.R.) h i < # #                 ",
"            # # d I ^ q.P.S.q.q.q.3.3.R q q 0 4 4 4 4 4 0 8 x ,.3.0.q.q.` z I 6 # #                 ",
"            # # ] N.D.e.r.2.( ^ ` K.P.8.X.X.x # $ $ $ = E X.,.K.P.9.^ ^ ..2.2.t # #                 ",
"            # # { /.R.N.8.2.^ ~ ) R.R.y.<.:.x + # # # & ` <.3.R.R.9.~ ~ ..7.8.y # #                 ",
"            # # { P.S.2.o...n d Z 9.9.2.0.3.P y y y y v o.0.0.9.9.} f f ) 5.4.y # #                 ",
"            # # P y.8.) ^ V * $ 6 ^ / ..Y.Y.G.V.V.V.V.V.P.Y.e.^ ^ n $ $ J 5.4.y # #                 ",
"            # # P y.0.( I B $ # 5 I I ..R.R.R.R.R.R.R.R.R.R.e.^ ~ d # # F 7.4.y # #                 ",
"            # # P y.0.( ~ B $ # 6 ) ` ..$.$.$.$.$.$.$.$.$.$.o.` ` C # # F 7.4.y # #                 ",
"            # # P y.2.( ~ B $ # q 2.8.X.^ ^ ^ ^ ^ ^ ^ ^ ^ ^ ( 2.8.R # # F 7.4.y # #                 ",
"            # # P y.2.( ~ B $ # q 4.8.X.~ ~ ~ ~ ~ ~ ~ ~ ~ ~ ( 8.7.[ # # F 7.4.y + #                 ",
"            # # P y.2.m w 0 # # 8 ....` _ _ _ _ _ _ _ _ _ _ ` ....J # # q J J : o o                 ",
"            # # P y.2.q # # # # 5 I ~ _ >.>.>.>.>.>.>.>.>.>.:.^ ~ d # # # # #                       ",
"            # # P 7.2.8 # # # # 5 I ~ _ <.<.<.>.>.>.>.>.>.<.:.^ ~ d # # # # #                       ",
"                t F v =   o # # 6 _ ` _ _ _ / / / C c b ~ / / _ ` M X X X                           ",
"                @ # #       # # q :.<.' ~ ~ l h i < # $ u h l :.<.H . . .                           ",
"                @ # @       # # q :.>.' I I k i i < # $ u h k :.>.N . . .                           ",
"                            # # 6 ( _ / k k e 1 < $     < 1 0 ~ ~ p o X X                           ",
"                            # # 5 I ~ l h h 1 # #       # # $ i h 4 # # O                           ",
"                            # # 5 I ~ z h h 1 # #       # # < i h 4 $ # @                           ",
"                      o O $ p d f I ~ I z z a 4 3 $ O @ 2 4 4 l z g d d 6 O o                       ",
"                      # # $ V ~ ~ ~ ~ ~ ~ ~ k h i < # $ u h k I ~ ~ ~ ~ w # #                       ",
"                      @ # $ B V V V V V V V s u u * # # 4 u s V V V V V 0 # @                       ",
"                                                                                                    ",
"                                                                                                    "
};
